<?xml version="1.0" encoding="UTF-8" standalone="no"?>
<!-- Created with Inkscape (http://www.inkscape.org/) -->

<svg
   width="210mm"
   height="297mm"
   viewBox="0 0 210 297"
   version="1.1"
   id="svg36630"
   inkscape:version="1.2.2 (732a01da63, 2022-12-09)"
   sodipodi:docname="Enegy level diagram.svg"
   xmlns:inkscape="http://www.inkscape.org/namespaces/inkscape"
   xmlns:sodipodi="http://sodipodi.sourceforge.net/DTD/sodipodi-0.dtd"
   xmlns="http://www.w3.org/2000/svg"
   xmlns:svg="http://www.w3.org/2000/svg">
  <sodipodi:namedview
     id="namedview36632"
     pagecolor="#ffffff"
     bordercolor="#000000"
     borderopacity="0.25"
     inkscape:showpageshadow="2"
     inkscape:pageopacity="0.0"
     inkscape:pagecheckerboard="0"
     inkscape:deskcolor="#d1d1d1"
     inkscape:document-units="mm"
     showgrid="false"
     inkscape:zoom="0.88994317"
     inkscape:cx="138.77291"
     inkscape:cy="437.10656"
     inkscape:window-width="1920"
     inkscape:window-height="1057"
     inkscape:window-x="-8"
     inkscape:window-y="-8"
     inkscape:window-maximized="1"
     inkscape:current-layer="layer1" />
  <defs
     id="defs36627">
    <marker
       style="overflow:visible"
       id="marker57135"
       refX="0"
       refY="0"
       orient="auto-start-reverse"
       inkscape:stockid="Arrow1"
       markerWidth="4.0606604"
       markerHeight="6.7071066"
       viewBox="0 0 4.0606602 6.7071068"
       inkscape:isstock="true"
       inkscape:collect="always"
       preserveAspectRatio="xMidYMid"
       markerUnits="strokeWidth">
      <path
         style="fill:none;stroke:context-stroke;stroke-width:1;stroke-linecap:butt"
         d="m -2.75,3 3,-3 -3,-3"
         id="path57133"
         sodipodi:nodetypes="ccc" />
    </marker>
    <rect
       x="43.091902"
       y="383.21013"
       width="93.109289"
       height="48.47839"
       id="rect52168" />
    <rect
       x="60.020864"
       y="400.13909"
       width="85.414306"
       height="37.705414"
       id="rect52144" />
    <marker
       style="overflow:visible"
       id="marker52016"
       refX="0"
       refY="0"
       orient="auto-start-reverse"
       inkscape:stockid="Arrow1"
       markerWidth="4.0606599"
       markerHeight="6.7071066"
       viewBox="0 0 4.0606602 6.7071068"
       inkscape:isstock="true"
       inkscape:collect="always"
       preserveAspectRatio="xMidYMid">
      <path
         style="fill:none;stroke:context-stroke;stroke-width:1;stroke-linecap:butt"
         d="M 3,-3 0,0 3,3"
         id="path52014"
         transform="rotate(180,0.125,0)"
         sodipodi:nodetypes="ccc" />
    </marker>
    <marker
       style="overflow:visible"
       id="Arrow1"
       refX="0"
       refY="0"
       orient="auto-start-reverse"
       inkscape:stockid="Arrow1"
       markerWidth="4.0606599"
       markerHeight="6.7071061"
       viewBox="0 0 4.0606602 6.7071068"
       inkscape:isstock="true"
       inkscape:collect="always"
       preserveAspectRatio="xMidYMid">
      <path
         style="fill:none;stroke:context-stroke;stroke-width:1;stroke-linecap:butt"
         d="M 3,-3 0,0 3,3"
         id="path5057"
         transform="rotate(180,0.125,0)"
         sodipodi:nodetypes="ccc" />
    </marker>
    <marker
       style="overflow:visible"
       id="Arrow1-3"
       refX="0"
       refY="0"
       orient="auto-start-reverse"
       inkscape:stockid="Arrow1"
       markerWidth="4.0606599"
       markerHeight="6.7071061"
       viewBox="0 0 4.0606602 6.7071068"
       inkscape:isstock="true"
       inkscape:collect="always"
       preserveAspectRatio="xMidYMid">
      <path
         style="fill:none;stroke:context-stroke;stroke-width:1;stroke-linecap:butt"
         d="M 3,-3 0,0 3,3"
         id="path5057-8"
         transform="rotate(180,0.125,0)"
         sodipodi:nodetypes="ccc" />
    </marker>
    <clipPath
       id="clipPath597">
      <path
         clip-rule="nonzero"
         d="m 20,7 h 7 v 5.199219 h -7 z m 0,0"
         id="path3060" />
    </clipPath>
    <clipPath
       id="clipPath8500">
      <path
         clip-rule="nonzero"
         d="m 27,7 h 6 v 5.199219 h -6 z m 0,0"
         id="path369" />
    </clipPath>
  </defs>
  <g
     inkscape:groupmode="layer"
     id="layer2"
     inkscape:label="Layer 2">
    <path
       style="fill:none;stroke:#ff0000;stroke-width:0.373661;stroke-linecap:round;stroke-dasharray:none;stroke-opacity:1;marker-end:url(#marker57135)"
       d="m 83.713713,116.62534 c 4.123331,-5.66201 8.139659,-5.3043 12.069465,-0.0847 4.022993,5.48411 8.040362,5.19471 11.978552,-0.084 3.66053,-4.61816 7.55673,-5.6828 11.94536,-0.0838"
       id="path15891"
       sodipodi:nodetypes="cccc" />
    <text
       xml:space="preserve"
       style="font-size:8.46667px;fill:none;stroke:#ff0000;stroke-width:0.561999;stroke-linecap:round;stroke-dasharray:none;stroke-dashoffset:0;stroke-opacity:1"
       x="100.81353"
       y="105.8939"
       id="text58949"><tspan
         sodipodi:role="line"
         id="tspan58947"
         style="stroke-width:0.562"
         x="100.81353"
         y="105.8939" /></text>
    <text
       xml:space="preserve"
       style="font-size:8.46667px;fill:#000000;stroke:#000000;stroke-width:0.561999;stroke-linecap:round;stroke-dasharray:none;stroke-dashoffset:0;stroke-opacity:1"
       x="155.745"
       y="98.749634"
       id="text69679"><tspan
         sodipodi:role="line"
         id="tspan69677"
         style="stroke-width:0.562"
         x="155.745"
         y="98.749634" /></text>
    <g
       inkscape:label=""
       transform="matrix(1.8288879,0,0,2.0782656,91.338197,101.49686)"
       id="g155051">
      <g
         fill="#000000"
         fill-opacity="1"
         id="g36"
         transform="matrix(0.352778,0,0,0.352778,-0.187413,2.64606e-4)">
        <g
           id="use34"
           transform="translate(0,8.7650003)">
          <path
             d="m 3.5625,-2.90625 c 0.40625,1.046875 0.890625,2.5625 1.046875,2.796875 0.15625,0.21875 0.25,0.21875 0.53125,0.21875 h 0.21875 c 0.09375,-0.015625 0.109375,-0.0625 0.109375,-0.09375 0,-0.03125 -0.03125,-0.0625 -0.0625,-0.09375 C 5.3125,-0.1875 5.25,-0.34375 5.1875,-0.53125 L 3.15625,-6.203125 c -0.21875,-0.578125 -0.75,-0.71875 -1.21875,-0.71875 -0.046875,0 -0.1875,0 -0.1875,0.109375 0,0.078125 0.078125,0.109375 0.09375,0.109375 C 2.171875,-6.65625 2.25,-6.59375 2.5,-5.90625 l 0.953125,2.703125 -2.75,2.734375 c -0.109375,0.125 -0.171875,0.171875 -0.171875,0.3125 0,0.171875 0.140625,0.28125 0.296875,0.28125 0.15625,0 0.25,-0.109375 0.328125,-0.203125 z m 0,0"
             id="path66" />
        </g>
      </g>
      <g
         fill="#000000"
         fill-opacity="1"
         id="g40"
         transform="matrix(0.352778,0,0,0.352778,-0.187413,2.64606e-4)">
        <g
           id="use38"
           transform="translate(8.5790005,8.7650003)">
          <path
             d="m 6.84375,-3.265625 c 0.15625,0 0.34375,0 0.34375,-0.1875 C 7.1875,-3.65625 7,-3.65625 6.859375,-3.65625 h -5.96875 c -0.140625,0 -0.328125,0 -0.328125,0.203125 0,0.1875 0.1875,0.1875 0.328125,0.1875 z m 0.015625,1.9375 c 0.140625,0 0.328125,0 0.328125,-0.203125 0,-0.1875 -0.1875,-0.1875 -0.34375,-0.1875 H 0.890625 c -0.140625,0 -0.328125,0 -0.328125,0.1875 0,0.203125 0.1875,0.203125 0.328125,0.203125 z m 0,0"
             id="path70" />
        </g>
      </g>
      <g
         fill="#000000"
         fill-opacity="1"
         id="g46"
         transform="matrix(0.352778,0,0,0.352778,-0.187413,2.64606e-4)">
        <g
           id="use42"
           transform="translate(22.566999,4.8429999)">
          <path
             d="m 2.1875,-4.625 c 0,-0.015625 0.015625,-0.109375 0.015625,-0.109375 0,-0.046875 -0.015625,-0.109375 -0.109375,-0.109375 -0.140625,0 -0.71875,0.0625 -0.890625,0.078125 -0.046875,0 -0.15625,0.015625 -0.15625,0.15625 0,0.09375 0.109375,0.09375 0.1875,0.09375 0.328125,0 0.328125,0.0625 0.328125,0.109375 0,0.046875 -0.015625,0.09375 -0.015625,0.15625 L 0.5625,-0.3125 c -0.046875,0.125 -0.046875,0.140625 -0.046875,0.15625 0,0.109375 0.09375,0.21875 0.25,0.21875 0.078125,0 0.203125,-0.03125 0.28125,-0.171875 C 1.0625,-0.15625 1.125,-0.40625 1.15625,-0.546875 l 0.171875,-0.625 C 1.34375,-1.28125 1.421875,-1.546875 1.4375,-1.640625 1.5,-1.90625 1.5,-1.921875 1.640625,-2.140625 1.875,-2.484375 2.21875,-2.875 2.765625,-2.875 c 0.390625,0 0.40625,0.3125 0.40625,0.484375 0,0.421875 -0.296875,1.1875 -0.40625,1.484375 -0.078125,0.203125 -0.109375,0.265625 -0.109375,0.375 0,0.375 0.3125,0.59375 0.65625,0.59375 0.703125,0 1.015625,-0.953125 1.015625,-1.0625 0,-0.09375 -0.09375,-0.09375 -0.125,-0.09375 -0.09375,0 -0.09375,0.046875 -0.125,0.125 -0.15625,0.5625 -0.46875,0.84375 -0.734375,0.84375 -0.15625,0 -0.1875,-0.09375 -0.1875,-0.25 0,-0.15625 0.046875,-0.25 0.171875,-0.5625 C 3.40625,-1.15625 3.6875,-1.890625 3.6875,-2.28125 c 0,-0.109375 0,-0.40625 -0.25,-0.609375 -0.125,-0.078125 -0.328125,-0.1875 -0.65625,-0.1875 -0.5,0 -0.875,0.28125 -1.125,0.578125 z m 0,0"
             id="path74" />
        </g>
        <g
           id="use44"
           transform="translate(27.231077,4.8429999)">
          <path
             d="m 3.046875,-2.671875 c -0.25,0.046875 -0.34375,0.234375 -0.34375,0.390625 0,0.1875 0.140625,0.265625 0.265625,0.265625 0.15625,0 0.390625,-0.109375 0.390625,-0.453125 0,-0.46875 -0.53125,-0.609375 -0.90625,-0.609375 -1.046875,0 -2.015625,0.96875 -2.015625,1.9375 0,0.59375 0.40625,1.203125 1.28125,1.203125 1.1875,0 1.734375,-0.6875 1.734375,-0.78125 0,-0.046875 -0.0625,-0.125 -0.125,-0.125 -0.03125,0 -0.046875,0.015625 -0.109375,0.078125 C 2.671875,-0.125 1.859375,-0.125 1.734375,-0.125 c -0.5,0 -0.71875,-0.34375 -0.71875,-0.78125 0,-0.1875 0.09375,-0.953125 0.453125,-1.4375 0.265625,-0.34375 0.625,-0.53125 0.984375,-0.53125 0.09375,0 0.421875,0.015625 0.59375,0.203125 z m 0,0"
             id="path78" />
        </g>
      </g>
      <path
         fill="none"
         stroke-width="0.398"
         stroke-linecap="butt"
         stroke-linejoin="miter"
         stroke="#000000"
         stroke-opacity="1"
         stroke-miterlimit="10"
         d="M 19.757812,6.2741876 H 32.535156"
         id="path48"
         transform="scale(0.352778)" />
      <g
         clip-path="url(#clipPath597)"
         id="g54"
         transform="matrix(0.352778,0,0,0.352778,-0.187413,2.64606e-4)">
        <g
           fill="#000000"
           fill-opacity="1"
           id="g52">
          <g
             id="use50"
             transform="translate(20.290001,12.201)">
            <path
               d="m 3.484375,-4.8125 c -0.0625,-0.125 -0.078125,-0.15625 -0.21875,-0.15625 -0.09375,0 -0.15625,0.015625 -0.21875,0.125 L 0.46875,-0.171875 C 0.421875,-0.09375 0.421875,-0.078125 0.421875,-0.0625 0.421875,0 0.484375,0 0.59375,0 H 5.9375 c 0.109375,0 0.171875,0 0.171875,-0.0625 0,-0.015625 0,-0.03125 -0.046875,-0.109375 z m -0.453125,0.53125 2.046875,3.703125 h -4.09375 z m 0,0"
               id="path82" />
          </g>
        </g>
      </g>
      <g
         clip-path="url(#clipPath8500)"
         id="g60"
         transform="matrix(0.352778,0,0,0.352778,-0.187413,2.64606e-4)">
        <g
           fill="#000000"
           fill-opacity="1"
           id="g58">
          <g
             id="use56"
             transform="translate(26.834999,12.201)">
            <path
               d="m 5.515625,-1.609375 c 0.046875,-0.09375 0.046875,-0.125 0.046875,-0.125 0,-0.046875 -0.03125,-0.09375 -0.125,-0.09375 -0.015625,0 -0.046875,0 -0.078125,0.015625 0,0.015625 -0.015625,0.03125 -0.09375,0.203125 C 4.8125,-0.59375 4.453125,-0.25 3.3125,-0.25 H 2.125 c -0.203125,0 -0.21875,-0.015625 -0.21875,-0.078125 0,0 0,-0.03125 0.03125,-0.140625 L 2.40625,-2.328125 H 3.1875 c 0.546875,0 0.625,0.078125 0.625,0.3125 0,0.078125 -0.015625,0.203125 -0.046875,0.3125 C 3.75,-1.640625 3.75,-1.625 3.75,-1.609375 c 0,0 0,0.09375 0.125,0.09375 0.09375,0 0.09375,-0.03125 0.125,-0.15625 l 0.390625,-1.53125 c 0.015625,-0.078125 0.015625,-0.09375 0.015625,-0.09375 0,-0.078125 -0.0625,-0.109375 -0.125,-0.109375 -0.09375,0 -0.09375,0.046875 -0.140625,0.1875 C 4,-2.671875 3.796875,-2.578125 3.203125,-2.578125 H 2.46875 L 2.890625,-4.25 c 0.046875,-0.203125 0.0625,-0.234375 0.34375,-0.234375 H 4.375 c 0.921875,0 1.140625,0.1875 1.140625,0.8125 0,0.1875 -0.03125,0.390625 -0.03125,0.421875 0,0.0625 0.03125,0.125 0.125,0.125 0.109375,0 0.109375,-0.0625 0.125,-0.1875 l 0.125,-1.203125 C 5.875,-4.734375 5.828125,-4.734375 5.65625,-4.734375 H 1.828125 c -0.140625,0 -0.21875,0 -0.21875,0.15625 0,0.09375 0.0625,0.09375 0.21875,0.09375 0.109375,0 0.140625,0 0.265625,0.015625 C 2.234375,-4.453125 2.25,-4.4375 2.25,-4.375 c 0,0.046875 -0.015625,0.125 -0.03125,0.15625 L 1.3125,-0.578125 C 1.234375,-0.296875 1.234375,-0.25 0.6875,-0.25 c -0.125,0 -0.203125,0 -0.203125,0.15625 C 0.484375,0 0.5625,0 0.6875,0 H 4.625 c 0.171875,0 0.1875,0 0.234375,-0.125 z m 0,0"
               id="path86" />
          </g>
        </g>
      </g>
    </g>
  </g>
  <g
     inkscape:label="Layer 1"
     inkscape:groupmode="layer"
     id="layer1">
    <path
       style="fill:none;stroke:#000000;stroke-width:0.562;stroke-dasharray:none;stroke-opacity:1"
       d="M 50.349668,149.77203 H 119.54322"
       id="path37896"
       sodipodi:nodetypes="cc" />
    <path
       style="fill:none;stroke:#000000;stroke-width:0.562;stroke-dasharray:none;stroke-opacity:1"
       d="M 50.386666,87.017359 H 119.89774"
       id="path37896-7"
       sodipodi:nodetypes="cc" />
    <ellipse
       style="fill:#00ffff;stroke:#16dade;stroke-width:0.561999;stroke-dasharray:none;stroke-opacity:1"
       id="path38188"
       cx="62.295719"
       cy="149.63719"
       rx="5.3657551"
       ry="5.2124476" />
    <path
       style="fill:#00ffff;stroke:#000000;stroke-width:0.561999;stroke-dasharray:none;stroke-opacity:1"
       d="m 60.683025,149.65676 h 3.242818"
       id="path50620" />
    <ellipse
       style="fill:#00ffff;stroke:#16dade;stroke-width:0.561999;stroke-dasharray:none;stroke-opacity:1"
       id="path38188-3"
       cx="82.252953"
       cy="87.139252"
       rx="5.3657551"
       ry="5.2124476" />
    <path
       style="fill:#00ffff;stroke:#000000;stroke-width:0.561999;stroke-dasharray:none;stroke-opacity:1"
       d="m 80.640257,87.158826 h 3.242818"
       id="path50620-3" />
    <path
       style="fill:#00ffff;stroke:#000000;stroke-width:0.561999;stroke-dasharray:0.56199902, 0.56199902;stroke-opacity:1;marker-start:url(#Arrow1);stroke-dashoffset:0;marker-mid:"
       d="m 62.692089,93.291076 0.151066,47.434504"
       id="path51207" />
    <path
       style="fill:#00ffff;stroke:#000000;stroke-width:0.561999;stroke-dasharray:0.561999, 0.561999;stroke-dashoffset:0;stroke-opacity:1;marker-start:url(#Arrow1-3)"
       d="M 82.045065,143.57063 82.196131,96.136134"
       id="path51207-5" />
    <path
       style="fill:#00ffff;stroke:#000000;stroke-width:0.561999;stroke-dasharray:none;stroke-dashoffset:0;stroke-opacity:1;marker-start:url(#Arrow1);marker-end:url(#marker52016)"
       d="M 45.274851,87.184098 45.071255,150.09539"
       id="path51982" />
    <text
       xml:space="preserve"
       transform="scale(0.26458333)"
       id="text52142"
       style="font-size:32px;white-space:pre;shape-inside:url(#rect52144);display:inline;fill:#00ffff;stroke:#000000;stroke-width:2.12409;stroke-dasharray:none;stroke-dashoffset:0;stroke-opacity:1" />
    <text
       xml:space="preserve"
       transform="scale(0.26458333)"
       id="text52166"
       style="font-size:32px;white-space:pre;shape-inside:url(#rect52168);display:inline;fill:#00ffff;stroke:#000000;stroke-width:2.12409;stroke-dasharray:none;stroke-dashoffset:0;stroke-opacity:1" />
    <text
       xml:space="preserve"
       style="font-size:8.46667px;fill:#00ffff;stroke:#000000;stroke-width:0.561999;stroke-dasharray:none;stroke-dashoffset:0;stroke-opacity:1"
       x="-122.36307"
       y="44.183899"
       id="text52192"
       transform="rotate(-89.139021)"><tspan
         sodipodi:role="line"
         id="tspan52190"
         style="fill:#000000;stroke-width:0.562"
         x="-122.36307"
         y="44.183899">ΔE</tspan></text>
    <circle
       style="fill:#000000;stroke:#000000;stroke-width:0.561999;stroke-dasharray:none;stroke-dashoffset:0;stroke-opacity:1"
       id="path55292"
       cx="82.108482"
       cy="116.73044"
       r="1.6287712" />
  </g>
</svg>
