<?xml version="1.0" encoding="utf-8" standalone="no"?>
<!DOCTYPE svg PUBLIC "-//W3C//DTD SVG 1.1//EN"
  "http://www.w3.org/Graphics/SVG/1.1/DTD/svg11.dtd">
<svg xmlns:xlink="http://www.w3.org/1999/xlink" width="720pt" height="432pt" viewBox="0 0 720 432" xmlns="http://www.w3.org/2000/svg" version="1.1">
 <metadata>
  <rdf:RDF xmlns:dc="http://purl.org/dc/elements/1.1/" xmlns:cc="http://creativecommons.org/ns#" xmlns:rdf="http://www.w3.org/1999/02/22-rdf-syntax-ns#">
   <cc:Work>
    <dc:type rdf:resource="http://purl.org/dc/dcmitype/StillImage"/>
    <dc:date>2023-06-25T20:14:55.990631</dc:date>
    <dc:format>image/svg+xml</dc:format>
    <dc:creator>
     <cc:Agent>
      <dc:title>Matplotlib v3.6.3, https://matplotlib.org/</dc:title>
     </cc:Agent>
    </dc:creator>
   </cc:Work>
  </rdf:RDF>
 </metadata>
 <defs>
  <style type="text/css">*{stroke-linejoin: round; stroke-linecap: butt}</style>
 </defs>
 <g id="figure_1">
  <g id="patch_1">
   <path d="M 0 432 
L 720 432 
L 720 0 
L 0 0 
L 0 432 
z
" style="fill: none"/>
  </g>
  <g id="axes_1">
   <g id="patch_2">
    <path d="M 90 378 
L 648 378 
L 648 51.84 
L 90 51.84 
z
" style="fill: #ffffff"/>
   </g>
   <g id="matplotlib.axis_1">
    <g id="xtick_1">
     <g id="line2d_1">
      <defs>
       <path id="mf1619eda3b" d="M 0 0 
L 0 3.5 
" style="stroke: #000000; stroke-width: 0.8"/>
      </defs>
      <g>
       <use xlink:href="#mf1619eda3b" x="171.212339" y="378" style="stroke: #000000; stroke-width: 0.8"/>
      </g>
     </g>
     <g id="text_1">
      <!-- 610 -->
      <g transform="translate(154.033589 398.677188) scale(0.18 -0.18)">
       <defs>
        <path id="DejaVuSans-36" d="M 2113 2584 
Q 1688 2584 1439 2293 
Q 1191 2003 1191 1497 
Q 1191 994 1439 701 
Q 1688 409 2113 409 
Q 2538 409 2786 701 
Q 3034 994 3034 1497 
Q 3034 2003 2786 2293 
Q 2538 2584 2113 2584 
z
M 3366 4563 
L 3366 3988 
Q 3128 4100 2886 4159 
Q 2644 4219 2406 4219 
Q 1781 4219 1451 3797 
Q 1122 3375 1075 2522 
Q 1259 2794 1537 2939 
Q 1816 3084 2150 3084 
Q 2853 3084 3261 2657 
Q 3669 2231 3669 1497 
Q 3669 778 3244 343 
Q 2819 -91 2113 -91 
Q 1303 -91 875 529 
Q 447 1150 447 2328 
Q 447 3434 972 4092 
Q 1497 4750 2381 4750 
Q 2619 4750 2861 4703 
Q 3103 4656 3366 4563 
z
" transform="scale(0.015625)"/>
        <path id="DejaVuSans-31" d="M 794 531 
L 1825 531 
L 1825 4091 
L 703 3866 
L 703 4441 
L 1819 4666 
L 2450 4666 
L 2450 531 
L 3481 531 
L 3481 0 
L 794 0 
L 794 531 
z
" transform="scale(0.015625)"/>
        <path id="DejaVuSans-30" d="M 2034 4250 
Q 1547 4250 1301 3770 
Q 1056 3291 1056 2328 
Q 1056 1369 1301 889 
Q 1547 409 2034 409 
Q 2525 409 2770 889 
Q 3016 1369 3016 2328 
Q 3016 3291 2770 3770 
Q 2525 4250 2034 4250 
z
M 2034 4750 
Q 2819 4750 3233 4129 
Q 3647 3509 3647 2328 
Q 3647 1150 3233 529 
Q 2819 -91 2034 -91 
Q 1250 -91 836 529 
Q 422 1150 422 2328 
Q 422 3509 836 4129 
Q 1250 4750 2034 4750 
z
" transform="scale(0.015625)"/>
       </defs>
       <use xlink:href="#DejaVuSans-36"/>
       <use xlink:href="#DejaVuSans-31" x="63.623047"/>
       <use xlink:href="#DejaVuSans-30" x="127.246094"/>
      </g>
     </g>
    </g>
    <g id="xtick_2">
     <g id="line2d_2">
      <g>
       <use xlink:href="#mf1619eda3b" x="271.233529" y="378" style="stroke: #000000; stroke-width: 0.8"/>
      </g>
     </g>
     <g id="text_2">
      <!-- 615 -->
      <g transform="translate(254.054779 398.677188) scale(0.18 -0.18)">
       <defs>
        <path id="DejaVuSans-35" d="M 691 4666 
L 3169 4666 
L 3169 4134 
L 1269 4134 
L 1269 2991 
Q 1406 3038 1543 3061 
Q 1681 3084 1819 3084 
Q 2600 3084 3056 2656 
Q 3513 2228 3513 1497 
Q 3513 744 3044 326 
Q 2575 -91 1722 -91 
Q 1428 -91 1123 -41 
Q 819 9 494 109 
L 494 744 
Q 775 591 1075 516 
Q 1375 441 1709 441 
Q 2250 441 2565 725 
Q 2881 1009 2881 1497 
Q 2881 1984 2565 2268 
Q 2250 2553 1709 2553 
Q 1456 2553 1204 2497 
Q 953 2441 691 2322 
L 691 4666 
z
" transform="scale(0.015625)"/>
       </defs>
       <use xlink:href="#DejaVuSans-36"/>
       <use xlink:href="#DejaVuSans-31" x="63.623047"/>
       <use xlink:href="#DejaVuSans-35" x="127.246094"/>
      </g>
     </g>
    </g>
    <g id="xtick_3">
     <g id="line2d_3">
      <g>
       <use xlink:href="#mf1619eda3b" x="371.25472" y="378" style="stroke: #000000; stroke-width: 0.8"/>
      </g>
     </g>
     <g id="text_3">
      <!-- 620 -->
      <g transform="translate(354.07597 398.677188) scale(0.18 -0.18)">
       <defs>
        <path id="DejaVuSans-32" d="M 1228 531 
L 3431 531 
L 3431 0 
L 469 0 
L 469 531 
Q 828 903 1448 1529 
Q 2069 2156 2228 2338 
Q 2531 2678 2651 2914 
Q 2772 3150 2772 3378 
Q 2772 3750 2511 3984 
Q 2250 4219 1831 4219 
Q 1534 4219 1204 4116 
Q 875 4013 500 3803 
L 500 4441 
Q 881 4594 1212 4672 
Q 1544 4750 1819 4750 
Q 2544 4750 2975 4387 
Q 3406 4025 3406 3419 
Q 3406 3131 3298 2873 
Q 3191 2616 2906 2266 
Q 2828 2175 2409 1742 
Q 1991 1309 1228 531 
z
" transform="scale(0.015625)"/>
       </defs>
       <use xlink:href="#DejaVuSans-36"/>
       <use xlink:href="#DejaVuSans-32" x="63.623047"/>
       <use xlink:href="#DejaVuSans-30" x="127.246094"/>
      </g>
     </g>
    </g>
    <g id="xtick_4">
     <g id="line2d_4">
      <g>
       <use xlink:href="#mf1619eda3b" x="471.27591" y="378" style="stroke: #000000; stroke-width: 0.8"/>
      </g>
     </g>
     <g id="text_4">
      <!-- 625 -->
      <g transform="translate(454.09716 398.677188) scale(0.18 -0.18)">
       <use xlink:href="#DejaVuSans-36"/>
       <use xlink:href="#DejaVuSans-32" x="63.623047"/>
       <use xlink:href="#DejaVuSans-35" x="127.246094"/>
      </g>
     </g>
    </g>
    <g id="xtick_5">
     <g id="line2d_5">
      <g>
       <use xlink:href="#mf1619eda3b" x="571.2971" y="378" style="stroke: #000000; stroke-width: 0.8"/>
      </g>
     </g>
     <g id="text_5">
      <!-- 630 -->
      <g transform="translate(554.11835 398.677188) scale(0.18 -0.18)">
       <defs>
        <path id="DejaVuSans-33" d="M 2597 2516 
Q 3050 2419 3304 2112 
Q 3559 1806 3559 1356 
Q 3559 666 3084 287 
Q 2609 -91 1734 -91 
Q 1441 -91 1130 -33 
Q 819 25 488 141 
L 488 750 
Q 750 597 1062 519 
Q 1375 441 1716 441 
Q 2309 441 2620 675 
Q 2931 909 2931 1356 
Q 2931 1769 2642 2001 
Q 2353 2234 1838 2234 
L 1294 2234 
L 1294 2753 
L 1863 2753 
Q 2328 2753 2575 2939 
Q 2822 3125 2822 3475 
Q 2822 3834 2567 4026 
Q 2313 4219 1838 4219 
Q 1578 4219 1281 4162 
Q 984 4106 628 3988 
L 628 4550 
Q 988 4650 1302 4700 
Q 1616 4750 1894 4750 
Q 2613 4750 3031 4423 
Q 3450 4097 3450 3541 
Q 3450 3153 3228 2886 
Q 3006 2619 2597 2516 
z
" transform="scale(0.015625)"/>
       </defs>
       <use xlink:href="#DejaVuSans-36"/>
       <use xlink:href="#DejaVuSans-33" x="63.623047"/>
       <use xlink:href="#DejaVuSans-30" x="127.246094"/>
      </g>
     </g>
    </g>
    <g id="text_6">
     <!-- Wavelength (nm) $\pm 10$nm -->
     <g transform="translate(254.34 420.100625) scale(0.18 -0.18)">
      <defs>
       <path id="DejaVuSans-57" d="M 213 4666 
L 850 4666 
L 1831 722 
L 2809 4666 
L 3519 4666 
L 4500 722 
L 5478 4666 
L 6119 4666 
L 4947 0 
L 4153 0 
L 3169 4050 
L 2175 0 
L 1381 0 
L 213 4666 
z
" transform="scale(0.015625)"/>
       <path id="DejaVuSans-61" d="M 2194 1759 
Q 1497 1759 1228 1600 
Q 959 1441 959 1056 
Q 959 750 1161 570 
Q 1363 391 1709 391 
Q 2188 391 2477 730 
Q 2766 1069 2766 1631 
L 2766 1759 
L 2194 1759 
z
M 3341 1997 
L 3341 0 
L 2766 0 
L 2766 531 
Q 2569 213 2275 61 
Q 1981 -91 1556 -91 
Q 1019 -91 701 211 
Q 384 513 384 1019 
Q 384 1609 779 1909 
Q 1175 2209 1959 2209 
L 2766 2209 
L 2766 2266 
Q 2766 2663 2505 2880 
Q 2244 3097 1772 3097 
Q 1472 3097 1187 3025 
Q 903 2953 641 2809 
L 641 3341 
Q 956 3463 1253 3523 
Q 1550 3584 1831 3584 
Q 2591 3584 2966 3190 
Q 3341 2797 3341 1997 
z
" transform="scale(0.015625)"/>
       <path id="DejaVuSans-76" d="M 191 3500 
L 800 3500 
L 1894 563 
L 2988 3500 
L 3597 3500 
L 2284 0 
L 1503 0 
L 191 3500 
z
" transform="scale(0.015625)"/>
       <path id="DejaVuSans-65" d="M 3597 1894 
L 3597 1613 
L 953 1613 
Q 991 1019 1311 708 
Q 1631 397 2203 397 
Q 2534 397 2845 478 
Q 3156 559 3463 722 
L 3463 178 
Q 3153 47 2828 -22 
Q 2503 -91 2169 -91 
Q 1331 -91 842 396 
Q 353 884 353 1716 
Q 353 2575 817 3079 
Q 1281 3584 2069 3584 
Q 2775 3584 3186 3129 
Q 3597 2675 3597 1894 
z
M 3022 2063 
Q 3016 2534 2758 2815 
Q 2500 3097 2075 3097 
Q 1594 3097 1305 2825 
Q 1016 2553 972 2059 
L 3022 2063 
z
" transform="scale(0.015625)"/>
       <path id="DejaVuSans-6c" d="M 603 4863 
L 1178 4863 
L 1178 0 
L 603 0 
L 603 4863 
z
" transform="scale(0.015625)"/>
       <path id="DejaVuSans-6e" d="M 3513 2113 
L 3513 0 
L 2938 0 
L 2938 2094 
Q 2938 2591 2744 2837 
Q 2550 3084 2163 3084 
Q 1697 3084 1428 2787 
Q 1159 2491 1159 1978 
L 1159 0 
L 581 0 
L 581 3500 
L 1159 3500 
L 1159 2956 
Q 1366 3272 1645 3428 
Q 1925 3584 2291 3584 
Q 2894 3584 3203 3211 
Q 3513 2838 3513 2113 
z
" transform="scale(0.015625)"/>
       <path id="DejaVuSans-67" d="M 2906 1791 
Q 2906 2416 2648 2759 
Q 2391 3103 1925 3103 
Q 1463 3103 1205 2759 
Q 947 2416 947 1791 
Q 947 1169 1205 825 
Q 1463 481 1925 481 
Q 2391 481 2648 825 
Q 2906 1169 2906 1791 
z
M 3481 434 
Q 3481 -459 3084 -895 
Q 2688 -1331 1869 -1331 
Q 1566 -1331 1297 -1286 
Q 1028 -1241 775 -1147 
L 775 -588 
Q 1028 -725 1275 -790 
Q 1522 -856 1778 -856 
Q 2344 -856 2625 -561 
Q 2906 -266 2906 331 
L 2906 616 
Q 2728 306 2450 153 
Q 2172 0 1784 0 
Q 1141 0 747 490 
Q 353 981 353 1791 
Q 353 2603 747 3093 
Q 1141 3584 1784 3584 
Q 2172 3584 2450 3431 
Q 2728 3278 2906 2969 
L 2906 3500 
L 3481 3500 
L 3481 434 
z
" transform="scale(0.015625)"/>
       <path id="DejaVuSans-74" d="M 1172 4494 
L 1172 3500 
L 2356 3500 
L 2356 3053 
L 1172 3053 
L 1172 1153 
Q 1172 725 1289 603 
Q 1406 481 1766 481 
L 2356 481 
L 2356 0 
L 1766 0 
Q 1100 0 847 248 
Q 594 497 594 1153 
L 594 3053 
L 172 3053 
L 172 3500 
L 594 3500 
L 594 4494 
L 1172 4494 
z
" transform="scale(0.015625)"/>
       <path id="DejaVuSans-68" d="M 3513 2113 
L 3513 0 
L 2938 0 
L 2938 2094 
Q 2938 2591 2744 2837 
Q 2550 3084 2163 3084 
Q 1697 3084 1428 2787 
Q 1159 2491 1159 1978 
L 1159 0 
L 581 0 
L 581 4863 
L 1159 4863 
L 1159 2956 
Q 1366 3272 1645 3428 
Q 1925 3584 2291 3584 
Q 2894 3584 3203 3211 
Q 3513 2838 3513 2113 
z
" transform="scale(0.015625)"/>
       <path id="DejaVuSans-20" transform="scale(0.015625)"/>
       <path id="DejaVuSans-28" d="M 1984 4856 
Q 1566 4138 1362 3434 
Q 1159 2731 1159 2009 
Q 1159 1288 1364 580 
Q 1569 -128 1984 -844 
L 1484 -844 
Q 1016 -109 783 600 
Q 550 1309 550 2009 
Q 550 2706 781 3412 
Q 1013 4119 1484 4856 
L 1984 4856 
z
" transform="scale(0.015625)"/>
       <path id="DejaVuSans-6d" d="M 3328 2828 
Q 3544 3216 3844 3400 
Q 4144 3584 4550 3584 
Q 5097 3584 5394 3201 
Q 5691 2819 5691 2113 
L 5691 0 
L 5113 0 
L 5113 2094 
Q 5113 2597 4934 2840 
Q 4756 3084 4391 3084 
Q 3944 3084 3684 2787 
Q 3425 2491 3425 1978 
L 3425 0 
L 2847 0 
L 2847 2094 
Q 2847 2600 2669 2842 
Q 2491 3084 2119 3084 
Q 1678 3084 1418 2786 
Q 1159 2488 1159 1978 
L 1159 0 
L 581 0 
L 581 3500 
L 1159 3500 
L 1159 2956 
Q 1356 3278 1631 3431 
Q 1906 3584 2284 3584 
Q 2666 3584 2933 3390 
Q 3200 3197 3328 2828 
z
" transform="scale(0.015625)"/>
       <path id="DejaVuSans-29" d="M 513 4856 
L 1013 4856 
Q 1481 4119 1714 3412 
Q 1947 2706 1947 2009 
Q 1947 1309 1714 600 
Q 1481 -109 1013 -844 
L 513 -844 
Q 928 -128 1133 580 
Q 1338 1288 1338 2009 
Q 1338 2731 1133 3434 
Q 928 4138 513 4856 
z
" transform="scale(0.015625)"/>
       <path id="DejaVuSans-b1" d="M 2944 4013 
L 2944 2803 
L 4684 2803 
L 4684 2272 
L 2944 2272 
L 2944 1063 
L 2419 1063 
L 2419 2272 
L 678 2272 
L 678 2803 
L 2419 2803 
L 2419 4013 
L 2944 4013 
z
M 678 531 
L 4684 531 
L 4684 0 
L 678 0 
L 678 531 
z
" transform="scale(0.015625)"/>
      </defs>
      <use xlink:href="#DejaVuSans-57" transform="translate(0 0.015625)"/>
      <use xlink:href="#DejaVuSans-61" transform="translate(98.876953 0.015625)"/>
      <use xlink:href="#DejaVuSans-76" transform="translate(160.15625 0.015625)"/>
      <use xlink:href="#DejaVuSans-65" transform="translate(219.335938 0.015625)"/>
      <use xlink:href="#DejaVuSans-6c" transform="translate(280.859375 0.015625)"/>
      <use xlink:href="#DejaVuSans-65" transform="translate(308.642578 0.015625)"/>
      <use xlink:href="#DejaVuSans-6e" transform="translate(370.166016 0.015625)"/>
      <use xlink:href="#DejaVuSans-67" transform="translate(433.544922 0.015625)"/>
      <use xlink:href="#DejaVuSans-74" transform="translate(497.021484 0.015625)"/>
      <use xlink:href="#DejaVuSans-68" transform="translate(536.230469 0.015625)"/>
      <use xlink:href="#DejaVuSans-20" transform="translate(599.609375 0.015625)"/>
      <use xlink:href="#DejaVuSans-28" transform="translate(631.396484 0.015625)"/>
      <use xlink:href="#DejaVuSans-6e" transform="translate(670.410156 0.015625)"/>
      <use xlink:href="#DejaVuSans-6d" transform="translate(733.789062 0.015625)"/>
      <use xlink:href="#DejaVuSans-29" transform="translate(831.201172 0.015625)"/>
      <use xlink:href="#DejaVuSans-20" transform="translate(870.214844 0.015625)"/>
      <use xlink:href="#DejaVuSans-b1" transform="translate(902.001953 0.015625)"/>
      <use xlink:href="#DejaVuSans-31" transform="translate(985.791016 0.015625)"/>
      <use xlink:href="#DejaVuSans-30" transform="translate(1049.414062 0.015625)"/>
      <use xlink:href="#DejaVuSans-6e" transform="translate(1113.037109 0.015625)"/>
      <use xlink:href="#DejaVuSans-6d" transform="translate(1176.416016 0.015625)"/>
     </g>
    </g>
   </g>
   <g id="matplotlib.axis_2">
    <g id="ytick_1">
     <g id="line2d_6">
      <defs>
       <path id="mc018b8861d" d="M 0 0 
L -3.5 0 
" style="stroke: #000000; stroke-width: 0.8"/>
      </defs>
      <g>
       <use xlink:href="#mc018b8861d" x="90" y="359.279583" style="stroke: #000000; stroke-width: 0.8"/>
      </g>
     </g>
     <g id="text_7">
      <!-- 0.0 -->
      <g transform="translate(54.374375 366.118177) scale(0.18 -0.18)">
       <defs>
        <path id="DejaVuSans-2e" d="M 684 794 
L 1344 794 
L 1344 0 
L 684 0 
L 684 794 
z
" transform="scale(0.015625)"/>
       </defs>
       <use xlink:href="#DejaVuSans-30"/>
       <use xlink:href="#DejaVuSans-2e" x="63.623047"/>
       <use xlink:href="#DejaVuSans-30" x="95.410156"/>
      </g>
     </g>
    </g>
    <g id="ytick_2">
     <g id="line2d_7">
      <g>
       <use xlink:href="#mc018b8861d" x="90" y="300.756757" style="stroke: #000000; stroke-width: 0.8"/>
      </g>
     </g>
     <g id="text_8">
      <!-- 0.2 -->
      <g transform="translate(54.374375 307.595351) scale(0.18 -0.18)">
       <use xlink:href="#DejaVuSans-30"/>
       <use xlink:href="#DejaVuSans-2e" x="63.623047"/>
       <use xlink:href="#DejaVuSans-32" x="95.410156"/>
      </g>
     </g>
    </g>
    <g id="ytick_3">
     <g id="line2d_8">
      <g>
       <use xlink:href="#mc018b8861d" x="90" y="242.233932" style="stroke: #000000; stroke-width: 0.8"/>
      </g>
     </g>
     <g id="text_9">
      <!-- 0.4 -->
      <g transform="translate(54.374375 249.072525) scale(0.18 -0.18)">
       <defs>
        <path id="DejaVuSans-34" d="M 2419 4116 
L 825 1625 
L 2419 1625 
L 2419 4116 
z
M 2253 4666 
L 3047 4666 
L 3047 1625 
L 3713 1625 
L 3713 1100 
L 3047 1100 
L 3047 0 
L 2419 0 
L 2419 1100 
L 313 1100 
L 313 1709 
L 2253 4666 
z
" transform="scale(0.015625)"/>
       </defs>
       <use xlink:href="#DejaVuSans-30"/>
       <use xlink:href="#DejaVuSans-2e" x="63.623047"/>
       <use xlink:href="#DejaVuSans-34" x="95.410156"/>
      </g>
     </g>
    </g>
    <g id="ytick_4">
     <g id="line2d_9">
      <g>
       <use xlink:href="#mc018b8861d" x="90" y="183.711106" style="stroke: #000000; stroke-width: 0.8"/>
      </g>
     </g>
     <g id="text_10">
      <!-- 0.6 -->
      <g transform="translate(54.374375 190.5497) scale(0.18 -0.18)">
       <use xlink:href="#DejaVuSans-30"/>
       <use xlink:href="#DejaVuSans-2e" x="63.623047"/>
       <use xlink:href="#DejaVuSans-36" x="95.410156"/>
      </g>
     </g>
    </g>
    <g id="ytick_5">
     <g id="line2d_10">
      <g>
       <use xlink:href="#mc018b8861d" x="90" y="125.18828" style="stroke: #000000; stroke-width: 0.8"/>
      </g>
     </g>
     <g id="text_11">
      <!-- 0.8 -->
      <g transform="translate(54.374375 132.026874) scale(0.18 -0.18)">
       <defs>
        <path id="DejaVuSans-38" d="M 2034 2216 
Q 1584 2216 1326 1975 
Q 1069 1734 1069 1313 
Q 1069 891 1326 650 
Q 1584 409 2034 409 
Q 2484 409 2743 651 
Q 3003 894 3003 1313 
Q 3003 1734 2745 1975 
Q 2488 2216 2034 2216 
z
M 1403 2484 
Q 997 2584 770 2862 
Q 544 3141 544 3541 
Q 544 4100 942 4425 
Q 1341 4750 2034 4750 
Q 2731 4750 3128 4425 
Q 3525 4100 3525 3541 
Q 3525 3141 3298 2862 
Q 3072 2584 2669 2484 
Q 3125 2378 3379 2068 
Q 3634 1759 3634 1313 
Q 3634 634 3220 271 
Q 2806 -91 2034 -91 
Q 1263 -91 848 271 
Q 434 634 434 1313 
Q 434 1759 690 2068 
Q 947 2378 1403 2484 
z
M 1172 3481 
Q 1172 3119 1398 2916 
Q 1625 2713 2034 2713 
Q 2441 2713 2670 2916 
Q 2900 3119 2900 3481 
Q 2900 3844 2670 4047 
Q 2441 4250 2034 4250 
Q 1625 4250 1398 4047 
Q 1172 3844 1172 3481 
z
" transform="scale(0.015625)"/>
       </defs>
       <use xlink:href="#DejaVuSans-30"/>
       <use xlink:href="#DejaVuSans-2e" x="63.623047"/>
       <use xlink:href="#DejaVuSans-38" x="95.410156"/>
      </g>
     </g>
    </g>
    <g id="ytick_6">
     <g id="line2d_11">
      <g>
       <use xlink:href="#mc018b8861d" x="90" y="66.665455" style="stroke: #000000; stroke-width: 0.8"/>
      </g>
     </g>
     <g id="text_12">
      <!-- 1.0 -->
      <g transform="translate(54.374375 73.504048) scale(0.18 -0.18)">
       <use xlink:href="#DejaVuSans-31"/>
       <use xlink:href="#DejaVuSans-2e" x="63.623047"/>
       <use xlink:href="#DejaVuSans-30" x="95.410156"/>
      </g>
     </g>
    </g>
    <g id="text_13">
     <!-- Relative intensity -->
     <g transform="translate(46.630938 293.093437) rotate(-90) scale(0.18 -0.18)">
      <defs>
       <path id="DejaVuSans-52" d="M 2841 2188 
Q 3044 2119 3236 1894 
Q 3428 1669 3622 1275 
L 4263 0 
L 3584 0 
L 2988 1197 
Q 2756 1666 2539 1819 
Q 2322 1972 1947 1972 
L 1259 1972 
L 1259 0 
L 628 0 
L 628 4666 
L 2053 4666 
Q 2853 4666 3247 4331 
Q 3641 3997 3641 3322 
Q 3641 2881 3436 2590 
Q 3231 2300 2841 2188 
z
M 1259 4147 
L 1259 2491 
L 2053 2491 
Q 2509 2491 2742 2702 
Q 2975 2913 2975 3322 
Q 2975 3731 2742 3939 
Q 2509 4147 2053 4147 
L 1259 4147 
z
" transform="scale(0.015625)"/>
       <path id="DejaVuSans-69" d="M 603 3500 
L 1178 3500 
L 1178 0 
L 603 0 
L 603 3500 
z
M 603 4863 
L 1178 4863 
L 1178 4134 
L 603 4134 
L 603 4863 
z
" transform="scale(0.015625)"/>
       <path id="DejaVuSans-73" d="M 2834 3397 
L 2834 2853 
Q 2591 2978 2328 3040 
Q 2066 3103 1784 3103 
Q 1356 3103 1142 2972 
Q 928 2841 928 2578 
Q 928 2378 1081 2264 
Q 1234 2150 1697 2047 
L 1894 2003 
Q 2506 1872 2764 1633 
Q 3022 1394 3022 966 
Q 3022 478 2636 193 
Q 2250 -91 1575 -91 
Q 1294 -91 989 -36 
Q 684 19 347 128 
L 347 722 
Q 666 556 975 473 
Q 1284 391 1588 391 
Q 1994 391 2212 530 
Q 2431 669 2431 922 
Q 2431 1156 2273 1281 
Q 2116 1406 1581 1522 
L 1381 1569 
Q 847 1681 609 1914 
Q 372 2147 372 2553 
Q 372 3047 722 3315 
Q 1072 3584 1716 3584 
Q 2034 3584 2315 3537 
Q 2597 3491 2834 3397 
z
" transform="scale(0.015625)"/>
       <path id="DejaVuSans-79" d="M 2059 -325 
Q 1816 -950 1584 -1140 
Q 1353 -1331 966 -1331 
L 506 -1331 
L 506 -850 
L 844 -850 
Q 1081 -850 1212 -737 
Q 1344 -625 1503 -206 
L 1606 56 
L 191 3500 
L 800 3500 
L 1894 763 
L 2988 3500 
L 3597 3500 
L 2059 -325 
z
" transform="scale(0.015625)"/>
      </defs>
      <use xlink:href="#DejaVuSans-52"/>
      <use xlink:href="#DejaVuSans-65" x="64.982422"/>
      <use xlink:href="#DejaVuSans-6c" x="126.505859"/>
      <use xlink:href="#DejaVuSans-61" x="154.289062"/>
      <use xlink:href="#DejaVuSans-74" x="215.568359"/>
      <use xlink:href="#DejaVuSans-69" x="254.777344"/>
      <use xlink:href="#DejaVuSans-76" x="282.560547"/>
      <use xlink:href="#DejaVuSans-65" x="341.740234"/>
      <use xlink:href="#DejaVuSans-20" x="403.263672"/>
      <use xlink:href="#DejaVuSans-69" x="435.050781"/>
      <use xlink:href="#DejaVuSans-6e" x="462.833984"/>
      <use xlink:href="#DejaVuSans-74" x="526.212891"/>
      <use xlink:href="#DejaVuSans-65" x="565.421875"/>
      <use xlink:href="#DejaVuSans-6e" x="626.945312"/>
      <use xlink:href="#DejaVuSans-73" x="690.324219"/>
      <use xlink:href="#DejaVuSans-69" x="742.423828"/>
      <use xlink:href="#DejaVuSans-74" x="770.207031"/>
      <use xlink:href="#DejaVuSans-79" x="809.416016"/>
     </g>
    </g>
   </g>
   <g id="line2d_12">
    <path d="M 115.363636 358.081473 
L 115.93401 356.313914 
L 116.504367 355.594864 
L 117.074707 359.100049 
L 117.64503 359.040139 
L 118.215338 361.61667 
L 118.785628 358.441009 
L 119.355902 357.54218 
L 119.92616 360.777794 
L 120.496401 363.114622 
L 121.066625 355.65468 
L 121.636833 354.606135 
L 122.207024 358.351166 
L 122.777199 357.392464 
L 123.347358 357.482335 
L 123.9175 357.69199 
L 124.487625 359.189956 
L 125.627827 359.100056 
L 126.197903 362.18591 
L 127.338007 356.31385 
L 127.908034 357.332533 
L 128.478044 359.040197 
L 129.048038 359.938918 
L 129.618016 361.137308 
L 130.757923 357.662049 
L 131.327852 358.980223 
L 131.897765 358.590747 
L 132.467661 359.040197 
L 133.607404 357.182731 
L 134.177252 357.362524 
L 135.316898 357.931728 
L 136.456478 357.422433 
L 137.595994 358.950275 
L 138.165728 356.134143 
L 138.735445 357.991659 
L 139.305147 358.800516 
L 139.874832 357.482321 
L 140.444501 358.051547 
L 141.014153 355.475017 
L 141.58379 355.115459 
L 142.15341 355.834531 
L 142.723015 357.392392 
L 143.292603 358.201321 
L 143.862175 358.710623 
L 144.431731 359.938946 
L 145.001271 357.542195 
L 145.570794 358.141411 
L 146.140302 357.242662 
L 146.709794 357.961611 
L 147.279269 357.212707 
L 147.848729 358.05154 
L 148.418172 356.583528 
L 148.9876 356.493657 
L 149.557011 357.092795 
L 150.695786 356.433589 
L 151.26515 357.452338 
L 151.834497 359.609408 
L 152.403829 356.164054 
L 152.973144 355.714669 
L 153.542444 357.751935 
L 154.111727 356.253868 
L 154.680995 359.159951 
L 155.250247 357.931671 
L 155.819483 358.890402 
L 156.388703 358.500882 
L 156.957907 362.845029 
L 157.527095 356.044171 
L 158.096268 354.576094 
L 158.665424 357.692054 
L 159.234565 357.18268 
L 159.80369 360.268477 
L 160.372799 357.362437 
L 160.941892 355.71464 
L 161.51097 355.265247 
L 162.080031 356.25389 
L 162.649077 351.849834 
L 163.218107 351.729914 
L 163.787122 358.201285 
L 164.35612 355.624747 
L 164.925103 356.194009 
L 165.49407 355.145443 
L 166.063022 356.193995 
L 167.200877 357.152747 
L 167.769781 356.883047 
L 168.907543 353.407673 
L 169.4764 353.108076 
L 170.045242 356.613433 
L 171.182878 357.482307 
L 171.751672 357.392457 
L 172.320451 357.781875 
L 172.889215 358.740628 
L 174.026695 355.534847 
L 174.595412 355.834488 
L 175.164113 357.632095 
L 176.301468 356.134107 
L 176.870123 356.613533 
L 177.438762 356.194059 
L 178.007385 357.003017 
L 178.575993 356.733316 
L 179.144586 357.871783 
L 179.713162 356.703362 
L 180.281724 356.913095 
L 180.85027 357.781897 
L 181.4188 357.602126 
L 181.987316 358.171388 
L 182.555815 357.302571 
L 183.1243 356.164112 
L 183.692768 355.714705 
L 184.261222 357.152754 
L 184.82966 357.032943 
L 185.398082 357.452366 
L 185.96649 355.71464 
L 186.534882 354.576181 
L 187.103258 357.841792 
L 187.671619 355.744631 
L 188.239965 359.998856 
L 188.808296 357.332504 
L 189.376611 356.343826 
L 189.944911 356.134114 
L 190.513195 357.871732 
L 191.649719 358.111442 
L 192.217958 358.590797 
L 192.786181 356.763235 
L 193.354389 363.174545 
L 193.922583 358.051482 
L 194.49076 354.216609 
L 195.058923 354.306509 
L 195.62707 355.684721 
L 196.195203 356.523626 
L 196.76332 356.433755 
L 197.331421 356.583514 
L 197.899508 355.984247 
L 198.46758 356.463659 
L 199.035636 353.048209 
L 199.603677 350.980924 
L 201.30771 356.853193 
L 201.875691 354.845881 
L 202.443657 356.673421 
L 203.011607 356.523619 
L 203.579543 356.883126 
L 204.147463 357.002923 
L 204.715369 360.598065 
L 205.283259 354.935681 
L 205.851135 354.27654 
L 206.418995 355.445019 
L 206.986841 354.396445 
L 207.554671 355.834538 
L 208.122486 354.456347 
L 208.690287 353.527535 
L 209.258072 353.527586 
L 209.825843 353.767238 
L 210.393598 356.972925 
L 210.961339 357.032864 
L 211.529065 355.175362 
L 212.096775 353.857145 
L 212.664471 354.216595 
L 213.232152 353.677345 
L 213.799818 353.857124 
L 214.367469 353.917069 
L 214.935106 355.684728 
L 215.502727 356.463645 
L 216.070334 355.1455 
L 216.637926 355.744631 
L 217.205503 355.475031 
L 218.340612 355.44504 
L 218.908145 355.445019 
L 219.475663 353.707336 
L 220.043166 353.857138 
L 220.610654 355.085497 
L 221.178127 354.456383 
L 221.745586 355.594814 
L 222.31303 355.445012 
L 222.880459 359.549441 
L 223.447874 356.164018 
L 224.015274 356.13415 
L 224.582659 355.834509 
L 225.150029 355.115459 
L 225.717385 354.845838 
L 226.284726 353.257907 
L 226.852053 352.179357 
L 227.419364 353.347865 
L 227.986661 353.108069 
L 228.553944 354.516286 
L 229.121212 355.445019 
L 230.255704 354.935745 
L 230.822928 353.946945 
L 231.390138 354.15675 
L 232.524513 353.467633 
L 233.091679 354.366397 
L 233.65883 354.216674 
L 234.225967 355.235285 
L 234.793089 355.115416 
L 235.360197 353.138088 
L 235.927291 351.699974 
L 236.494369 351.160688 
L 237.061434 351.490269 
L 237.628484 352.329145 
L 238.195519 354.036866 
L 238.76254 352.209269 
L 239.329547 351.2805 
L 239.896539 352.478919 
L 240.463516 352.209369 
L 241.03048 355.744544 
L 241.597428 354.366433 
L 242.164363 354.63604 
L 242.731283 351.400333 
L 243.298189 352.628728 
L 243.86508 353.227923 
L 244.431957 350.771161 
L 244.99882 348.973713 
L 245.565668 348.823838 
L 246.132502 350.351824 
L 246.699322 350.951034 
L 247.832919 351.580061 
L 248.399696 351.759869 
L 248.966458 351.520188 
L 249.533207 350.801131 
L 250.099941 351.160688 
L 250.666661 350.621366 
L 251.233366 350.471607 
L 251.800058 348.044944 
L 252.366735 348.224715 
L 252.933398 350.142062 
L 253.500047 350.231941 
L 254.066682 349.303258 
L 254.633302 349.003631 
L 255.199908 350.621417 
L 255.766501 348.704041 
L 256.333079 348.344577 
L 256.899643 347.206118 
L 258.032728 350.142098 
L 258.59925 347.955108 
L 259.165757 346.487133 
L 259.732251 347.146173 
L 260.29873 348.704091 
L 261.431647 344.270109 
L 261.998084 344.959161 
L 262.564507 345.40859 
L 263.130916 343.880633 
L 263.697312 343.760814 
L 264.83006 345.738135 
L 265.962752 344.899317 
L 266.529078 349.003682 
L 267.095389 342.682315 
L 267.661686 340.944703 
L 268.22797 343.8507 
L 268.79424 342.532448 
L 269.360495 343.521148 
L 269.926737 340.375477 
L 270.492965 341.483989 
L 271.059179 339.26698 
L 271.625379 339.386885 
L 272.191565 339.326947 
L 272.757738 337.649209 
L 273.323896 337.169919 
L 273.890041 335.552127 
L 274.456172 335.342401 
L 275.588392 333.365166 
L 276.154482 336.360998 
L 276.720558 337.289724 
L 277.28662 338.817666 
L 277.852668 336.061429 
L 278.418702 334.084144 
L 278.984723 333.155497 
L 279.55073 333.514933 
L 280.116723 329.949652 
L 280.682703 327.133304 
L 281.248669 326.084737 
L 281.814621 323.597999 
L 282.38056 318.325112 
L 282.946485 317.126772 
L 283.512396 316.497529 
L 284.078293 314.640027 
L 285.775904 313.471649 
L 286.341747 316.497558 
L 286.907577 315.65866 
L 287.473393 323.208566 
L 288.039195 323.717947 
L 288.604984 324.526818 
L 289.170759 329.919711 
L 289.73652 333.365101 
L 290.302269 328.211904 
L 290.868003 327.822399 
L 291.433724 330.548847 
L 291.999432 329.739947 
L 292.565126 329.620063 
L 293.130806 328.541514 
L 293.696473 327.852368 
L 294.262127 324.436983 
L 294.827767 323.747909 
L 295.393394 319.763205 
L 295.959007 317.695991 
L 296.524607 320.901715 
L 297.090193 319.193993 
L 297.655766 314.879751 
L 298.221326 313.651406 
L 298.786872 313.741313 
L 299.352405 311.494357 
L 299.917924 312.033664 
L 300.48343 308.019084 
L 301.048923 306.221556 
L 301.614403 306.880632 
L 302.179869 305.981839 
L 302.745321 301.78748 
L 303.310761 303.495216 
L 304.4416 308.108948 
L 305.007 309.307345 
L 305.572386 311.494428 
L 306.137759 309.756752 
L 307.268465 307.240139 
L 307.833799 307.359994 
L 308.964426 313.261966 
L 309.52972 316.497529 
L 310.095 316.467574 
L 310.660267 320.721972 
L 311.225522 321.65069 
L 311.790763 325.126014 
L 312.921205 319.643408 
L 313.486407 311.164869 
L 314.051595 308.168922 
L 314.616771 301.847476 
L 315.181933 298.461981 
L 315.747082 296.394753 
L 316.877341 290.942209 
L 318.007548 292.709818 
L 318.572632 297.68305 
L 319.137703 299.031185 
L 319.702761 297.443283 
L 320.267806 294.297577 
L 320.832838 290.22321 
L 321.962862 271.768065 
L 322.527855 258.525942 
L 323.092835 252.354284 
L 323.657802 239.381911 
L 324.222756 237.015136 
L 324.787697 230.424003 
L 325.352626 232.161643 
L 325.917541 239.951216 
L 326.482443 242.797411 
L 327.047333 246.542363 
L 327.61221 258.705728 
L 328.177073 263.079772 
L 328.741924 269.041862 
L 329.306762 266.91476 
L 329.871588 268.86209 
L 330.4364 267.993288 
L 331.001199 268.951904 
L 331.565986 267.364045 
L 332.13076 267.963283 
L 332.695521 266.465382 
L 333.26027 267.154384 
L 333.825005 267.034565 
L 334.389728 263.828906 
L 334.954438 255.589948 
L 336.08382 245.85321 
L 336.648492 236.985138 
L 337.213152 233.659603 
L 337.777798 231.862103 
L 338.342432 232.940603 
L 338.907053 242.168225 
L 339.471662 246.781972 
L 340.036257 260.053892 
L 340.600841 265.536483 
L 341.165411 273.086311 
L 341.729969 275.9024 
L 342.294514 278.119452 
L 342.859047 271.947844 
L 343.423567 268.562392 
L 344.552569 257.627214 
L 345.117052 251.36572 
L 345.681522 241.688784 
L 346.245979 236.835263 
L 346.810423 228.296765 
L 347.374856 226.948594 
L 347.939275 221.016617 
L 348.503682 219.698436 
L 349.068077 217.781003 
L 349.632459 219.159129 
L 350.196829 222.664421 
L 350.761186 231.802057 
L 351.325531 235.337312 
L 351.889863 247.650817 
L 352.454183 247.590951 
L 353.582785 240.041188 
L 354.147068 235.157562 
L 354.711338 219.488739 
L 355.275596 208.643295 
L 355.839841 195.611013 
L 356.404074 191.536466 
L 356.968295 193.543828 
L 357.532503 191.506562 
L 358.096699 194.113126 
L 358.660883 193.004629 
L 359.225054 194.502602 
L 359.789213 194.143167 
L 360.35336 195.970635 
L 360.917494 194.1731 
L 361.481617 195.491309 
L 362.045726 198.637059 
L 362.609824 198.517211 
L 363.173909 203.43044 
L 363.737983 209.512241 
L 364.302044 218.320275 
L 364.866092 235.60717 
L 365.430129 243.30685 
L 365.994153 255.829657 
L 366.558165 255.110586 
L 367.122165 249.747928 
L 367.686153 239.861287 
L 368.250128 221.106567 
L 368.814092 213.496744 
L 369.378043 209.332369 
L 369.941982 199.98523 
L 370.505909 198.876768 
L 371.069824 199.086466 
L 371.633727 199.865361 
L 372.197618 209.781855 
L 372.761496 211.159916 
L 373.325363 214.904926 
L 373.889217 203.160934 
L 374.45306 196.629819 
L 375.01689 186.053918 
L 375.580709 182.518685 
L 376.144515 147.855562 
L 376.70831 140.036099 
L 377.272092 122.449937 
L 378.399621 104.653933 
L 378.963367 116.248309 
L 379.527102 122.809472 
L 380.090824 158.011838 
L 380.654535 163.853951 
L 381.218233 171.613296 
L 381.78192 176.646509 
L 382.345595 189.559095 
L 383.472909 209.69189 
L 384.036548 231.83212 
L 384.600175 239.711528 
L 385.163791 220.627184 
L 385.727394 206.815885 
L 386.290986 157.982034 
L 386.854566 129.28075 
L 387.418134 87.876678 
L 387.98169 74.30506 
L 388.545235 66.665455 
L 389.108767 92.280583 
L 389.672288 100.219836 
L 390.235797 146.147783 
L 390.799295 145.488801 
L 391.36278 154.147211 
L 391.926254 150.611979 
L 392.489716 148.874195 
L 393.053167 149.024084 
L 393.616605 149.563297 
L 394.180032 171.553444 
L 394.743448 178.234397 
L 395.306851 212.657976 
L 395.870243 212.957574 
L 396.433624 215.324364 
L 396.996992 197.318684 
L 397.560349 183.20773 
L 398.123695 146.207657 
L 398.687028 134.673226 
L 399.250351 148.334909 
L 399.813661 152.679042 
L 400.37696 177.125972 
L 400.940247 184.556016 
L 401.503523 198.007938 
L 402.066788 191.386736 
L 402.63004 187.611736 
L 403.193281 173.890286 
L 403.756511 171.733237 
L 404.319729 165.351896 
L 404.882936 173.650685 
L 405.446131 204.89843 
L 407.135647 254.331605 
L 407.698796 261.402013 
L 408.261934 265.716248 
L 408.82506 267.63363 
L 409.388175 280.39637 
L 409.951279 279.976889 
L 410.514371 280.965561 
L 411.64052 276.41181 
L 412.766625 282.673318 
L 413.32966 290.91229 
L 413.892684 288.875074 
L 414.455696 287.466979 
L 415.018697 274.254717 
L 415.581687 254.271753 
L 416.144665 251.395668 
L 416.707633 251.81512 
L 417.270588 274.973616 
L 417.833533 280.815737 
L 418.396466 279.257854 
L 418.959388 273.505612 
L 419.522299 261.70156 
L 420.085199 263.678967 
L 421.210964 268.622309 
L 421.77383 269.730857 
L 422.336685 289.294462 
L 422.899528 292.649938 
L 423.462361 306.700882 
L 424.025182 311.674171 
L 424.587992 325.305749 
L 425.713578 326.114649 
L 426.276355 330.458983 
L 426.83912 333.844492 
L 427.964618 333.035592 
L 428.52735 339.057333 
L 429.090071 338.488085 
L 429.652781 339.207114 
L 430.21548 338.697776 
L 430.778168 339.177145 
L 431.340845 342.921909 
L 431.90351 343.760814 
L 432.466165 344.360024 
L 433.028809 343.371317 
L 434.154063 342.143 
L 434.716674 344.689569 
L 435.279274 343.43124 
L 435.841863 343.37136 
L 436.404441 345.768068 
L 436.967008 345.228811 
L 437.529564 346.756754 
L 438.092109 347.146209 
L 438.654643 348.793963 
L 439.217166 348.374561 
L 439.779679 349.572973 
L 440.34218 348.344556 
L 440.904671 348.704063 
L 441.467151 346.636899 
L 442.02962 345.168895 
L 442.592078 348.404523 
L 443.154525 348.524291 
L 443.716961 348.524349 
L 444.841802 347.266092 
L 445.404206 347.625556 
L 445.966599 348.494408 
L 446.528982 351.130762 
L 447.091353 349.003711 
L 447.653714 345.498497 
L 448.216065 347.116203 
L 448.778404 351.400376 
L 449.340733 350.681348 
L 449.903051 351.010922 
L 450.465358 352.269171 
L 451.027655 350.621553 
L 452.152216 349.093532 
L 452.714481 353.407702 
L 453.276735 350.831164 
L 453.838978 350.35181 
L 454.401211 350.831179 
L 454.963433 353.168021 
L 455.525644 353.377726 
L 456.087845 351.969645 
L 456.650036 352.658654 
L 457.212215 351.34051 
L 457.774384 353.767238 
L 458.336543 352.059502 
L 458.898691 355.055535 
L 459.460828 351.640028 
L 460.022955 352.418966 
L 460.585072 353.887035 
L 461.147178 351.909678 
L 461.709273 352.568768 
L 462.833432 351.400369 
L 463.395496 350.711295 
L 463.95755 351.759847 
L 464.519593 352.538821 
L 465.081626 352.149345 
L 465.643648 354.486273 
L 466.767661 352.059459 
L 467.329652 352.389055 
L 467.891632 354.036895 
L 468.453602 354.636061 
L 469.015562 356.613447 
L 469.577512 354.815833 
L 470.139451 352.628786 
L 470.701379 353.946988 
L 471.825206 354.785914 
L 472.387104 353.887114 
L 472.948991 353.976942 
L 473.510868 353.617464 
L 474.072735 354.815833 
L 474.634592 356.433712 
L 475.758274 355.175326 
L 476.3201 353.947017 
L 476.881915 355.624761 
L 477.443721 354.905776 
L 478.005516 353.887078 
L 478.567301 355.864522 
L 479.129076 355.44504 
L 479.69084 354.1567 
L 480.252595 354.246564 
L 480.814339 356.104087 
L 481.376073 356.463674 
L 482.499511 356.553559 
L 483.061215 356.493585 
L 483.622908 354.006897 
L 484.184592 352.149345 
L 484.746265 357.272537 
L 485.307928 356.343833 
L 485.869582 355.684671 
L 486.431225 354.60615 
L 486.992858 355.804519 
L 487.554481 354.965621 
L 488.116094 354.576145 
L 488.677697 356.493592 
L 489.23929 355.025624 
L 489.800873 356.343833 
L 490.362446 355.714734 
L 490.924009 355.954335 
L 491.485562 356.823252 
L 492.047105 357.42244 
L 493.170162 354.246578 
L 493.731675 353.257907 
L 494.293178 351.640079 
L 494.854672 354.306495 
L 495.416155 354.755952 
L 495.977629 356.463695 
L 496.539093 356.913102 
L 497.100547 358.171352 
L 497.661991 357.092795 
L 498.223425 355.504878 
L 498.784849 358.44098 
L 499.346264 357.632116 
L 499.907668 356.583485 
L 500.469063 354.366462 
L 501.030448 354.606107 
L 501.591823 356.044279 
L 502.153189 357.991587 
L 502.714544 355.445019 
L 503.27589 353.737326 
L 503.837227 355.564866 
L 504.398553 355.504899 
L 504.95987 357.242539 
L 505.521177 356.403757 
L 506.082474 355.924345 
L 506.643762 355.924373 
L 507.766308 354.636083 
L 508.327566 354.905769 
L 508.888815 355.624783 
L 509.450054 355.954393 
L 510.011284 356.972976 
L 510.572504 355.924359 
L 511.133714 355.774499 
L 511.694914 359.549463 
L 512.256106 357.422368 
L 512.817287 357.871761 
L 513.378459 356.553538 
L 514.500774 355.29526 
L 515.061917 355.025559 
L 516.184175 357.542173 
L 516.74529 361.137286 
L 517.306395 358.860353 
L 517.86749 353.73724 
L 518.428576 354.546197 
L 518.989653 357.841785 
L 519.55072 356.733216 
L 520.111778 358.351094 
L 520.672826 357.33244 
L 521.233865 356.553509 
L 521.794894 354.486281 
L 522.355914 353.437686 
L 522.916924 355.295209 
L 523.477926 355.385081 
L 524.038917 355.864428 
L 524.5999 357.302499 
L 525.160873 359.938954 
L 525.721836 358.740585 
L 526.28279 355.684714 
L 526.843735 355.744609 
L 527.404671 354.246593 
L 527.965597 353.85708 
L 529.087421 356.014173 
L 529.64832 358.201227 
L 530.209209 358.800509 
L 530.770089 357.302521 
L 531.330959 354.845802 
L 531.89182 355.774571 
L 533.013515 353.857088 
L 533.574349 354.486216 
L 534.135173 353.857102 
L 534.695988 358.17138 
L 535.256794 357.272552 
L 535.817591 356.643474 
L 536.378378 355.385188 
L 536.939157 355.624776 
L 537.499926 354.486302 
L 538.060686 354.42635 
L 538.621437 356.283945 
L 539.182179 356.493621 
L 539.742911 357.332483 
L 540.303635 356.403671 
L 540.86435 357.662006 
L 541.425055 357.991623 
L 541.985751 358.890387 
L 542.546439 358.051461 
L 543.107117 359.189949 
L 543.667786 356.673407 
L 544.789097 359.459577 
L 545.349739 358.620744 
L 545.910373 359.51953 
L 546.470997 357.032842 
L 547.031612 355.265211 
L 547.592218 356.104116 
L 548.152815 357.781811 
L 548.713403 356.403735 
L 549.273983 356.493592 
L 549.834553 355.415028 
L 550.395115 356.104159 
L 550.955667 358.231239 
L 551.516211 357.152726 
L 552.076745 357.602075 
L 552.637271 357.09278 
L 553.197788 357.272573 
L 553.758296 358.351102 
L 554.318796 356.553552 
L 554.879286 358.291185 
L 555.439768 356.613433 
L 556.00024 354.426314 
L 557.121159 356.913052 
L 557.681606 357.092838 
L 558.242043 358.321154 
L 558.802472 358.740621 
L 559.362892 355.984254 
L 559.923303 354.126752 
L 560.483706 355.564881 
L 561.0441 356.134056 
L 561.604485 355.864507 
L 562.164861 356.913131 
L 562.725229 357.692033 
L 563.285588 358.111435 
L 563.845938 357.062825 
L 564.406279 355.624783 
L 564.966612 356.46363 
L 566.087252 360.418294 
L 566.647559 357.452323 
L 567.207857 356.613469 
L 567.768147 359.010235 
L 568.328428 357.002966 
L 568.888701 359.369699 
L 569.448965 357.751899 
L 570.00922 355.534897 
L 570.569467 357.212578 
L 571.129705 359.849097 
L 571.689935 358.680675 
L 572.250156 358.830456 
L 572.810369 354.725947 
L 573.370573 354.486331 
L 573.930768 355.774585 
L 574.490956 355.534912 
L 575.051134 356.283938 
L 575.611304 356.493664 
L 576.171466 357.632059 
L 576.731619 357.602154 
L 577.291764 357.422333 
L 577.851901 355.055514 
L 578.412028 355.415042 
L 578.972148 357.871747 
L 579.532259 356.134128 
L 580.092362 356.313864 
L 580.652456 358.530851 
L 581.212542 359.100042 
L 581.77262 357.032856 
L 582.332689 356.04425 
L 582.89275 358.351087 
L 583.452802 359.759182 
L 584.012847 357.632073 
L 584.572883 357.332483 
L 585.13291 358.291199 
L 585.69293 356.853193 
L 586.252941 358.650699 
L 586.812943 357.991559 
L 587.372938 355.984319 
L 587.932924 357.272588 
L 588.492902 357.06279 
L 589.052872 358.231283 
L 589.612833 358.65067 
L 590.172787 358.620766 
L 591.852597 355.355097 
L 592.412518 353.857138 
L 592.97243 360.05878 
L 594.092231 356.044221 
L 594.652119 357.03295 
L 595.211998 357.362394 
L 595.77187 358.291156 
L 596.331734 355.774629 
L 596.891589 356.703354 
L 597.451437 356.104174 
L 598.011276 357.572192 
L 598.571107 356.343804 
L 599.13093 355.834495 
L 599.690746 356.853186 
L 600.250553 357.632095 
L 601.370143 358.291149 
L 601.929926 356.433668 
L 603.049468 356.583492 
L 603.609227 356.104195 
L 604.168979 356.673414 
L 604.728722 355.924345 
L 605.288457 355.385073 
L 605.848184 356.463645 
L 606.407904 355.714712 
L 606.967615 357.182695 
L 607.527319 356.673428 
L 608.087015 359.040154 
L 608.646702 355.714669 
L 609.206382 356.223971 
L 609.766054 356.194038 
L 610.325719 354.666088 
L 610.885375 356.134092 
L 611.445023 356.074212 
L 612.004664 357.661992 
L 612.564297 355.774657 
L 613.123922 357.662057 
L 613.683539 358.321161 
L 614.243149 358.441023 
L 615.362345 356.94305 
L 615.921931 359.160016 
L 616.481509 358.65067 
L 617.04108 358.500904 
L 617.600643 355.145378 
L 618.160198 353.767231 
L 618.719746 356.403714 
L 619.279286 356.433625 
L 619.838818 362.305743 
L 620.398342 358.950261 
L 620.957859 356.553559 
L 621.517368 356.52359 
L 622.07687 357.512261 
L 622.636364 357.961597 
L 622.636364 357.961597 
" clip-path="url(#pa626988d37)" style="fill: none; stroke: #1f77b4; stroke-width: 1.5; stroke-linecap: square"/>
   </g>
   <g id="line2d_13">
    <path d="M 115.363636 359.279583 
L 115.93401 357.991285 
L 116.504367 357.242259 
L 117.074707 359.429349 
L 117.64503 358.770202 
L 118.215338 358.680373 
L 118.785628 357.062574 
L 119.355902 357.661747 
L 119.92616 357.182393 
L 120.496401 358.800192 
L 121.066625 357.212369 
L 121.636833 357.032562 
L 122.207024 354.186525 
L 122.777199 356.97271 
L 123.347358 360.927287 
L 123.9175 355.594555 
L 124.487625 353.857001 
L 125.057734 355.774291 
L 125.627827 354.78567 
L 126.197903 359.459318 
L 126.767963 357.452 
L 127.338007 357.511938 
L 127.908034 356.762933 
L 128.478044 356.792945 
L 129.048038 358.021283 
L 129.618016 360.747515 
L 130.187978 354.246442 
L 130.757923 352.958223 
L 131.327852 358.290861 
L 131.897765 356.643157 
L 132.467661 356.523267 
L 133.037541 354.695762 
L 133.607404 356.972731 
L 134.177252 353.317708 
L 134.747083 354.066706 
L 135.316898 355.864205 
L 135.886696 354.036658 
L 136.456478 353.377668 
L 137.026245 353.587272 
L 137.595994 355.714403 
L 138.165728 355.354881 
L 138.735445 355.474758 
L 139.305147 357.691738 
L 140.444501 353.886935 
L 141.014153 353.107997 
L 141.58379 357.511952 
L 142.15341 355.624517 
L 142.723015 355.984031 
L 143.292603 354.965391 
L 144.431731 357.392105 
L 145.001271 355.08526 
L 145.570794 355.085282 
L 146.140302 354.545989 
L 146.709794 355.265017 
L 147.848729 359.339471 
L 148.418172 355.474736 
L 148.9876 356.493362 
L 149.557011 356.463443 
L 150.126407 354.515998 
L 150.695786 356.673098 
L 151.26515 355.954076 
L 151.834497 357.452057 
L 152.403829 355.80426 
L 152.973144 358.021283 
L 153.542444 354.396208 
L 154.111727 354.575972 
L 154.680995 355.624546 
L 155.250247 355.265003 
L 155.819483 356.433446 
L 156.388703 355.354889 
L 156.957907 356.163831 
L 157.527095 352.38899 
L 158.096268 353.347699 
L 158.665424 356.493333 
L 159.234565 354.935486 
L 159.80369 359.00989 
L 160.372799 356.133826 
L 160.941892 355.354953 
L 162.080031 355.684448 
L 162.649077 356.283629 
L 163.218107 357.30224 
L 163.787122 354.815639 
L 164.35612 354.695784 
L 164.925103 354.695806 
L 165.49407 354.366275 
L 166.063022 355.444803 
L 166.631957 354.036687 
L 167.200877 356.043977 
L 167.769781 354.15657 
L 168.33867 353.167942 
L 168.907543 354.276418 
L 169.4764 352.838375 
L 170.045242 355.834279 
L 170.614067 355.504691 
L 171.182878 355.864212 
L 171.751672 354.815596 
L 172.320451 355.594591 
L 172.889215 354.246463 
L 173.457963 353.58733 
L 174.026695 357.541893 
L 174.595412 356.133812 
L 175.164113 352.988185 
L 175.732798 355.594613 
L 176.301468 356.64315 
L 176.870123 355.834229 
L 177.438762 355.684448 
L 178.007385 355.115258 
L 178.575993 353.018082 
L 179.144586 353.13798 
L 179.713162 354.516012 
L 180.281724 356.343574 
L 180.85027 356.223669 
L 181.4188 356.852898 
L 181.987316 352.988199 
L 182.555815 352.029526 
L 183.1243 355.35496 
L 183.692768 353.767058 
L 184.261222 354.126659 
L 184.82966 353.497466 
L 185.398082 354.096661 
L 185.96649 352.538778 
L 186.534882 354.186532 
L 187.103258 357.901436 
L 187.671619 356.163796 
L 188.239965 357.212391 
L 188.808296 353.797034 
L 189.376611 355.085325 
L 189.944911 353.49748 
L 190.513195 353.73719 
L 191.081465 352.928247 
L 191.649719 354.69582 
L 192.217958 354.965463 
L 192.786181 354.755715 
L 193.354389 352.598709 
L 193.922583 352.538778 
L 194.49076 353.527471 
L 195.058923 351.849754 
L 196.195203 354.845622 
L 196.76332 353.467504 
L 197.331421 354.306351 
L 197.899508 352.179285 
L 198.46758 353.22788 
L 199.035636 353.197854 
L 199.603677 355.894138 
L 200.171703 352.838383 
L 200.739714 354.186568 
L 201.30771 354.066699 
L 201.875691 353.677237 
L 202.443657 353.138016 
L 203.011607 352.089414 
L 203.579543 352.119412 
L 204.147463 352.478868 
L 204.715369 354.336349 
L 205.283259 352.628649 
L 205.851135 353.617299 
L 206.418995 353.04808 
L 206.986841 350.142091 
L 207.554671 351.969573 
L 208.122486 350.711317 
L 208.690287 350.082196 
L 209.258072 350.44171 
L 210.393598 353.167935 
L 210.961339 352.958237 
L 211.529065 354.54601 
L 212.096775 352.179249 
L 212.664471 355.32497 
L 213.232152 352.089421 
L 213.799818 352.149345 
L 214.367469 351.280536 
L 214.935106 351.640079 
L 215.502727 352.868366 
L 216.070334 351.3704 
L 216.637926 352.059495 
L 217.205503 350.681376 
L 217.773065 351.250588 
L 218.340612 350.98096 
L 218.908145 351.670048 
L 219.475663 349.453031 
L 220.043166 349.273332 
L 220.610654 350.891059 
L 221.745586 347.71542 
L 222.31303 348.793956 
L 222.880459 350.771241 
L 223.447874 349.333227 
L 224.015274 350.471636 
L 224.582659 351.010842 
L 225.150029 348.344498 
L 225.717385 350.651407 
L 226.284726 348.943729 
L 226.852053 349.033601 
L 227.419364 348.853851 
L 227.986661 349.812546 
L 228.553944 348.763979 
L 229.121212 349.243334 
L 229.688465 349.962334 
L 230.255704 349.542896 
L 230.822928 351.87976 
L 231.390138 350.891095 
L 231.957333 355.175153 
L 232.524513 351.729907 
L 233.091679 350.291872 
L 233.65883 346.936518 
L 234.225967 348.015025 
L 234.793089 348.853879 
L 235.927291 346.966444 
L 236.494369 347.445813 
L 237.061434 347.535677 
L 237.628484 347.925161 
L 238.195519 347.865201 
L 238.76254 351.520224 
L 239.329547 350.921036 
L 239.896539 348.674101 
L 240.463516 348.314601 
L 241.03048 349.542953 
L 241.597428 348.704091 
L 242.164363 347.385889 
L 242.731283 348.134793 
L 243.298189 350.471657 
L 243.86508 345.947825 
L 244.431957 344.839371 
L 244.99882 347.595565 
L 245.565668 346.067723 
L 246.132502 345.678197 
L 246.699322 345.498483 
L 247.266128 344.569628 
L 247.832919 344.509776 
L 248.399696 344.299985 
L 248.966458 343.521011 
L 249.533207 341.963071 
L 250.099941 345.498433 
L 250.666661 343.461188 
L 251.233366 343.341283 
L 251.800058 343.401271 
L 252.366735 344.32999 
L 252.933398 341.783306 
L 253.500047 340.734704 
L 254.066682 344.330011 
L 255.199908 342.472416 
L 255.766501 342.202795 
L 256.333079 343.131585 
L 256.899643 341.813369 
L 257.466192 342.082933 
L 258.032728 341.094189 
L 258.59925 339.865859 
L 259.165757 341.184097 
L 259.732251 339.835911 
L 260.29873 341.663502 
L 260.865195 342.712011 
L 261.431647 344.629523 
L 261.998084 337.439138 
L 262.564507 336.600204 
L 263.130916 339.026947 
L 263.697312 338.727328 
L 264.263693 340.554911 
L 264.83006 339.74599 
L 265.396413 338.158116 
L 265.962752 337.588933 
L 266.529078 339.50628 
L 267.095389 338.547556 
L 267.661686 336.630173 
L 268.22797 338.098214 
L 268.79424 336.150848 
L 269.360495 331.986386 
L 269.926737 333.48441 
L 270.492965 337.439009 
L 271.059179 336.120835 
L 271.625379 336.570228 
L 272.191565 335.10226 
L 273.323896 330.158817 
L 273.890041 330.937798 
L 274.456172 332.735362 
L 275.022289 332.645505 
L 275.588392 333.094905 
L 276.154482 328.630846 
L 276.720558 329.619524 
L 277.28662 333.813955 
L 278.418702 331.087593 
L 279.55073 336.150819 
L 280.116723 329.949084 
L 280.682703 327.851908 
L 281.248669 326.983106 
L 281.814621 326.323951 
L 282.38056 326.593615 
L 282.946485 326.114253 
L 283.512396 328.031665 
L 284.078293 327.552339 
L 284.644177 326.563697 
L 285.210048 326.893263 
L 285.775904 329.679498 
L 286.341747 323.118378 
L 286.907577 320.392125 
L 287.473393 325.335395 
L 289.170759 322.399379 
L 289.73652 321.650367 
L 290.302269 320.5119 
L 290.868003 321.380767 
L 291.433724 319.10387 
L 291.999432 318.145154 
L 292.565126 319.463399 
L 293.696473 316.976754 
L 294.262127 317.545987 
L 294.827767 317.815637 
L 295.959007 316.796997 
L 296.524607 318.774325 
L 297.090193 317.096537 
L 297.655766 314.759666 
L 298.221326 315.418828 
L 298.786872 318.594496 
L 299.352405 318.055282 
L 299.917924 318.774325 
L 301.048923 313.920876 
L 301.614403 318.235032 
L 302.179869 316.437483 
L 302.745321 315.299074 
L 303.310761 315.628597 
L 303.876187 315.62854 
L 304.4416 312.812278 
L 305.007 313.141859 
L 305.572386 314.070635 
L 306.137759 312.422845 
L 306.703119 313.14183 
L 307.268465 311.523988 
L 307.833799 311.104521 
L 308.399119 311.164488 
L 308.964426 311.374185 
L 309.52972 311.31429 
L 310.095 310.894859 
L 310.660267 311.883574 
L 311.225522 310.265666 
L 311.790763 311.583897 
L 312.355991 310.415462 
L 312.921205 310.685126 
L 313.486407 308.947472 
L 314.051595 309.366938 
L 314.616771 312.39284 
L 315.181933 310.924864 
L 315.747082 308.857672 
L 316.312218 308.25842 
L 316.877341 308.797669 
L 317.442451 308.707776 
L 318.007548 308.378274 
L 318.572632 305.232597 
L 319.137703 304.783247 
L 319.702761 304.813152 
L 320.267806 303.884447 
L 320.832838 304.184067 
L 321.397857 303.614797 
L 321.962862 304.96294 
L 323.092835 297.832615 
L 323.657802 299.390642 
L 324.222756 300.28937 
L 324.787697 295.885228 
L 325.352626 294.417158 
L 326.482443 292.619508 
L 327.047333 293.548256 
L 327.61221 291.840535 
L 328.177073 292.110271 
L 328.741924 292.589575 
L 329.306762 291.151497 
L 329.871588 293.608237 
L 330.4364 291.03175 
L 331.001199 289.054422 
L 331.565986 288.724884 
L 332.13076 290.881926 
L 332.695521 290.851935 
L 333.26027 291.421262 
L 333.825005 286.477934 
L 334.389728 284.650401 
L 334.954438 288.035846 
L 335.519136 285.668984 
L 336.08382 286.028527 
L 336.648492 284.470623 
L 337.213152 285.399406 
L 337.777798 286.56782 
L 338.342432 286.208277 
L 338.907053 285.489256 
L 340.036257 282.013954 
L 340.600841 280.575998 
L 341.165411 280.60596 
L 341.729969 282.013976 
L 342.294514 283.751623 
L 342.859047 284.290837 
L 343.423567 282.103833 
L 343.988075 284.230971 
L 345.117052 281.984064 
L 345.681522 280.815665 
L 346.245979 281.864195 
L 346.810423 279.916915 
L 347.374856 280.066703 
L 347.939275 277.430177 
L 348.503682 276.081977 
L 349.068077 275.602565 
L 349.632459 272.756427 
L 350.196829 271.558059 
L 350.761186 272.576663 
L 351.325531 274.224511 
L 351.889863 269.610685 
L 353.01849 267.183993 
L 353.582785 267.603402 
L 354.147068 270.209916 
L 354.711338 271.737794 
L 355.839841 278.269118 
L 356.404074 279.886867 
L 356.968295 279.76712 
L 357.532503 276.950822 
L 358.096699 276.950822 
L 358.660883 277.070684 
L 359.225054 277.969491 
L 359.789213 273.864975 
L 360.35336 272.516775 
L 360.917494 267.69331 
L 361.481617 267.69331 
L 362.045726 268.711943 
L 362.609824 267.154024 
L 363.173909 266.165389 
L 364.302044 267.603424 
L 364.866092 271.168561 
L 365.430129 271.827666 
L 365.994153 275.752403 
L 366.558165 276.471504 
L 367.122165 273.535358 
L 367.686153 272.996087 
L 368.250128 275.332958 
L 369.378043 267.813229 
L 369.941982 268.891686 
L 370.505909 268.891714 
L 371.069824 269.880371 
L 371.633727 267.873067 
L 372.197618 270.809133 
L 372.761496 270.839045 
L 373.325363 271.917587 
L 373.889217 269.640676 
L 374.45306 269.760538 
L 375.01689 267.633393 
L 375.580709 267.483634 
L 376.144515 268.142717 
L 376.70831 266.944348 
L 377.272092 268.502224 
L 377.835862 266.854427 
L 378.399621 266.674684 
L 378.963367 270.56938 
L 379.527102 272.366973 
L 380.090824 277.609963 
L 380.654535 277.160556 
L 381.218233 280.845663 
L 381.78192 277.969455 
L 382.345595 275.752353 
L 382.909258 275.362877 
L 384.036548 275.84231 
L 384.600175 276.89087 
L 385.163791 277.639867 
L 385.727394 274.524116 
L 386.290986 272.666535 
L 386.854566 272.24714 
L 387.418134 274.404282 
L 387.98169 274.254473 
L 388.545235 274.73377 
L 389.108767 273.984744 
L 389.672288 274.673846 
L 390.235797 278.688541 
L 390.799295 277.490158 
L 391.36278 278.478822 
L 391.926254 278.329034 
L 392.489716 278.478765 
L 393.053167 279.527425 
L 393.616605 281.055295 
L 394.180032 283.511921 
L 394.743448 283.062607 
L 395.306851 284.710354 
L 395.870243 284.410728 
L 396.433624 288.005877 
L 396.996992 286.957275 
L 397.560349 286.657706 
L 398.123695 286.867382 
L 398.687028 287.736205 
L 399.250351 288.335429 
L 399.813661 286.777503 
L 400.37696 290.073033 
L 400.940247 288.634984 
L 401.503523 288.545155 
L 402.066788 290.132856 
L 402.63004 292.829314 
L 403.193281 288.964514 
L 403.756511 290.732145 
L 404.319729 295.765337 
L 404.882936 294.536999 
L 405.446131 295.645561 
L 406.009314 295.915197 
L 406.572486 296.574265 
L 407.135647 302.116889 
L 407.698796 302.596215 
L 408.261934 303.824538 
L 408.82506 302.985683 
L 409.388175 306.221247 
L 409.951279 303.255283 
L 410.514371 305.0229 
L 411.077451 304.363773 
L 411.64052 304.813188 
L 412.766625 308.797734 
L 413.32966 310.565257 
L 413.892684 308.198496 
L 414.455696 312.063266 
L 415.018697 311.104586 
L 415.581687 311.194443 
L 416.144665 312.902265 
L 416.707633 313.201797 
L 417.270588 313.741148 
L 417.833533 314.819683 
L 418.396466 316.43754 
L 418.959388 315.748459 
L 419.522299 318.025313 
L 420.085199 317.306321 
L 420.648087 317.575956 
L 421.77383 322.189674 
L 422.336685 325.60498 
L 422.899528 324.196928 
L 423.462361 321.95 
L 424.025182 322.339455 
L 424.587992 327.492444 
L 425.150791 326.353913 
L 425.713578 326.443892 
L 426.83912 328.63086 
L 427.401875 330.907843 
L 427.964618 328.900532 
L 428.52735 329.799346 
L 429.090071 328.870534 
L 429.652781 330.428481 
L 430.21548 332.555705 
L 430.778168 335.88114 
L 431.340845 333.154872 
L 431.90351 333.035003 
L 432.466165 334.742738 
L 433.028809 333.574346 
L 433.591442 333.244786 
L 434.154063 335.431819 
L 434.716674 337.139468 
L 435.279274 337.109514 
L 435.841863 338.068223 
L 436.404441 341.843245 
L 437.529564 339.745961 
L 438.092109 340.135495 
L 438.654643 340.255349 
L 439.217166 341.03446 
L 439.779679 345.138954 
L 440.34218 340.045702 
L 440.904671 339.536278 
L 441.467151 340.465147 
L 442.02962 338.75739 
L 442.592078 339.536357 
L 443.154525 340.674838 
L 443.716961 342.89189 
L 444.841802 343.101631 
L 445.404206 342.712198 
L 446.528982 342.831959 
L 447.091353 343.041735 
L 447.653714 347.655482 
L 448.216065 347.086306 
L 448.778404 346.996435 
L 449.340733 345.528502 
L 449.903051 344.989123 
L 450.465358 347.835261 
L 451.027655 346.427187 
L 451.589941 343.46113 
L 452.152216 344.389964 
L 452.714481 347.176185 
L 453.276735 346.277442 
L 453.838978 347.056323 
L 454.401211 347.415844 
L 454.963433 347.925146 
L 455.525644 350.891059 
L 456.650036 347.35592 
L 457.212215 346.876594 
L 457.774384 348.524306 
L 458.336543 348.314594 
L 458.898691 348.31463 
L 459.460828 347.745296 
L 460.022955 346.906484 
L 460.585072 350.052241 
L 461.147178 348.284632 
L 461.709273 350.202007 
L 462.271358 350.261917 
L 462.833432 351.250595 
L 463.395496 349.482979 
L 463.95755 349.572865 
L 464.519593 348.763936 
L 465.081626 347.176149 
L 465.643648 350.202015 
L 466.205659 348.344491 
L 466.767661 355.055313 
L 467.329652 350.411719 
L 467.891632 349.842508 
L 469.015562 352.508866 
L 470.139451 349.812538 
L 470.701379 353.527485 
L 471.263298 351.87968 
L 472.387104 351.310469 
L 472.948991 353.946837 
L 473.510868 350.861105 
L 474.072735 351.19065 
L 474.634592 349.243298 
L 475.196438 348.404415 
L 475.758274 353.048116 
L 476.3201 351.759869 
L 476.881915 353.707206 
L 477.443721 348.374438 
L 478.005516 345.408489 
L 478.567301 349.453046 
L 479.129076 350.741286 
L 479.69084 352.928283 
L 480.252595 352.478854 
L 480.814339 354.576015 
L 481.376073 352.209233 
L 481.937797 351.99955 
L 482.499511 351.640035 
L 483.061215 351.7299 
L 483.622908 355.055341 
L 484.184592 352.568711 
L 485.307928 352.02949 
L 485.869582 352.628699 
L 486.431225 352.658611 
L 486.992858 355.025343 
L 487.554481 353.467504 
L 488.116094 354.096632 
L 488.677697 353.617342 
L 489.23929 352.209254 
L 489.800873 353.108069 
L 490.362446 353.048094 
L 490.924009 356.163839 
L 491.485562 353.58733 
L 492.047105 354.21648 
L 492.608639 352.448942 
L 493.170162 352.179292 
L 493.731675 353.617313 
L 494.293178 352.74849 
L 494.854672 354.036751 
L 495.977629 353.317701 
L 496.539093 353.018125 
L 497.100547 353.916925 
L 497.661991 354.156563 
L 498.223425 351.879702 
L 498.784849 352.89835 
L 499.346264 353.16792 
L 500.469063 355.954098 
L 501.030448 357.841483 
L 501.591823 353.886913 
L 502.153189 356.313648 
L 502.714544 355.684506 
L 503.27589 354.456132 
L 503.837227 352.718564 
L 504.398553 352.329059 
L 504.95987 353.886942 
L 505.521177 352.718549 
L 506.082474 352.928304 
L 506.643762 353.737132 
L 507.205039 354.066699 
L 507.766308 354.605934 
L 508.327566 353.916868 
L 508.888815 355.744393 
L 509.450054 353.587308 
L 510.011284 353.737139 
L 510.572504 354.126572 
L 511.133714 356.762983 
L 511.694914 355.085325 
L 512.256106 353.976799 
L 512.817287 357.751662 
L 513.378459 355.085274 
L 513.939621 353.347721 
L 514.500774 353.407594 
L 515.061917 355.534674 
L 515.623051 355.444753 
L 516.184175 357.21234 
L 516.74529 355.025387 
L 517.306395 353.557339 
L 517.86749 356.223698 
L 518.989653 355.175189 
L 519.55072 354.905539 
L 520.111778 353.707206 
L 520.672826 356.073874 
L 521.233865 356.253667 
L 521.794894 355.414791 
L 522.355914 353.856929 
L 522.916924 354.905553 
L 523.477926 352.928218 
L 524.038917 353.827018 
L 524.5999 353.377596 
L 525.160873 355.294986 
L 526.28279 352.089399 
L 526.843735 353.916896 
L 527.404671 353.31768 
L 527.965597 355.205144 
L 528.526514 353.347627 
L 529.087421 353.797056 
L 530.209209 356.07391 
L 530.770089 356.373536 
L 531.330959 356.133848 
L 531.89182 356.822936 
L 532.452672 354.755708 
L 533.013515 354.186539 
L 533.574349 352.239195 
L 534.135173 351.939662 
L 534.695988 355.414769 
L 535.256794 356.223698 
L 535.817591 354.605977 
L 536.378378 355.444767 
L 536.939157 357.511967 
L 537.499926 355.324919 
L 538.060686 356.792931 
L 538.621437 354.306337 
L 539.182179 353.827047 
L 539.742911 355.025379 
L 540.303635 352.868344 
L 540.86435 353.647304 
L 541.425055 353.527399 
L 541.985751 357.092529 
L 542.546439 355.774262 
L 543.107117 356.223705 
L 543.667786 357.062502 
L 544.228446 358.111147 
L 544.789097 356.16381 
L 545.349739 354.785677 
L 545.910373 356.613181 
L 547.031612 354.186511 
L 547.592218 355.025343 
L 548.152815 356.822922 
L 548.713403 353.827018 
L 549.834553 354.576001 
L 550.395115 352.688587 
L 550.955667 355.26506 
L 551.516211 353.49743 
L 552.076745 353.797078 
L 552.637271 352.329088 
L 553.197788 353.287811 
L 553.758296 353.437592 
L 554.318796 353.107989 
L 554.879286 359.249578 
L 556.00024 354.605927 
L 556.560704 354.935422 
L 557.121159 356.283643 
L 557.681606 353.167899 
L 558.242043 353.856994 
L 558.802472 356.223727 
L 559.362892 355.025307 
L 559.923303 356.1039 
L 560.483706 355.894102 
L 561.0441 356.972695 
L 562.164861 355.265003 
L 562.725229 353.916868 
L 563.285588 352.868359 
L 563.845938 356.373507 
L 564.406279 356.223647 
L 564.966612 357.841497 
L 565.526937 355.235041 
L 566.087252 353.16792 
L 566.647559 354.186496 
L 567.207857 357.212419 
L 567.768147 355.294993 
L 568.328428 353.797049 
L 568.888701 361.346725 
L 570.00922 353.827047 
L 570.569467 352.748475 
L 571.129705 353.437592 
L 571.689935 355.085231 
L 572.250156 357.302262 
L 572.810369 355.205151 
L 573.370573 353.617306 
L 573.930768 354.156621 
L 574.490956 356.103886 
L 575.051134 358.860116 
L 575.611304 354.516056 
L 576.171466 352.988207 
L 577.291764 354.845586 
L 577.851901 354.935465 
L 578.412028 354.635839 
L 578.972148 355.534674 
L 579.532259 354.90546 
L 580.092362 356.762955 
L 580.652456 353.227816 
L 581.212542 353.197926 
L 581.77262 354.486144 
L 582.332689 352.898242 
L 582.89275 354.126587 
L 583.452802 354.276411 
L 584.572883 354.066641 
L 585.13291 357.152488 
L 586.252941 354.785684 
L 586.812943 356.403484 
L 587.372938 354.995338 
L 587.932924 356.762998 
L 588.492902 355.98401 
L 589.052872 355.68447 
L 589.612833 354.785627 
L 590.172787 356.613174 
L 590.732732 357.871423 
L 591.292669 356.014022 
L 591.852597 355.954041 
L 592.412518 355.774262 
L 592.97243 355.924122 
L 593.532335 355.055226 
L 594.092231 356.703045 
L 594.652119 356.613145 
L 595.211998 359.09979 
L 595.77187 357.362164 
L 596.331734 355.055291 
L 596.891589 357.961352 
L 597.451437 356.043912 
L 598.011276 356.343538 
L 598.571107 354.965391 
L 599.13093 354.336327 
L 599.690746 353.916825 
L 600.250553 354.935486 
L 600.810352 356.373493 
L 601.370143 354.575915 
L 601.929926 355.954055 
L 602.489701 355.564615 
L 603.049468 356.763019 
L 603.609227 356.792924 
L 604.168979 359.848759 
L 604.728722 353.79702 
L 605.288457 353.018132 
L 605.848184 358.141109 
L 606.407904 356.673069 
L 606.967615 354.486137 
L 607.527319 355.085253 
L 608.087015 357.452028 
L 608.646702 354.456117 
L 609.206382 355.324941 
L 609.766054 355.145213 
L 610.325719 353.737132 
L 610.885375 358.380805 
L 611.445023 357.931333 
L 612.004664 355.804274 
L 612.564297 355.864184 
L 613.123922 357.751604 
L 613.683539 356.733 
L 614.243149 358.470647 
L 614.802751 358.770245 
L 615.362345 356.942741 
L 615.921931 354.276439 
L 616.481509 354.905496 
L 617.04108 357.362143 
L 617.600643 353.407609 
L 618.160198 352.808457 
L 618.719746 355.564636 
L 619.279286 357.751655 
L 619.838818 356.283672 
L 620.398342 356.313569 
L 620.957859 354.12663 
L 621.517368 355.205108 
L 622.07687 355.744386 
L 622.636364 354.63586 
L 622.636364 354.63586 
" clip-path="url(#pa626988d37)" style="fill: none; stroke: #ff7f0e; stroke-width: 1.5; stroke-linecap: square"/>
   </g>
   <g id="patch_3">
    <path d="M 90 378 
L 90 51.84 
" style="fill: none; stroke: #000000; stroke-width: 0.8; stroke-linejoin: miter; stroke-linecap: square"/>
   </g>
   <g id="patch_4">
    <path d="M 648 378 
L 648 51.84 
" style="fill: none; stroke: #000000; stroke-width: 0.8; stroke-linejoin: miter; stroke-linecap: square"/>
   </g>
   <g id="patch_5">
    <path d="M 90 378 
L 648 378 
" style="fill: none; stroke: #000000; stroke-width: 0.8; stroke-linejoin: miter; stroke-linecap: square"/>
   </g>
   <g id="patch_6">
    <path d="M 90 51.84 
L 648 51.84 
" style="fill: none; stroke: #000000; stroke-width: 0.8; stroke-linejoin: miter; stroke-linecap: square"/>
   </g>
   <g id="text_14">
    <!-- Laser spectrum without feedback -->
    <g transform="translate(188.037563 45.84) scale(0.216 -0.216)">
     <defs>
      <path id="DejaVuSans-4c" d="M 628 4666 
L 1259 4666 
L 1259 531 
L 3531 531 
L 3531 0 
L 628 0 
L 628 4666 
z
" transform="scale(0.015625)"/>
      <path id="DejaVuSans-72" d="M 2631 2963 
Q 2534 3019 2420 3045 
Q 2306 3072 2169 3072 
Q 1681 3072 1420 2755 
Q 1159 2438 1159 1844 
L 1159 0 
L 581 0 
L 581 3500 
L 1159 3500 
L 1159 2956 
Q 1341 3275 1631 3429 
Q 1922 3584 2338 3584 
Q 2397 3584 2469 3576 
Q 2541 3569 2628 3553 
L 2631 2963 
z
" transform="scale(0.015625)"/>
      <path id="DejaVuSans-70" d="M 1159 525 
L 1159 -1331 
L 581 -1331 
L 581 3500 
L 1159 3500 
L 1159 2969 
Q 1341 3281 1617 3432 
Q 1894 3584 2278 3584 
Q 2916 3584 3314 3078 
Q 3713 2572 3713 1747 
Q 3713 922 3314 415 
Q 2916 -91 2278 -91 
Q 1894 -91 1617 61 
Q 1341 213 1159 525 
z
M 3116 1747 
Q 3116 2381 2855 2742 
Q 2594 3103 2138 3103 
Q 1681 3103 1420 2742 
Q 1159 2381 1159 1747 
Q 1159 1113 1420 752 
Q 1681 391 2138 391 
Q 2594 391 2855 752 
Q 3116 1113 3116 1747 
z
" transform="scale(0.015625)"/>
      <path id="DejaVuSans-63" d="M 3122 3366 
L 3122 2828 
Q 2878 2963 2633 3030 
Q 2388 3097 2138 3097 
Q 1578 3097 1268 2742 
Q 959 2388 959 1747 
Q 959 1106 1268 751 
Q 1578 397 2138 397 
Q 2388 397 2633 464 
Q 2878 531 3122 666 
L 3122 134 
Q 2881 22 2623 -34 
Q 2366 -91 2075 -91 
Q 1284 -91 818 406 
Q 353 903 353 1747 
Q 353 2603 823 3093 
Q 1294 3584 2113 3584 
Q 2378 3584 2631 3529 
Q 2884 3475 3122 3366 
z
" transform="scale(0.015625)"/>
      <path id="DejaVuSans-75" d="M 544 1381 
L 544 3500 
L 1119 3500 
L 1119 1403 
Q 1119 906 1312 657 
Q 1506 409 1894 409 
Q 2359 409 2629 706 
Q 2900 1003 2900 1516 
L 2900 3500 
L 3475 3500 
L 3475 0 
L 2900 0 
L 2900 538 
Q 2691 219 2414 64 
Q 2138 -91 1772 -91 
Q 1169 -91 856 284 
Q 544 659 544 1381 
z
M 1991 3584 
L 1991 3584 
z
" transform="scale(0.015625)"/>
      <path id="DejaVuSans-77" d="M 269 3500 
L 844 3500 
L 1563 769 
L 2278 3500 
L 2956 3500 
L 3675 769 
L 4391 3500 
L 4966 3500 
L 4050 0 
L 3372 0 
L 2619 2869 
L 1863 0 
L 1184 0 
L 269 3500 
z
" transform="scale(0.015625)"/>
      <path id="DejaVuSans-6f" d="M 1959 3097 
Q 1497 3097 1228 2736 
Q 959 2375 959 1747 
Q 959 1119 1226 758 
Q 1494 397 1959 397 
Q 2419 397 2687 759 
Q 2956 1122 2956 1747 
Q 2956 2369 2687 2733 
Q 2419 3097 1959 3097 
z
M 1959 3584 
Q 2709 3584 3137 3096 
Q 3566 2609 3566 1747 
Q 3566 888 3137 398 
Q 2709 -91 1959 -91 
Q 1206 -91 779 398 
Q 353 888 353 1747 
Q 353 2609 779 3096 
Q 1206 3584 1959 3584 
z
" transform="scale(0.015625)"/>
      <path id="DejaVuSans-66" d="M 2375 4863 
L 2375 4384 
L 1825 4384 
Q 1516 4384 1395 4259 
Q 1275 4134 1275 3809 
L 1275 3500 
L 2222 3500 
L 2222 3053 
L 1275 3053 
L 1275 0 
L 697 0 
L 697 3053 
L 147 3053 
L 147 3500 
L 697 3500 
L 697 3744 
Q 697 4328 969 4595 
Q 1241 4863 1831 4863 
L 2375 4863 
z
" transform="scale(0.015625)"/>
      <path id="DejaVuSans-64" d="M 2906 2969 
L 2906 4863 
L 3481 4863 
L 3481 0 
L 2906 0 
L 2906 525 
Q 2725 213 2448 61 
Q 2172 -91 1784 -91 
Q 1150 -91 751 415 
Q 353 922 353 1747 
Q 353 2572 751 3078 
Q 1150 3584 1784 3584 
Q 2172 3584 2448 3432 
Q 2725 3281 2906 2969 
z
M 947 1747 
Q 947 1113 1208 752 
Q 1469 391 1925 391 
Q 2381 391 2643 752 
Q 2906 1113 2906 1747 
Q 2906 2381 2643 2742 
Q 2381 3103 1925 3103 
Q 1469 3103 1208 2742 
Q 947 2381 947 1747 
z
" transform="scale(0.015625)"/>
      <path id="DejaVuSans-62" d="M 3116 1747 
Q 3116 2381 2855 2742 
Q 2594 3103 2138 3103 
Q 1681 3103 1420 2742 
Q 1159 2381 1159 1747 
Q 1159 1113 1420 752 
Q 1681 391 2138 391 
Q 2594 391 2855 752 
Q 3116 1113 3116 1747 
z
M 1159 2969 
Q 1341 3281 1617 3432 
Q 1894 3584 2278 3584 
Q 2916 3584 3314 3078 
Q 3713 2572 3713 1747 
Q 3713 922 3314 415 
Q 2916 -91 2278 -91 
Q 1894 -91 1617 61 
Q 1341 213 1159 525 
L 1159 0 
L 581 0 
L 581 4863 
L 1159 4863 
L 1159 2969 
z
" transform="scale(0.015625)"/>
      <path id="DejaVuSans-6b" d="M 581 4863 
L 1159 4863 
L 1159 1991 
L 2875 3500 
L 3609 3500 
L 1753 1863 
L 3688 0 
L 2938 0 
L 1159 1709 
L 1159 0 
L 581 0 
L 581 4863 
z
" transform="scale(0.015625)"/>
     </defs>
     <use xlink:href="#DejaVuSans-4c"/>
     <use xlink:href="#DejaVuSans-61" x="55.712891"/>
     <use xlink:href="#DejaVuSans-73" x="116.992188"/>
     <use xlink:href="#DejaVuSans-65" x="169.091797"/>
     <use xlink:href="#DejaVuSans-72" x="230.615234"/>
     <use xlink:href="#DejaVuSans-20" x="271.728516"/>
     <use xlink:href="#DejaVuSans-73" x="303.515625"/>
     <use xlink:href="#DejaVuSans-70" x="355.615234"/>
     <use xlink:href="#DejaVuSans-65" x="419.091797"/>
     <use xlink:href="#DejaVuSans-63" x="480.615234"/>
     <use xlink:href="#DejaVuSans-74" x="535.595703"/>
     <use xlink:href="#DejaVuSans-72" x="574.804688"/>
     <use xlink:href="#DejaVuSans-75" x="615.917969"/>
     <use xlink:href="#DejaVuSans-6d" x="679.296875"/>
     <use xlink:href="#DejaVuSans-20" x="776.708984"/>
     <use xlink:href="#DejaVuSans-77" x="808.496094"/>
     <use xlink:href="#DejaVuSans-69" x="890.283203"/>
     <use xlink:href="#DejaVuSans-74" x="918.066406"/>
     <use xlink:href="#DejaVuSans-68" x="957.275391"/>
     <use xlink:href="#DejaVuSans-6f" x="1020.654297"/>
     <use xlink:href="#DejaVuSans-75" x="1081.835938"/>
     <use xlink:href="#DejaVuSans-74" x="1145.214844"/>
     <use xlink:href="#DejaVuSans-20" x="1184.423828"/>
     <use xlink:href="#DejaVuSans-66" x="1216.210938"/>
     <use xlink:href="#DejaVuSans-65" x="1251.416016"/>
     <use xlink:href="#DejaVuSans-65" x="1312.939453"/>
     <use xlink:href="#DejaVuSans-64" x="1374.462891"/>
     <use xlink:href="#DejaVuSans-62" x="1437.939453"/>
     <use xlink:href="#DejaVuSans-61" x="1501.416016"/>
     <use xlink:href="#DejaVuSans-63" x="1562.695312"/>
     <use xlink:href="#DejaVuSans-6b" x="1617.675781"/>
    </g>
   </g>
   <g id="legend_1">
    <g id="patch_7">
     <path d="M 525.04875 119.08125 
L 635.4 119.08125 
Q 639 119.08125 639 115.48125 
L 639 64.44 
Q 639 60.84 635.4 60.84 
L 525.04875 60.84 
Q 521.44875 60.84 521.44875 64.44 
L 521.44875 115.48125 
Q 521.44875 119.08125 525.04875 119.08125 
z
" style="fill: #ffffff; opacity: 0.8; stroke: #cccccc; stroke-linejoin: miter"/>
    </g>
    <g id="line2d_14">
     <path d="M 528.64875 75.417187 
L 546.64875 75.417187 
L 564.64875 75.417187 
" style="fill: none; stroke: #1f77b4; stroke-width: 1.5; stroke-linecap: square"/>
    </g>
    <g id="text_15">
     <!-- 28mA -->
     <g transform="translate(579.04875 81.717187) scale(0.18 -0.18)">
      <defs>
       <path id="DejaVuSans-41" d="M 2188 4044 
L 1331 1722 
L 3047 1722 
L 2188 4044 
z
M 1831 4666 
L 2547 4666 
L 4325 0 
L 3669 0 
L 3244 1197 
L 1141 1197 
L 716 0 
L 50 0 
L 1831 4666 
z
" transform="scale(0.015625)"/>
      </defs>
      <use xlink:href="#DejaVuSans-32"/>
      <use xlink:href="#DejaVuSans-38" x="63.623047"/>
      <use xlink:href="#DejaVuSans-6d" x="127.246094"/>
      <use xlink:href="#DejaVuSans-41" x="224.658203"/>
     </g>
    </g>
    <g id="line2d_15">
     <path d="M 528.64875 101.837812 
L 546.64875 101.837812 
L 564.64875 101.837812 
" style="fill: none; stroke: #ff7f0e; stroke-width: 1.5; stroke-linecap: square"/>
    </g>
    <g id="text_16">
     <!-- 25mA -->
     <g transform="translate(579.04875 108.137812) scale(0.18 -0.18)">
      <use xlink:href="#DejaVuSans-32"/>
      <use xlink:href="#DejaVuSans-35" x="63.623047"/>
      <use xlink:href="#DejaVuSans-6d" x="127.246094"/>
      <use xlink:href="#DejaVuSans-41" x="224.658203"/>
     </g>
    </g>
   </g>
  </g>
 </g>
 <defs>
  <clipPath id="pa626988d37">
   <rect x="90" y="51.84" width="558" height="326.16"/>
  </clipPath>
 </defs>
</svg>
