<?xml version="1.0" encoding="utf-8" standalone="no"?>
<!DOCTYPE svg PUBLIC "-//W3C//DTD SVG 1.1//EN"
  "http://www.w3.org/Graphics/SVG/1.1/DTD/svg11.dtd">
<svg xmlns:xlink="http://www.w3.org/1999/xlink" width="720pt" height="432pt" viewBox="0 0 720 432" xmlns="http://www.w3.org/2000/svg" version="1.1">
 <metadata>
  <rdf:RDF xmlns:dc="http://purl.org/dc/elements/1.1/" xmlns:cc="http://creativecommons.org/ns#" xmlns:rdf="http://www.w3.org/1999/02/22-rdf-syntax-ns#">
   <cc:Work>
    <dc:type rdf:resource="http://purl.org/dc/dcmitype/StillImage"/>
    <dc:date>2023-06-22T13:28:14.038538</dc:date>
    <dc:format>image/svg+xml</dc:format>
    <dc:creator>
     <cc:Agent>
      <dc:title>Matplotlib v3.6.3, https://matplotlib.org/</dc:title>
     </cc:Agent>
    </dc:creator>
   </cc:Work>
  </rdf:RDF>
 </metadata>
 <defs>
  <style type="text/css">*{stroke-linejoin: round; stroke-linecap: butt}</style>
 </defs>
 <g id="figure_1">
  <g id="patch_1">
   <path d="M 0 432 
L 720 432 
L 720 0 
L 0 0 
L 0 432 
z
" style="fill: none"/>
  </g>
  <g id="axes_1">
   <g id="patch_2">
    <path d="M 90 384.48 
L 648 384.48 
L 648 51.84 
L 90 51.84 
z
" style="fill: #ffffff"/>
   </g>
   <g id="matplotlib.axis_1">
    <g id="xtick_1">
     <g id="line2d_1">
      <defs>
       <path id="mb16b50f40b" d="M 0 0 
L 0 3.5 
" style="stroke: #000000; stroke-width: 0.8"/>
      </defs>
      <g>
       <use xlink:href="#mb16b50f40b" x="171.212339" y="384.48" style="stroke: #000000; stroke-width: 0.8"/>
      </g>
     </g>
     <g id="text_1">
      <!-- 610 -->
      <g transform="translate(154.033589 405.157188) scale(0.18 -0.18)">
       <defs>
        <path id="DejaVuSans-36" d="M 2113 2584 
Q 1688 2584 1439 2293 
Q 1191 2003 1191 1497 
Q 1191 994 1439 701 
Q 1688 409 2113 409 
Q 2538 409 2786 701 
Q 3034 994 3034 1497 
Q 3034 2003 2786 2293 
Q 2538 2584 2113 2584 
z
M 3366 4563 
L 3366 3988 
Q 3128 4100 2886 4159 
Q 2644 4219 2406 4219 
Q 1781 4219 1451 3797 
Q 1122 3375 1075 2522 
Q 1259 2794 1537 2939 
Q 1816 3084 2150 3084 
Q 2853 3084 3261 2657 
Q 3669 2231 3669 1497 
Q 3669 778 3244 343 
Q 2819 -91 2113 -91 
Q 1303 -91 875 529 
Q 447 1150 447 2328 
Q 447 3434 972 4092 
Q 1497 4750 2381 4750 
Q 2619 4750 2861 4703 
Q 3103 4656 3366 4563 
z
" transform="scale(0.015625)"/>
        <path id="DejaVuSans-31" d="M 794 531 
L 1825 531 
L 1825 4091 
L 703 3866 
L 703 4441 
L 1819 4666 
L 2450 4666 
L 2450 531 
L 3481 531 
L 3481 0 
L 794 0 
L 794 531 
z
" transform="scale(0.015625)"/>
        <path id="DejaVuSans-30" d="M 2034 4250 
Q 1547 4250 1301 3770 
Q 1056 3291 1056 2328 
Q 1056 1369 1301 889 
Q 1547 409 2034 409 
Q 2525 409 2770 889 
Q 3016 1369 3016 2328 
Q 3016 3291 2770 3770 
Q 2525 4250 2034 4250 
z
M 2034 4750 
Q 2819 4750 3233 4129 
Q 3647 3509 3647 2328 
Q 3647 1150 3233 529 
Q 2819 -91 2034 -91 
Q 1250 -91 836 529 
Q 422 1150 422 2328 
Q 422 3509 836 4129 
Q 1250 4750 2034 4750 
z
" transform="scale(0.015625)"/>
       </defs>
       <use xlink:href="#DejaVuSans-36"/>
       <use xlink:href="#DejaVuSans-31" x="63.623047"/>
       <use xlink:href="#DejaVuSans-30" x="127.246094"/>
      </g>
     </g>
    </g>
    <g id="xtick_2">
     <g id="line2d_2">
      <g>
       <use xlink:href="#mb16b50f40b" x="271.233529" y="384.48" style="stroke: #000000; stroke-width: 0.8"/>
      </g>
     </g>
     <g id="text_2">
      <!-- 615 -->
      <g transform="translate(254.054779 405.157188) scale(0.18 -0.18)">
       <defs>
        <path id="DejaVuSans-35" d="M 691 4666 
L 3169 4666 
L 3169 4134 
L 1269 4134 
L 1269 2991 
Q 1406 3038 1543 3061 
Q 1681 3084 1819 3084 
Q 2600 3084 3056 2656 
Q 3513 2228 3513 1497 
Q 3513 744 3044 326 
Q 2575 -91 1722 -91 
Q 1428 -91 1123 -41 
Q 819 9 494 109 
L 494 744 
Q 775 591 1075 516 
Q 1375 441 1709 441 
Q 2250 441 2565 725 
Q 2881 1009 2881 1497 
Q 2881 1984 2565 2268 
Q 2250 2553 1709 2553 
Q 1456 2553 1204 2497 
Q 953 2441 691 2322 
L 691 4666 
z
" transform="scale(0.015625)"/>
       </defs>
       <use xlink:href="#DejaVuSans-36"/>
       <use xlink:href="#DejaVuSans-31" x="63.623047"/>
       <use xlink:href="#DejaVuSans-35" x="127.246094"/>
      </g>
     </g>
    </g>
    <g id="xtick_3">
     <g id="line2d_3">
      <g>
       <use xlink:href="#mb16b50f40b" x="371.25472" y="384.48" style="stroke: #000000; stroke-width: 0.8"/>
      </g>
     </g>
     <g id="text_3">
      <!-- 620 -->
      <g transform="translate(354.07597 405.157188) scale(0.18 -0.18)">
       <defs>
        <path id="DejaVuSans-32" d="M 1228 531 
L 3431 531 
L 3431 0 
L 469 0 
L 469 531 
Q 828 903 1448 1529 
Q 2069 2156 2228 2338 
Q 2531 2678 2651 2914 
Q 2772 3150 2772 3378 
Q 2772 3750 2511 3984 
Q 2250 4219 1831 4219 
Q 1534 4219 1204 4116 
Q 875 4013 500 3803 
L 500 4441 
Q 881 4594 1212 4672 
Q 1544 4750 1819 4750 
Q 2544 4750 2975 4387 
Q 3406 4025 3406 3419 
Q 3406 3131 3298 2873 
Q 3191 2616 2906 2266 
Q 2828 2175 2409 1742 
Q 1991 1309 1228 531 
z
" transform="scale(0.015625)"/>
       </defs>
       <use xlink:href="#DejaVuSans-36"/>
       <use xlink:href="#DejaVuSans-32" x="63.623047"/>
       <use xlink:href="#DejaVuSans-30" x="127.246094"/>
      </g>
     </g>
    </g>
    <g id="xtick_4">
     <g id="line2d_4">
      <g>
       <use xlink:href="#mb16b50f40b" x="471.27591" y="384.48" style="stroke: #000000; stroke-width: 0.8"/>
      </g>
     </g>
     <g id="text_4">
      <!-- 625 -->
      <g transform="translate(454.09716 405.157188) scale(0.18 -0.18)">
       <use xlink:href="#DejaVuSans-36"/>
       <use xlink:href="#DejaVuSans-32" x="63.623047"/>
       <use xlink:href="#DejaVuSans-35" x="127.246094"/>
      </g>
     </g>
    </g>
    <g id="xtick_5">
     <g id="line2d_5">
      <g>
       <use xlink:href="#mb16b50f40b" x="571.2971" y="384.48" style="stroke: #000000; stroke-width: 0.8"/>
      </g>
     </g>
     <g id="text_5">
      <!-- 630 -->
      <g transform="translate(554.11835 405.157188) scale(0.18 -0.18)">
       <defs>
        <path id="DejaVuSans-33" d="M 2597 2516 
Q 3050 2419 3304 2112 
Q 3559 1806 3559 1356 
Q 3559 666 3084 287 
Q 2609 -91 1734 -91 
Q 1441 -91 1130 -33 
Q 819 25 488 141 
L 488 750 
Q 750 597 1062 519 
Q 1375 441 1716 441 
Q 2309 441 2620 675 
Q 2931 909 2931 1356 
Q 2931 1769 2642 2001 
Q 2353 2234 1838 2234 
L 1294 2234 
L 1294 2753 
L 1863 2753 
Q 2328 2753 2575 2939 
Q 2822 3125 2822 3475 
Q 2822 3834 2567 4026 
Q 2313 4219 1838 4219 
Q 1578 4219 1281 4162 
Q 984 4106 628 3988 
L 628 4550 
Q 988 4650 1302 4700 
Q 1616 4750 1894 4750 
Q 2613 4750 3031 4423 
Q 3450 4097 3450 3541 
Q 3450 3153 3228 2886 
Q 3006 2619 2597 2516 
z
" transform="scale(0.015625)"/>
       </defs>
       <use xlink:href="#DejaVuSans-36"/>
       <use xlink:href="#DejaVuSans-33" x="63.623047"/>
       <use xlink:href="#DejaVuSans-30" x="127.246094"/>
      </g>
     </g>
    </g>
    <g id="text_6">
     <!-- Wavelength (nm) $\pm 10$nm -->
     <g transform="translate(254.34 426.580625) scale(0.18 -0.18)">
      <defs>
       <path id="DejaVuSans-57" d="M 213 4666 
L 850 4666 
L 1831 722 
L 2809 4666 
L 3519 4666 
L 4500 722 
L 5478 4666 
L 6119 4666 
L 4947 0 
L 4153 0 
L 3169 4050 
L 2175 0 
L 1381 0 
L 213 4666 
z
" transform="scale(0.015625)"/>
       <path id="DejaVuSans-61" d="M 2194 1759 
Q 1497 1759 1228 1600 
Q 959 1441 959 1056 
Q 959 750 1161 570 
Q 1363 391 1709 391 
Q 2188 391 2477 730 
Q 2766 1069 2766 1631 
L 2766 1759 
L 2194 1759 
z
M 3341 1997 
L 3341 0 
L 2766 0 
L 2766 531 
Q 2569 213 2275 61 
Q 1981 -91 1556 -91 
Q 1019 -91 701 211 
Q 384 513 384 1019 
Q 384 1609 779 1909 
Q 1175 2209 1959 2209 
L 2766 2209 
L 2766 2266 
Q 2766 2663 2505 2880 
Q 2244 3097 1772 3097 
Q 1472 3097 1187 3025 
Q 903 2953 641 2809 
L 641 3341 
Q 956 3463 1253 3523 
Q 1550 3584 1831 3584 
Q 2591 3584 2966 3190 
Q 3341 2797 3341 1997 
z
" transform="scale(0.015625)"/>
       <path id="DejaVuSans-76" d="M 191 3500 
L 800 3500 
L 1894 563 
L 2988 3500 
L 3597 3500 
L 2284 0 
L 1503 0 
L 191 3500 
z
" transform="scale(0.015625)"/>
       <path id="DejaVuSans-65" d="M 3597 1894 
L 3597 1613 
L 953 1613 
Q 991 1019 1311 708 
Q 1631 397 2203 397 
Q 2534 397 2845 478 
Q 3156 559 3463 722 
L 3463 178 
Q 3153 47 2828 -22 
Q 2503 -91 2169 -91 
Q 1331 -91 842 396 
Q 353 884 353 1716 
Q 353 2575 817 3079 
Q 1281 3584 2069 3584 
Q 2775 3584 3186 3129 
Q 3597 2675 3597 1894 
z
M 3022 2063 
Q 3016 2534 2758 2815 
Q 2500 3097 2075 3097 
Q 1594 3097 1305 2825 
Q 1016 2553 972 2059 
L 3022 2063 
z
" transform="scale(0.015625)"/>
       <path id="DejaVuSans-6c" d="M 603 4863 
L 1178 4863 
L 1178 0 
L 603 0 
L 603 4863 
z
" transform="scale(0.015625)"/>
       <path id="DejaVuSans-6e" d="M 3513 2113 
L 3513 0 
L 2938 0 
L 2938 2094 
Q 2938 2591 2744 2837 
Q 2550 3084 2163 3084 
Q 1697 3084 1428 2787 
Q 1159 2491 1159 1978 
L 1159 0 
L 581 0 
L 581 3500 
L 1159 3500 
L 1159 2956 
Q 1366 3272 1645 3428 
Q 1925 3584 2291 3584 
Q 2894 3584 3203 3211 
Q 3513 2838 3513 2113 
z
" transform="scale(0.015625)"/>
       <path id="DejaVuSans-67" d="M 2906 1791 
Q 2906 2416 2648 2759 
Q 2391 3103 1925 3103 
Q 1463 3103 1205 2759 
Q 947 2416 947 1791 
Q 947 1169 1205 825 
Q 1463 481 1925 481 
Q 2391 481 2648 825 
Q 2906 1169 2906 1791 
z
M 3481 434 
Q 3481 -459 3084 -895 
Q 2688 -1331 1869 -1331 
Q 1566 -1331 1297 -1286 
Q 1028 -1241 775 -1147 
L 775 -588 
Q 1028 -725 1275 -790 
Q 1522 -856 1778 -856 
Q 2344 -856 2625 -561 
Q 2906 -266 2906 331 
L 2906 616 
Q 2728 306 2450 153 
Q 2172 0 1784 0 
Q 1141 0 747 490 
Q 353 981 353 1791 
Q 353 2603 747 3093 
Q 1141 3584 1784 3584 
Q 2172 3584 2450 3431 
Q 2728 3278 2906 2969 
L 2906 3500 
L 3481 3500 
L 3481 434 
z
" transform="scale(0.015625)"/>
       <path id="DejaVuSans-74" d="M 1172 4494 
L 1172 3500 
L 2356 3500 
L 2356 3053 
L 1172 3053 
L 1172 1153 
Q 1172 725 1289 603 
Q 1406 481 1766 481 
L 2356 481 
L 2356 0 
L 1766 0 
Q 1100 0 847 248 
Q 594 497 594 1153 
L 594 3053 
L 172 3053 
L 172 3500 
L 594 3500 
L 594 4494 
L 1172 4494 
z
" transform="scale(0.015625)"/>
       <path id="DejaVuSans-68" d="M 3513 2113 
L 3513 0 
L 2938 0 
L 2938 2094 
Q 2938 2591 2744 2837 
Q 2550 3084 2163 3084 
Q 1697 3084 1428 2787 
Q 1159 2491 1159 1978 
L 1159 0 
L 581 0 
L 581 4863 
L 1159 4863 
L 1159 2956 
Q 1366 3272 1645 3428 
Q 1925 3584 2291 3584 
Q 2894 3584 3203 3211 
Q 3513 2838 3513 2113 
z
" transform="scale(0.015625)"/>
       <path id="DejaVuSans-20" transform="scale(0.015625)"/>
       <path id="DejaVuSans-28" d="M 1984 4856 
Q 1566 4138 1362 3434 
Q 1159 2731 1159 2009 
Q 1159 1288 1364 580 
Q 1569 -128 1984 -844 
L 1484 -844 
Q 1016 -109 783 600 
Q 550 1309 550 2009 
Q 550 2706 781 3412 
Q 1013 4119 1484 4856 
L 1984 4856 
z
" transform="scale(0.015625)"/>
       <path id="DejaVuSans-6d" d="M 3328 2828 
Q 3544 3216 3844 3400 
Q 4144 3584 4550 3584 
Q 5097 3584 5394 3201 
Q 5691 2819 5691 2113 
L 5691 0 
L 5113 0 
L 5113 2094 
Q 5113 2597 4934 2840 
Q 4756 3084 4391 3084 
Q 3944 3084 3684 2787 
Q 3425 2491 3425 1978 
L 3425 0 
L 2847 0 
L 2847 2094 
Q 2847 2600 2669 2842 
Q 2491 3084 2119 3084 
Q 1678 3084 1418 2786 
Q 1159 2488 1159 1978 
L 1159 0 
L 581 0 
L 581 3500 
L 1159 3500 
L 1159 2956 
Q 1356 3278 1631 3431 
Q 1906 3584 2284 3584 
Q 2666 3584 2933 3390 
Q 3200 3197 3328 2828 
z
" transform="scale(0.015625)"/>
       <path id="DejaVuSans-29" d="M 513 4856 
L 1013 4856 
Q 1481 4119 1714 3412 
Q 1947 2706 1947 2009 
Q 1947 1309 1714 600 
Q 1481 -109 1013 -844 
L 513 -844 
Q 928 -128 1133 580 
Q 1338 1288 1338 2009 
Q 1338 2731 1133 3434 
Q 928 4138 513 4856 
z
" transform="scale(0.015625)"/>
       <path id="DejaVuSans-b1" d="M 2944 4013 
L 2944 2803 
L 4684 2803 
L 4684 2272 
L 2944 2272 
L 2944 1063 
L 2419 1063 
L 2419 2272 
L 678 2272 
L 678 2803 
L 2419 2803 
L 2419 4013 
L 2944 4013 
z
M 678 531 
L 4684 531 
L 4684 0 
L 678 0 
L 678 531 
z
" transform="scale(0.015625)"/>
      </defs>
      <use xlink:href="#DejaVuSans-57" transform="translate(0 0.015625)"/>
      <use xlink:href="#DejaVuSans-61" transform="translate(98.876953 0.015625)"/>
      <use xlink:href="#DejaVuSans-76" transform="translate(160.15625 0.015625)"/>
      <use xlink:href="#DejaVuSans-65" transform="translate(219.335938 0.015625)"/>
      <use xlink:href="#DejaVuSans-6c" transform="translate(280.859375 0.015625)"/>
      <use xlink:href="#DejaVuSans-65" transform="translate(308.642578 0.015625)"/>
      <use xlink:href="#DejaVuSans-6e" transform="translate(370.166016 0.015625)"/>
      <use xlink:href="#DejaVuSans-67" transform="translate(433.544922 0.015625)"/>
      <use xlink:href="#DejaVuSans-74" transform="translate(497.021484 0.015625)"/>
      <use xlink:href="#DejaVuSans-68" transform="translate(536.230469 0.015625)"/>
      <use xlink:href="#DejaVuSans-20" transform="translate(599.609375 0.015625)"/>
      <use xlink:href="#DejaVuSans-28" transform="translate(631.396484 0.015625)"/>
      <use xlink:href="#DejaVuSans-6e" transform="translate(670.410156 0.015625)"/>
      <use xlink:href="#DejaVuSans-6d" transform="translate(733.789062 0.015625)"/>
      <use xlink:href="#DejaVuSans-29" transform="translate(831.201172 0.015625)"/>
      <use xlink:href="#DejaVuSans-20" transform="translate(870.214844 0.015625)"/>
      <use xlink:href="#DejaVuSans-b1" transform="translate(902.001953 0.015625)"/>
      <use xlink:href="#DejaVuSans-31" transform="translate(985.791016 0.015625)"/>
      <use xlink:href="#DejaVuSans-30" transform="translate(1049.414062 0.015625)"/>
      <use xlink:href="#DejaVuSans-6e" transform="translate(1113.037109 0.015625)"/>
      <use xlink:href="#DejaVuSans-6d" transform="translate(1176.416016 0.015625)"/>
     </g>
    </g>
   </g>
   <g id="matplotlib.axis_2">
    <g id="ytick_1">
     <g id="line2d_6">
      <defs>
       <path id="m97fed2d216" d="M 0 0 
L -3.5 0 
" style="stroke: #000000; stroke-width: 0.8"/>
      </defs>
      <g>
       <use xlink:href="#m97fed2d216" x="90" y="365.387654" style="stroke: #000000; stroke-width: 0.8"/>
      </g>
     </g>
     <g id="text_7">
      <!-- 0.0 -->
      <g transform="translate(54.374375 372.226248) scale(0.18 -0.18)">
       <defs>
        <path id="DejaVuSans-2e" d="M 684 794 
L 1344 794 
L 1344 0 
L 684 0 
L 684 794 
z
" transform="scale(0.015625)"/>
       </defs>
       <use xlink:href="#DejaVuSans-30"/>
       <use xlink:href="#DejaVuSans-2e" x="63.623047"/>
       <use xlink:href="#DejaVuSans-30" x="95.410156"/>
      </g>
     </g>
    </g>
    <g id="ytick_2">
     <g id="line2d_7">
      <g>
       <use xlink:href="#m97fed2d216" x="90" y="305.702123" style="stroke: #000000; stroke-width: 0.8"/>
      </g>
     </g>
     <g id="text_8">
      <!-- 0.2 -->
      <g transform="translate(54.374375 312.540717) scale(0.18 -0.18)">
       <use xlink:href="#DejaVuSans-30"/>
       <use xlink:href="#DejaVuSans-2e" x="63.623047"/>
       <use xlink:href="#DejaVuSans-32" x="95.410156"/>
      </g>
     </g>
    </g>
    <g id="ytick_3">
     <g id="line2d_8">
      <g>
       <use xlink:href="#m97fed2d216" x="90" y="246.016592" style="stroke: #000000; stroke-width: 0.8"/>
      </g>
     </g>
     <g id="text_9">
      <!-- 0.4 -->
      <g transform="translate(54.374375 252.855186) scale(0.18 -0.18)">
       <defs>
        <path id="DejaVuSans-34" d="M 2419 4116 
L 825 1625 
L 2419 1625 
L 2419 4116 
z
M 2253 4666 
L 3047 4666 
L 3047 1625 
L 3713 1625 
L 3713 1100 
L 3047 1100 
L 3047 0 
L 2419 0 
L 2419 1100 
L 313 1100 
L 313 1709 
L 2253 4666 
z
" transform="scale(0.015625)"/>
       </defs>
       <use xlink:href="#DejaVuSans-30"/>
       <use xlink:href="#DejaVuSans-2e" x="63.623047"/>
       <use xlink:href="#DejaVuSans-34" x="95.410156"/>
      </g>
     </g>
    </g>
    <g id="ytick_4">
     <g id="line2d_9">
      <g>
       <use xlink:href="#m97fed2d216" x="90" y="186.331062" style="stroke: #000000; stroke-width: 0.8"/>
      </g>
     </g>
     <g id="text_10">
      <!-- 0.6 -->
      <g transform="translate(54.374375 193.169655) scale(0.18 -0.18)">
       <use xlink:href="#DejaVuSans-30"/>
       <use xlink:href="#DejaVuSans-2e" x="63.623047"/>
       <use xlink:href="#DejaVuSans-36" x="95.410156"/>
      </g>
     </g>
    </g>
    <g id="ytick_5">
     <g id="line2d_10">
      <g>
       <use xlink:href="#m97fed2d216" x="90" y="126.645531" style="stroke: #000000; stroke-width: 0.8"/>
      </g>
     </g>
     <g id="text_11">
      <!-- 0.8 -->
      <g transform="translate(54.374375 133.484125) scale(0.18 -0.18)">
       <defs>
        <path id="DejaVuSans-38" d="M 2034 2216 
Q 1584 2216 1326 1975 
Q 1069 1734 1069 1313 
Q 1069 891 1326 650 
Q 1584 409 2034 409 
Q 2484 409 2743 651 
Q 3003 894 3003 1313 
Q 3003 1734 2745 1975 
Q 2488 2216 2034 2216 
z
M 1403 2484 
Q 997 2584 770 2862 
Q 544 3141 544 3541 
Q 544 4100 942 4425 
Q 1341 4750 2034 4750 
Q 2731 4750 3128 4425 
Q 3525 4100 3525 3541 
Q 3525 3141 3298 2862 
Q 3072 2584 2669 2484 
Q 3125 2378 3379 2068 
Q 3634 1759 3634 1313 
Q 3634 634 3220 271 
Q 2806 -91 2034 -91 
Q 1263 -91 848 271 
Q 434 634 434 1313 
Q 434 1759 690 2068 
Q 947 2378 1403 2484 
z
M 1172 3481 
Q 1172 3119 1398 2916 
Q 1625 2713 2034 2713 
Q 2441 2713 2670 2916 
Q 2900 3119 2900 3481 
Q 2900 3844 2670 4047 
Q 2441 4250 2034 4250 
Q 1625 4250 1398 4047 
Q 1172 3844 1172 3481 
z
" transform="scale(0.015625)"/>
       </defs>
       <use xlink:href="#DejaVuSans-30"/>
       <use xlink:href="#DejaVuSans-2e" x="63.623047"/>
       <use xlink:href="#DejaVuSans-38" x="95.410156"/>
      </g>
     </g>
    </g>
    <g id="ytick_6">
     <g id="line2d_11">
      <g>
       <use xlink:href="#m97fed2d216" x="90" y="66.96" style="stroke: #000000; stroke-width: 0.8"/>
      </g>
     </g>
     <g id="text_12">
      <!-- 1.0 -->
      <g transform="translate(54.374375 73.798594) scale(0.18 -0.18)">
       <use xlink:href="#DejaVuSans-31"/>
       <use xlink:href="#DejaVuSans-2e" x="63.623047"/>
       <use xlink:href="#DejaVuSans-30" x="95.410156"/>
      </g>
     </g>
    </g>
    <g id="text_13">
     <!-- Relative intensity -->
     <g transform="translate(46.630938 296.333437) rotate(-90) scale(0.18 -0.18)">
      <defs>
       <path id="DejaVuSans-52" d="M 2841 2188 
Q 3044 2119 3236 1894 
Q 3428 1669 3622 1275 
L 4263 0 
L 3584 0 
L 2988 1197 
Q 2756 1666 2539 1819 
Q 2322 1972 1947 1972 
L 1259 1972 
L 1259 0 
L 628 0 
L 628 4666 
L 2053 4666 
Q 2853 4666 3247 4331 
Q 3641 3997 3641 3322 
Q 3641 2881 3436 2590 
Q 3231 2300 2841 2188 
z
M 1259 4147 
L 1259 2491 
L 2053 2491 
Q 2509 2491 2742 2702 
Q 2975 2913 2975 3322 
Q 2975 3731 2742 3939 
Q 2509 4147 2053 4147 
L 1259 4147 
z
" transform="scale(0.015625)"/>
       <path id="DejaVuSans-69" d="M 603 3500 
L 1178 3500 
L 1178 0 
L 603 0 
L 603 3500 
z
M 603 4863 
L 1178 4863 
L 1178 4134 
L 603 4134 
L 603 4863 
z
" transform="scale(0.015625)"/>
       <path id="DejaVuSans-73" d="M 2834 3397 
L 2834 2853 
Q 2591 2978 2328 3040 
Q 2066 3103 1784 3103 
Q 1356 3103 1142 2972 
Q 928 2841 928 2578 
Q 928 2378 1081 2264 
Q 1234 2150 1697 2047 
L 1894 2003 
Q 2506 1872 2764 1633 
Q 3022 1394 3022 966 
Q 3022 478 2636 193 
Q 2250 -91 1575 -91 
Q 1294 -91 989 -36 
Q 684 19 347 128 
L 347 722 
Q 666 556 975 473 
Q 1284 391 1588 391 
Q 1994 391 2212 530 
Q 2431 669 2431 922 
Q 2431 1156 2273 1281 
Q 2116 1406 1581 1522 
L 1381 1569 
Q 847 1681 609 1914 
Q 372 2147 372 2553 
Q 372 3047 722 3315 
Q 1072 3584 1716 3584 
Q 2034 3584 2315 3537 
Q 2597 3491 2834 3397 
z
" transform="scale(0.015625)"/>
       <path id="DejaVuSans-79" d="M 2059 -325 
Q 1816 -950 1584 -1140 
Q 1353 -1331 966 -1331 
L 506 -1331 
L 506 -850 
L 844 -850 
Q 1081 -850 1212 -737 
Q 1344 -625 1503 -206 
L 1606 56 
L 191 3500 
L 800 3500 
L 1894 763 
L 2988 3500 
L 3597 3500 
L 2059 -325 
z
" transform="scale(0.015625)"/>
      </defs>
      <use xlink:href="#DejaVuSans-52"/>
      <use xlink:href="#DejaVuSans-65" x="64.982422"/>
      <use xlink:href="#DejaVuSans-6c" x="126.505859"/>
      <use xlink:href="#DejaVuSans-61" x="154.289062"/>
      <use xlink:href="#DejaVuSans-74" x="215.568359"/>
      <use xlink:href="#DejaVuSans-69" x="254.777344"/>
      <use xlink:href="#DejaVuSans-76" x="282.560547"/>
      <use xlink:href="#DejaVuSans-65" x="341.740234"/>
      <use xlink:href="#DejaVuSans-20" x="403.263672"/>
      <use xlink:href="#DejaVuSans-69" x="435.050781"/>
      <use xlink:href="#DejaVuSans-6e" x="462.833984"/>
      <use xlink:href="#DejaVuSans-74" x="526.212891"/>
      <use xlink:href="#DejaVuSans-65" x="565.421875"/>
      <use xlink:href="#DejaVuSans-6e" x="626.945312"/>
      <use xlink:href="#DejaVuSans-73" x="690.324219"/>
      <use xlink:href="#DejaVuSans-69" x="742.423828"/>
      <use xlink:href="#DejaVuSans-74" x="770.207031"/>
      <use xlink:href="#DejaVuSans-79" x="809.416016"/>
     </g>
    </g>
   </g>
   <g id="line2d_12">
    <path d="M 115.363636 364.165741 
L 115.93401 362.363065 
L 116.504367 361.629729 
L 117.074707 365.204553 
L 117.64503 365.143453 
L 118.215338 367.771173 
L 118.785628 364.53242 
L 119.355902 363.615733 
L 119.92616 366.915631 
L 120.496401 369.298886 
L 121.066625 361.690734 
L 121.636833 360.621357 
L 122.207024 364.440792 
L 122.777199 363.463043 
L 123.347358 363.5547 
L 123.9175 363.768519 
L 124.487625 365.296247 
L 125.627827 365.20456 
L 126.197903 368.351723 
L 127.338007 362.362999 
L 127.908034 363.401921 
L 128.478044 365.143512 
L 129.048038 366.060088 
L 129.618016 367.282287 
L 130.757923 363.737984 
L 131.327852 365.082346 
L 131.897765 364.685132 
L 132.467661 365.143512 
L 133.607404 363.249143 
L 134.177252 363.432508 
L 135.316898 364.013021 
L 136.456478 363.493607 
L 137.595994 365.051804 
L 138.165728 362.179722 
L 138.735445 364.074143 
L 139.305147 364.899069 
L 139.874832 363.554685 
L 140.444501 364.13522 
L 141.014153 361.5075 
L 141.58379 361.1408 
L 142.15341 361.874157 
L 142.723015 363.46297 
L 143.292603 364.287969 
L 143.862175 364.80739 
L 144.431731 366.060117 
L 145.001271 363.615748 
L 145.570794 364.22687 
L 146.140302 363.310264 
L 146.709794 364.043497 
L 147.279269 363.279714 
L 147.848729 364.135213 
L 148.418172 362.638036 
L 148.9876 362.546379 
L 149.557011 363.15742 
L 150.695786 362.485118 
L 151.26515 363.524106 
L 151.834497 365.724032 
L 152.403829 362.210228 
L 152.973144 361.751914 
L 153.542444 363.829656 
L 154.111727 362.301826 
L 154.680995 365.265645 
L 155.250247 364.012962 
L 155.819483 364.990741 
L 156.388703 364.593483 
L 156.957907 369.023937 
L 157.527095 362.087962 
L 158.096268 360.590719 
L 158.665424 363.768585 
L 159.234565 363.249091 
L 159.80369 366.396195 
L 160.372799 363.43242 
L 160.941892 361.751885 
L 161.51097 361.293563 
L 162.080031 362.301848 
L 162.649077 357.810294 
L 163.218107 357.687992 
L 163.787122 364.287933 
L 164.35612 361.660206 
L 164.925103 362.240777 
L 165.49407 361.171379 
L 166.063022 362.240763 
L 167.200877 363.218563 
L 167.769781 362.943505 
L 168.907543 359.399084 
L 169.4764 359.093534 
L 170.045242 362.668534 
L 171.182878 363.55467 
L 171.751672 363.463035 
L 172.320451 363.860191 
L 172.889215 364.837991 
L 174.026695 361.568519 
L 174.595412 361.874113 
L 175.164113 363.707434 
L 176.301468 362.179685 
L 176.870123 362.668637 
L 177.438762 362.240829 
L 178.007385 363.065858 
L 178.575993 362.790799 
L 179.144586 363.951884 
L 179.713162 362.76025 
L 180.281724 362.97415 
L 180.85027 363.860213 
L 181.4188 363.67687 
L 181.987316 364.257442 
L 182.555815 363.371364 
L 183.1243 362.210286 
L 183.692768 361.751951 
L 184.261222 363.218571 
L 184.82966 363.096379 
L 185.398082 363.524135 
L 185.96649 361.751885 
L 186.534882 360.590807 
L 187.103258 363.921298 
L 187.671619 361.782471 
L 188.239965 366.121217 
L 188.808296 363.401892 
L 189.376611 362.393571 
L 189.944911 362.179692 
L 190.513195 363.951833 
L 191.649719 364.196305 
L 192.217958 364.685184 
L 192.786181 362.821313 
L 193.354389 369.36 
L 193.922583 364.135154 
L 194.49076 360.224091 
L 195.058923 360.315778 
L 195.62707 361.721371 
L 196.195203 362.576943 
L 196.76332 362.485286 
L 197.331421 362.638021 
L 197.899508 362.026848 
L 198.46758 362.515785 
L 199.035636 359.032478 
L 199.603677 356.924121 
L 201.30771 362.913058 
L 201.875691 360.865866 
L 202.443657 362.729714 
L 203.011607 362.576936 
L 203.579543 362.943585 
L 204.147463 363.065763 
L 204.715369 366.732332 
L 205.283259 360.957449 
L 205.851135 360.285213 
L 206.418995 361.476907 
L 206.986841 360.4075 
L 207.554671 361.874165 
L 208.122486 360.468593 
L 208.690287 359.521327 
L 209.258072 359.521379 
L 209.825843 359.765792 
L 210.393598 363.035169 
L 210.961339 363.096298 
L 211.529065 361.201892 
L 212.096775 359.857486 
L 212.664471 360.224077 
L 213.232152 359.674113 
L 213.799818 359.857464 
L 214.367469 359.9186 
L 214.935106 361.721379 
L 215.502727 362.51577 
L 216.070334 361.171437 
L 216.637926 361.782471 
L 217.205503 361.507515 
L 218.340612 361.476929 
L 218.908145 361.476907 
L 219.475663 359.7047 
L 220.043166 359.857478 
L 220.610654 361.110242 
L 221.178127 360.468629 
L 221.745586 361.629678 
L 222.31303 361.476899 
L 222.880459 365.662874 
L 223.447874 362.210191 
L 224.015274 362.179729 
L 224.582659 361.874135 
L 225.150029 361.1408 
L 225.717385 360.865822 
L 226.284726 359.246342 
L 226.852053 358.146364 
L 227.419364 359.338087 
L 227.986661 359.093527 
L 228.553944 360.529722 
L 229.121212 361.476907 
L 230.255704 360.957515 
L 230.822928 359.949069 
L 231.390138 360.163043 
L 232.524513 359.460235 
L 233.091679 360.376855 
L 233.65883 360.224157 
L 234.225967 361.263006 
L 234.793089 361.140756 
L 235.360197 359.124143 
L 235.927291 357.657457 
L 236.494369 357.107457 
L 237.061434 357.443586 
L 237.628484 358.299128 
L 238.195519 360.040778 
L 238.76254 358.17687 
L 239.329547 357.229649 
L 239.896539 358.451877 
L 240.463516 358.176973 
L 241.03048 361.782383 
L 241.597428 360.376892 
L 242.164363 360.651855 
L 242.731283 357.351863 
L 243.298189 358.604663 
L 243.86508 359.215763 
L 244.431957 356.710191 
L 244.99882 354.877031 
L 245.565668 354.72418 
L 246.132502 356.282523 
L 246.699322 356.893637 
L 247.832919 357.535162 
L 248.399696 357.718542 
L 248.966458 357.474099 
L 249.533207 356.740756 
L 250.099941 357.107457 
L 250.666661 356.55742 
L 251.233366 356.404685 
L 251.800058 353.92981 
L 252.366735 354.113153 
L 252.933398 356.068593 
L 253.500047 356.160257 
L 254.066682 355.213124 
L 254.633302 354.907545 
L 255.199908 356.557471 
L 255.766501 354.602002 
L 256.333079 354.235397 
L 256.899643 353.074319 
L 258.032728 356.06863 
L 258.59925 353.83819 
L 259.165757 352.341049 
L 259.732251 353.013183 
L 260.29873 354.602053 
L 261.431647 350.079979 
L 261.998084 350.782721 
L 262.564507 351.241079 
L 263.130916 349.682765 
L 263.697312 349.560565 
L 264.83006 351.577171 
L 265.962752 350.721687 
L 266.529078 354.907596 
L 267.095389 348.460639 
L 267.661686 346.688506 
L 268.22797 349.652237 
L 268.79424 348.307794 
L 269.360495 349.316137 
L 269.926737 346.10797 
L 270.492965 347.238505 
L 271.059179 344.97745 
L 271.625379 345.099737 
L 272.191565 345.038608 
L 272.757738 343.327538 
L 273.323896 342.838726 
L 273.890041 341.188792 
L 274.456172 340.974899 
L 275.588392 338.958381 
L 276.154482 342.013733 
L 276.720558 342.96091 
L 277.28662 344.519209 
L 277.852668 341.708213 
L 278.418702 339.691644 
L 278.984723 338.744547 
L 279.55073 339.111123 
L 280.116723 335.475009 
L 280.682703 332.602707 
L 281.248669 331.533308 
L 281.814621 328.997165 
L 282.38056 323.619518 
L 282.946485 322.39737 
L 283.512396 321.755625 
L 284.078293 319.861219 
L 285.775904 318.669629 
L 286.341747 321.755655 
L 286.907577 320.90009 
L 287.473393 328.599995 
L 288.039195 329.119496 
L 288.604984 329.944437 
L 289.170759 335.444474 
L 289.73652 338.958315 
L 290.302269 333.702736 
L 290.868003 333.305493 
L 291.433724 336.086109 
L 291.999432 335.261138 
L 292.565126 335.138873 
L 293.130806 334.038895 
L 293.696473 333.336057 
L 294.262127 329.852817 
L 294.827767 329.150053 
L 295.393394 325.086182 
L 295.959007 322.977898 
L 296.524607 326.247311 
L 297.090193 324.505662 
L 297.655766 320.105706 
L 298.221326 318.852957 
L 298.786872 318.944651 
L 299.352405 316.653052 
L 299.917924 317.203074 
L 300.48343 313.108734 
L 301.048923 311.275494 
L 301.614403 311.947664 
L 302.179869 311.031015 
L 302.745321 306.753324 
L 303.310761 308.494988 
L 304.4416 313.200384 
L 305.007 314.422591 
L 305.572386 316.653126 
L 306.137759 314.880926 
L 307.268465 312.314314 
L 307.833799 312.43655 
L 308.964426 318.45578 
L 309.52972 321.755625 
L 310.095 321.725076 
L 310.660267 326.063998 
L 311.225522 327.011168 
L 311.790763 330.555537 
L 312.921205 324.964005 
L 313.486407 316.317019 
L 314.051595 313.26155 
L 314.616771 306.814512 
L 315.181933 303.361755 
L 315.747082 301.253456 
L 316.877341 295.692584 
L 318.007548 297.495311 
L 318.572632 302.567349 
L 319.137703 303.942269 
L 319.702761 302.322818 
L 320.267806 299.114615 
L 320.832838 294.9593 
L 321.962862 276.137497 
L 322.527855 262.632285 
L 323.092835 256.338011 
L 323.657802 243.107909 
L 324.222756 240.694112 
L 324.787697 233.97203 
L 325.352626 235.744193 
L 325.917541 243.688525 
L 326.482443 246.591267 
L 327.047333 250.410622 
L 327.61221 262.815643 
L 328.177073 267.276589 
L 328.741924 273.357131 
L 329.306762 271.187769 
L 329.871588 273.173788 
L 330.4364 272.287725 
L 331.001199 273.265386 
L 331.565986 271.64598 
L 332.13076 272.257123 
L 332.695521 270.729462 
L 333.26027 271.432153 
L 333.825005 271.309953 
L 334.389728 268.040606 
L 334.954438 259.63796 
L 336.08382 249.707777 
L 336.648492 240.663518 
L 337.213152 237.271913 
L 337.777798 235.438702 
L 338.342432 236.538628 
L 338.907053 245.949581 
L 339.471662 250.654991 
L 340.036257 264.190592 
L 340.600841 269.782109 
L 341.165411 277.481933 
L 341.729969 280.353971 
L 342.294514 282.61507 
L 342.859047 276.320848 
L 343.423567 272.868135 
L 344.552569 261.715702 
L 345.117052 255.329808 
L 345.681522 245.460615 
L 346.245979 240.510666 
L 346.810423 231.802529 
L 347.374856 230.427573 
L 347.939275 224.377742 
L 348.503682 223.033372 
L 349.068077 221.077844 
L 349.632459 222.48335 
L 350.196829 226.058284 
L 350.761186 235.377462 
L 351.325531 238.982954 
L 351.889863 251.541098 
L 352.454183 251.480042 
L 353.582785 243.780285 
L 354.147068 238.799632 
L 354.711338 222.819509 
L 355.275596 211.758593 
L 355.839841 198.467391 
L 356.404074 194.311893 
L 356.968295 196.359136 
L 357.532503 194.281394 
L 358.096699 196.939744 
L 358.660883 195.809224 
L 359.225054 197.336958 
L 359.789213 196.970382 
L 360.35336 198.834158 
L 360.917494 197.00091 
L 361.481617 198.345309 
L 362.045726 201.553557 
L 362.609824 201.431328 
L 363.173909 206.442171 
L 363.737983 212.644802 
L 364.302044 221.62783 
L 364.866092 239.258173 
L 365.430129 247.110827 
L 365.994153 259.882432 
L 366.558165 259.149074 
L 367.122165 253.679874 
L 367.686153 243.59681 
L 368.250128 224.469479 
L 368.814092 216.708468 
L 369.378043 212.461357 
L 369.941982 202.928512 
L 370.505909 201.798029 
L 371.069824 202.011892 
L 371.633727 202.806262 
L 372.197618 212.919773 
L 372.761496 214.325213 
L 373.325363 218.144626 
L 373.889217 206.16731 
L 374.45306 199.506438 
L 375.01689 188.720419 
L 375.580709 185.11495 
L 376.144515 149.763156 
L 376.70831 141.788339 
L 377.272092 123.852783 
L 378.399621 105.703217 
L 378.963367 117.527945 
L 379.527102 124.219462 
L 380.090824 160.121212 
L 380.654535 166.079394 
L 381.218233 173.992898 
L 381.78192 179.126109 
L 382.345595 192.295236 
L 383.472909 212.828021 
L 384.036548 235.408122 
L 384.600175 243.444075 
L 385.163791 223.980572 
L 385.727394 209.894876 
L 386.290986 160.090817 
L 386.854566 130.819308 
L 387.418134 88.592638 
L 387.98169 74.751385 
L 388.545235 66.96 
L 389.108767 93.084038 
L 389.672288 101.181025 
L 390.235797 148.021448 
L 390.799295 147.349373 
L 391.36278 156.179805 
L 391.926254 152.574336 
L 392.489716 150.802027 
L 393.053167 150.954893 
L 393.616605 151.50482 
L 394.180032 173.931857 
L 394.743448 180.745544 
L 395.306851 215.853035 
L 395.870243 216.158585 
L 396.433624 218.572397 
L 396.996992 200.208989 
L 397.560349 185.817685 
L 398.123695 148.082511 
L 398.687028 136.318919 
L 399.250351 150.252027 
L 399.813661 154.682466 
L 400.37696 179.615097 
L 400.940247 187.192758 
L 401.503523 200.911936 
L 402.066788 194.159187 
L 402.63004 190.309188 
L 403.193281 176.315127 
L 403.756511 174.115222 
L 404.319729 167.607099 
L 404.882936 176.070764 
L 405.446131 207.939326 
L 407.135647 258.354617 
L 407.698796 265.565496 
L 408.261934 269.965445 
L 408.82506 271.920921 
L 409.388175 284.937225 
L 409.951279 284.50941 
L 410.514371 285.517724 
L 411.64052 280.873501 
L 412.766625 287.25941 
L 413.32966 295.662071 
L 413.892684 293.584381 
L 414.455696 292.14831 
L 415.018697 278.673553 
L 415.581687 258.293576 
L 416.144665 255.36035 
L 416.707633 255.788136 
L 417.270588 279.406735 
L 417.833533 285.364923 
L 418.396466 283.776089 
L 418.959388 277.909565 
L 419.522299 265.870995 
L 420.085199 267.887688 
L 421.210964 272.929242 
L 421.77383 274.059814 
L 422.336685 294.0121 
L 422.899528 297.434241 
L 423.462361 311.764343 
L 424.025182 316.836439 
L 424.587992 330.738844 
L 425.713578 331.563814 
L 426.276355 335.994459 
L 426.83912 339.44723 
L 427.964618 338.62226 
L 428.52735 344.763638 
L 429.090071 344.18308 
L 429.652781 344.916394 
L 430.21548 344.396937 
L 430.778168 344.88583 
L 431.340845 348.704994 
L 431.90351 349.560565 
L 432.466165 350.17168 
L 433.028809 349.163329 
L 434.154063 347.91061 
L 434.716674 350.507772 
L 435.279274 349.224444 
L 435.841863 349.163373 
L 436.404441 351.607699 
L 436.967008 351.057728 
L 437.529564 352.616027 
L 438.092109 353.013219 
L 438.654643 354.69371 
L 439.217166 354.265976 
L 439.779679 355.488197 
L 440.34218 354.235375 
L 440.904671 354.602024 
L 441.467151 352.493791 
L 442.02962 350.996621 
L 442.592078 354.296533 
L 443.154525 354.418681 
L 443.716961 354.41874 
L 444.841802 353.135485 
L 445.404206 353.50209 
L 445.966599 354.388205 
L 446.528982 357.076936 
L 447.091353 354.907625 
L 447.653714 351.332772 
L 448.216065 352.982618 
L 448.778404 357.351907 
L 449.340733 356.618593 
L 449.903051 356.954715 
L 450.465358 358.237962 
L 451.027655 356.557611 
L 452.152216 354.999231 
L 452.714481 359.399113 
L 453.276735 356.771386 
L 453.838978 356.282508 
L 454.401211 356.771401 
L 454.963433 359.154671 
L 455.525644 359.368542 
L 456.087845 357.932486 
L 456.650036 358.635184 
L 457.212215 357.290851 
L 457.774384 359.765792 
L 458.336543 358.024128 
L 458.898691 361.079685 
L 459.460828 357.59632 
L 460.022955 358.390734 
L 460.585072 359.88797 
L 461.147178 357.871328 
L 461.709273 358.543512 
L 462.271358 358.024113 
L 463.395496 356.649135 
L 463.95755 357.71852 
L 464.519593 358.51297 
L 465.081626 358.115756 
L 465.643648 360.499113 
L 466.767661 358.024084 
L 467.329652 358.360228 
L 467.891632 360.040807 
L 468.453602 360.651877 
L 469.015562 362.668549 
L 469.577512 360.83522 
L 470.139451 358.604722 
L 470.701379 359.949113 
L 471.825206 360.804707 
L 472.387104 359.88805 
L 472.948991 359.979663 
L 473.510868 359.613043 
L 474.072735 360.83522 
L 474.634592 362.485242 
L 475.758274 361.201855 
L 476.3201 359.949143 
L 476.881915 361.66022 
L 477.443721 360.926951 
L 478.005516 359.888014 
L 478.567301 361.904744 
L 479.129076 361.476929 
L 479.69084 360.162992 
L 480.252595 360.254641 
L 480.814339 362.149069 
L 481.376073 362.515799 
L 482.499511 362.607471 
L 483.061215 362.546305 
L 483.622908 360.010213 
L 484.184592 358.115756 
L 484.746265 363.340733 
L 485.307928 362.393578 
L 485.869582 361.72132 
L 486.431225 360.621371 
L 486.992858 361.843549 
L 487.554481 360.987984 
L 488.116094 360.59077 
L 488.677697 362.546313 
L 489.23929 361.049179 
L 489.800873 362.393578 
L 490.362446 361.75198 
L 490.924009 361.996342 
L 491.485562 362.882522 
L 492.047105 363.493615 
L 493.170162 360.254656 
L 493.731675 359.246342 
L 494.293178 357.596372 
L 494.854672 360.315763 
L 495.416155 360.77415 
L 495.977629 362.515821 
L 496.539093 362.974157 
L 497.100547 364.257405 
L 497.661991 363.15742 
L 498.223425 361.537955 
L 498.784849 364.53239 
L 499.346264 363.707456 
L 499.907668 362.637992 
L 500.469063 360.376921 
L 501.030448 360.621327 
L 501.591823 362.088072 
L 502.153189 364.074069 
L 502.714544 361.476907 
L 503.27589 359.735286 
L 503.837227 361.599135 
L 504.398553 361.537977 
L 504.95987 363.31014 
L 505.521177 362.454692 
L 506.082474 361.965755 
L 506.643762 361.965785 
L 507.766308 360.651899 
L 508.327566 360.926943 
L 508.888815 361.660242 
L 509.450054 361.996401 
L 510.011284 363.03522 
L 510.572504 361.96577 
L 511.133714 361.812933 
L 511.694914 365.662896 
L 512.256106 363.493541 
L 512.817287 363.951862 
L 513.378459 362.607449 
L 514.500774 361.324172 
L 515.061917 361.049113 
L 516.184175 363.615726 
L 516.74529 367.282265 
L 517.306395 364.960096 
L 517.86749 359.735198 
L 518.428576 360.560228 
L 518.989653 363.921291 
L 519.55072 362.790697 
L 520.111778 364.440719 
L 520.672826 363.401826 
L 521.233865 362.60742 
L 521.794894 360.499121 
L 522.355914 359.429693 
L 522.916924 361.324121 
L 523.477926 361.415778 
L 524.038917 361.904648 
L 524.5999 363.371291 
L 525.160873 366.060125 
L 525.721836 364.837947 
L 526.28279 361.721364 
L 526.843735 361.782449 
L 527.404671 360.254671 
L 527.965597 359.85742 
L 529.087421 362.057368 
L 529.64832 364.287874 
L 530.209209 364.899062 
L 530.770089 363.371313 
L 531.330959 360.865785 
L 531.89182 361.813006 
L 533.013515 359.857427 
L 533.574349 360.499055 
L 534.135173 359.857442 
L 534.695988 364.257434 
L 535.256794 363.340748 
L 535.817591 362.699172 
L 536.378378 361.415888 
L 536.939157 361.660235 
L 537.499926 360.499143 
L 538.060686 360.437999 
L 538.621437 362.3325 
L 539.182179 362.546342 
L 539.742911 363.40187 
L 540.303635 362.454604 
L 540.86435 363.73794 
L 541.425055 364.074106 
L 541.985751 364.990726 
L 542.546439 364.135132 
L 543.107117 365.296239 
L 543.667786 362.7297 
L 544.789097 365.571225 
L 545.349739 364.715726 
L 545.910373 365.632368 
L 546.470997 363.096276 
L 547.031612 361.293527 
L 547.592218 362.149099 
L 548.152815 363.860125 
L 548.713403 362.45467 
L 549.273983 362.546313 
L 549.834553 361.44632 
L 550.395115 362.149143 
L 550.955667 364.318483 
L 551.516211 363.218541 
L 552.076745 363.676818 
L 552.637271 363.157405 
L 553.197788 363.34077 
L 553.758296 364.440726 
L 554.318796 362.607464 
L 554.879286 364.379619 
L 555.439768 362.668534 
L 556.00024 360.437962 
L 557.121159 362.974106 
L 557.681606 363.157464 
L 558.242043 364.410184 
L 558.802472 364.837984 
L 559.362892 362.026855 
L 559.923303 360.132449 
L 560.483706 361.59915 
L 561.0441 362.179634 
L 561.604485 361.904729 
L 562.164861 362.974187 
L 562.725229 363.768563 
L 563.285588 364.196298 
L 563.845938 363.126855 
L 564.406279 361.660242 
L 564.966612 362.515755 
L 566.087252 366.548988 
L 566.647559 363.524091 
L 567.207857 362.668571 
L 567.768147 365.112955 
L 568.328428 363.065807 
L 568.888701 365.47956 
L 569.448965 363.829619 
L 570.00922 361.568571 
L 570.569467 363.279582 
L 571.129705 365.968483 
L 571.689935 364.776848 
L 572.250156 364.929604 
L 572.810369 360.743549 
L 573.370573 360.499172 
L 573.930768 361.813021 
L 574.490956 361.568585 
L 575.051134 362.332493 
L 575.611304 362.546386 
L 576.171466 363.707398 
L 576.731619 363.676899 
L 577.291764 363.493505 
L 577.851901 361.079663 
L 578.412028 361.446335 
L 578.972148 363.951848 
L 579.532259 362.179707 
L 580.092362 362.363014 
L 580.652456 364.624047 
L 581.212542 365.204546 
L 581.77262 363.096291 
L 582.332689 362.088043 
L 582.89275 364.440711 
L 583.452802 365.876782 
L 584.012847 363.707412 
L 584.572883 363.40187 
L 585.13291 364.379634 
L 585.69293 362.913058 
L 586.252941 364.746276 
L 586.812943 364.07404 
L 587.372938 362.026921 
L 587.932924 363.340785 
L 588.492902 363.126818 
L 589.052872 364.318527 
L 589.612833 364.746247 
L 590.172787 364.715748 
L 591.852597 361.385198 
L 592.412518 359.857478 
L 592.97243 366.182332 
L 594.092231 362.088014 
L 594.652119 363.096386 
L 595.211998 363.432376 
L 595.77187 364.37959 
L 596.331734 361.813065 
L 596.891589 362.760242 
L 597.451437 362.149157 
L 598.011276 363.646342 
L 598.571107 362.393549 
L 599.13093 361.874121 
L 599.690746 362.91305 
L 600.250553 363.707434 
L 601.370143 364.379582 
L 601.929926 362.485198 
L 603.049468 362.637999 
L 603.609227 362.149179 
L 604.168979 362.729707 
L 604.728722 361.965755 
L 605.288457 361.41577 
L 605.848184 362.51577 
L 606.407904 361.751958 
L 606.967615 363.249106 
L 607.527319 362.729722 
L 608.087015 365.143468 
L 608.646702 361.751914 
L 609.206382 362.271335 
L 609.766054 362.240807 
L 610.325719 360.6825 
L 610.885375 362.17967 
L 611.445023 362.1186 
L 612.004664 363.737925 
L 612.564297 361.813094 
L 613.123922 363.737991 
L 613.683539 364.410191 
L 614.243149 364.532434 
L 615.362345 363.0047 
L 615.921931 365.265711 
L 616.481509 364.746247 
L 617.04108 364.593505 
L 617.600643 361.171313 
L 618.160198 359.765785 
L 618.719746 362.454648 
L 619.279286 362.485154 
L 619.838818 368.473937 
L 620.398342 365.051789 
L 620.957859 362.607471 
L 621.517368 362.576906 
L 622.07687 363.58522 
L 622.636364 364.043483 
L 622.636364 364.043483 
" clip-path="url(#pf49e3a9001)" style="fill: none; stroke: #1f77b4; stroke-width: 1.5; stroke-linecap: square"/>
   </g>
   <g id="line2d_13">
    <path d="M 115.363636 365.387654 
L 115.93401 364.073761 
L 116.504367 363.309854 
L 117.074707 365.540396 
L 117.64503 364.868153 
L 118.215338 364.77654 
L 118.785628 363.126598 
L 119.355902 363.737676 
L 119.92616 363.248798 
L 120.496401 364.898739 
L 121.066625 363.27937 
L 121.636833 363.09599 
L 122.207024 360.193409 
L 122.777199 363.034949 
L 123.347358 367.068094 
L 123.9175 361.629414 
L 124.487625 359.857339 
L 125.057734 361.81272 
L 125.627827 360.804458 
L 126.197903 365.570961 
L 126.767963 363.523761 
L 127.338007 363.58489 
L 127.908034 362.821005 
L 128.478044 362.851613 
L 129.048038 364.104355 
L 129.618016 366.884751 
L 130.187978 360.254517 
L 130.757923 358.940704 
L 131.327852 364.379289 
L 131.897765 362.698849 
L 132.467661 362.576577 
L 133.037541 360.712764 
L 133.607404 363.034971 
L 134.177252 359.307332 
L 134.747083 360.07121 
L 135.316898 361.904421 
L 135.886696 360.040565 
L 136.456478 359.368483 
L 137.026245 359.582251 
L 137.595994 361.751643 
L 138.165728 361.384978 
L 138.735445 361.507236 
L 139.305147 363.768263 
L 140.444501 359.887867 
L 141.014153 359.093454 
L 141.58379 363.584905 
L 142.15341 361.659971 
L 142.723015 362.026628 
L 143.292603 360.98775 
L 144.431731 363.462676 
L 145.001271 361.11 
L 145.570794 361.110022 
L 146.140302 360.560015 
L 146.709794 361.293329 
L 147.848729 365.448732 
L 148.418172 361.507214 
L 148.9876 362.546078 
L 149.557011 362.515565 
L 150.126407 360.529429 
L 150.695786 362.729384 
L 151.26515 361.996078 
L 151.834497 363.52382 
L 152.403829 361.843285 
L 152.973144 364.104355 
L 153.542444 360.407258 
L 154.111727 360.590594 
L 154.680995 361.66 
L 155.250247 361.293314 
L 155.819483 362.484971 
L 156.388703 361.384986 
L 156.957907 362.21 
L 157.527095 358.360162 
L 158.096268 359.337918 
L 158.665424 362.546049 
L 159.234565 360.957251 
L 159.80369 365.112603 
L 160.372799 362.179399 
L 160.941892 361.385052 
L 162.080031 361.721093 
L 162.649077 362.332178 
L 163.218107 363.371027 
L 163.787122 360.835022 
L 164.35612 360.712786 
L 164.925103 360.712808 
L 165.49407 360.376731 
L 166.063022 361.476687 
L 166.631957 360.040594 
L 167.200877 362.087764 
L 167.769781 360.16286 
L 168.33867 359.15459 
L 168.907543 360.285088 
L 169.4764 358.818476 
L 170.045242 361.873901 
L 170.614067 361.537764 
L 171.182878 361.904428 
L 171.751672 360.834978 
L 172.320451 361.62945 
L 172.889215 360.254539 
L 173.457963 359.58231 
L 174.026695 363.61544 
L 174.595412 362.179384 
L 175.164113 358.971261 
L 175.732798 361.629472 
L 176.301468 362.698842 
L 176.870123 361.873849 
L 177.438762 361.721093 
L 178.007385 361.140594 
L 178.575993 359.001753 
L 179.144586 359.124033 
L 179.713162 360.529443 
L 180.281724 362.393314 
L 180.85027 362.271027 
L 181.4188 362.912757 
L 181.987316 358.971276 
L 182.555815 357.993556 
L 183.1243 361.385059 
L 183.692768 359.765609 
L 184.261222 360.132354 
L 184.82966 359.49066 
L 185.398082 360.10176 
L 185.96649 358.512926 
L 186.534882 360.193417 
L 187.103258 363.982126 
L 187.671619 362.209964 
L 188.239965 363.279392 
L 188.808296 359.796181 
L 189.376611 361.110066 
L 189.944911 359.490675 
L 190.513195 359.735147 
L 191.081465 358.910132 
L 191.649719 360.712823 
L 192.217958 360.987823 
L 192.786181 360.773908 
L 193.354389 358.574047 
L 193.922583 358.512926 
L 194.49076 359.521261 
L 195.058923 357.810213 
L 196.195203 360.865602 
L 196.76332 359.460103 
L 197.331421 360.315616 
L 197.899508 358.146291 
L 198.46758 359.215719 
L 199.035636 359.185096 
L 199.603677 361.934949 
L 200.171703 358.818483 
L 200.739714 360.193453 
L 201.30771 360.071203 
L 201.875691 359.674003 
L 202.443657 359.124069 
L 203.011607 358.054634 
L 203.579543 358.085228 
L 204.147463 358.451826 
L 204.715369 360.34621 
L 205.283259 358.604583 
L 205.851135 359.612874 
L 206.418995 359.032347 
L 206.986841 356.068622 
L 207.554671 357.932413 
L 208.122486 356.649157 
L 208.690287 356.007537 
L 209.258072 356.374194 
L 210.393598 359.154583 
L 210.961339 358.940719 
L 211.529065 360.560037 
L 212.096775 358.146254 
L 212.664471 361.354472 
L 213.232152 358.054641 
L 213.799818 358.115756 
L 214.367469 357.229685 
L 214.935106 357.596372 
L 215.502727 358.849062 
L 216.070334 357.321335 
L 216.637926 358.024121 
L 217.205503 356.618622 
L 217.773065 357.199143 
L 218.340612 356.924157 
L 218.908145 357.626936 
L 219.475663 355.365873 
L 220.043166 355.182603 
L 220.610654 356.832471 
L 221.745586 353.59374 
L 222.31303 354.693703 
L 222.880459 356.710272 
L 223.447874 355.243688 
L 224.015274 356.404715 
L 224.582659 356.954634 
L 225.150029 354.235316 
L 225.717385 356.588058 
L 226.284726 354.846452 
L 226.852053 354.938109 
L 227.419364 354.754788 
L 227.986661 355.73253 
L 228.553944 354.663131 
L 229.121212 355.152009 
L 229.688465 355.885294 
L 230.255704 355.457523 
L 230.822928 357.840814 
L 231.390138 356.832508 
L 231.957333 361.201679 
L 232.524513 357.687984 
L 233.091679 356.221379 
L 233.65883 352.799363 
L 234.225967 353.899297 
L 234.793089 354.754817 
L 235.927291 352.829883 
L 236.494369 353.318776 
L 237.061434 353.410426 
L 237.628484 353.807647 
L 238.195519 353.746496 
L 238.76254 357.474135 
L 239.329547 356.863043 
L 239.896539 354.571467 
L 240.463516 354.204825 
L 241.03048 355.457581 
L 241.597428 354.602053 
L 242.164363 353.257662 
L 242.731283 354.021445 
L 243.298189 356.404737 
L 243.86508 351.791027 
L 244.431957 350.660551 
L 244.99882 353.471504 
L 245.565668 351.913307 
L 246.132502 351.516042 
L 246.699322 351.332757 
L 247.266128 350.385448 
L 247.832919 350.324407 
L 248.399696 350.110448 
L 248.966458 349.315998 
L 249.533207 347.727105 
L 250.099941 351.332706 
L 250.666661 349.254986 
L 251.233366 349.132699 
L 251.800058 349.193879 
L 252.366735 350.141049 
L 252.933398 347.543769 
L 253.500047 346.474334 
L 254.066682 350.141071 
L 255.199908 348.24657 
L 255.766501 347.971592 
L 256.333079 348.918835 
L 256.899643 347.574429 
L 257.466192 347.849349 
L 258.032728 346.840961 
L 258.59925 345.588227 
L 259.165757 346.932655 
L 259.732251 345.557684 
L 260.29873 347.421585 
L 260.865195 348.490925 
L 261.431647 350.446533 
L 261.998084 343.113293 
L 262.564507 342.257692 
L 263.130916 344.732648 
L 263.697312 344.427076 
L 264.263693 346.290969 
L 264.83006 345.465976 
L 265.396413 343.846555 
L 265.962752 343.266064 
L 266.529078 345.221504 
L 267.095389 344.243733 
L 267.661686 342.288256 
L 268.22797 343.785463 
L 268.79424 341.799407 
L 269.360495 337.552208 
L 269.926737 339.079994 
L 270.492965 343.113161 
L 271.059179 341.768799 
L 271.625379 342.22712 
L 272.191565 340.729987 
L 273.323896 335.68833 
L 273.890041 336.482787 
L 274.456172 338.316064 
L 275.022289 338.224422 
L 275.588392 338.682751 
L 276.154482 334.130002 
L 276.720558 335.138323 
L 277.28662 339.416086 
L 278.418702 336.635559 
L 279.55073 341.799378 
L 280.116723 335.47443 
L 280.682703 333.335588 
L 281.248669 332.449525 
L 281.814621 331.777274 
L 282.38056 332.052296 
L 282.946485 331.563411 
L 283.512396 333.518917 
L 284.078293 333.030068 
L 284.644177 332.021783 
L 285.210048 332.357898 
L 285.775904 335.199488 
L 286.341747 328.508015 
L 286.907577 325.727597 
L 287.473393 330.769078 
L 289.170759 327.774731 
L 289.73652 327.010838 
L 290.302269 325.849753 
L 290.868003 326.735882 
L 291.433724 324.413748 
L 291.999432 323.435985 
L 292.565126 324.78042 
L 293.696473 322.244372 
L 294.262127 322.824914 
L 294.827767 323.099922 
L 295.959007 322.061043 
L 296.524607 324.077656 
L 297.090193 322.366534 
L 297.655766 319.983235 
L 298.221326 320.655493 
L 298.786872 323.894254 
L 299.352405 323.344328 
L 299.917924 324.077656 
L 301.048923 319.127781 
L 301.614403 323.527649 
L 302.179869 321.694386 
L 302.745321 320.53336 
L 303.310761 320.86943 
L 303.876187 320.869372 
L 304.4416 317.997158 
L 305.007 318.333287 
L 305.572386 319.280516 
L 306.137759 317.599988 
L 306.703119 318.333258 
L 307.268465 316.683272 
L 307.833799 316.255472 
L 308.399119 316.31663 
L 308.964426 316.530494 
L 309.52972 316.469409 
L 310.095 316.041645 
L 310.660267 317.050002 
L 311.225522 315.399951 
L 311.790763 316.744372 
L 312.355991 315.552722 
L 312.921205 315.827744 
L 313.486407 314.055567 
L 314.051595 314.483368 
L 314.616771 317.569387 
L 315.181933 316.072246 
L 315.747082 313.963984 
L 316.312218 313.352825 
L 316.877341 313.902789 
L 317.442451 313.81111 
L 318.007548 313.475061 
L 318.572632 310.266887 
L 319.137703 309.80861 
L 319.702761 309.839108 
L 320.267806 308.891953 
L 320.832838 309.197525 
L 321.397857 308.616946 
L 321.962862 309.991872 
L 323.092835 302.719886 
L 323.657802 304.308867 
L 324.222756 305.22545 
L 324.787697 300.733808 
L 325.352626 299.236572 
L 326.482443 297.403207 
L 327.047333 298.350407 
L 327.61221 296.608757 
L 328.177073 296.883852 
L 328.741924 297.372679 
L 329.306762 295.90603 
L 329.871588 298.41158 
L 330.4364 295.783904 
L 331.001199 293.767291 
L 331.565986 293.431206 
L 332.13076 295.631103 
L 332.695521 295.600517 
L 333.26027 296.181155 
L 333.825005 291.139615 
L 334.389728 289.275774 
L 334.954438 292.728479 
L 335.519136 290.314593 
L 336.08382 290.681279 
L 336.648492 289.092423 
L 337.213152 290.039659 
L 337.777798 291.231287 
L 338.342432 290.8646 
L 338.907053 290.131294 
L 340.036257 286.586947 
L 340.600841 285.120422 
L 341.165411 285.150979 
L 341.729969 286.586969 
L 342.294514 288.359139 
L 342.859047 288.909065 
L 343.423567 286.678611 
L 343.988075 288.84801 
L 345.117052 286.556463 
L 345.681522 285.36485 
L 346.245979 286.434212 
L 346.810423 284.448245 
L 347.374856 284.601008 
L 347.939275 281.912101 
L 348.503682 280.537116 
L 349.068077 280.048179 
L 349.632459 277.145496 
L 350.196829 275.923318 
L 350.761186 276.96216 
L 351.325531 278.642746 
L 351.889863 273.937255 
L 353.01849 271.462351 
L 353.582785 271.890093 
L 354.147068 274.548392 
L 354.711338 276.106625 
L 355.839841 282.767709 
L 356.404074 284.417599 
L 356.968295 284.295473 
L 357.532503 281.423223 
L 358.096699 281.423223 
L 358.660883 281.545466 
L 359.225054 282.46213 
L 359.789213 278.276067 
L 360.35336 276.901082 
L 360.917494 271.981786 
L 361.481617 271.981786 
L 362.045726 273.020657 
L 362.609824 271.431786 
L 363.173909 270.423509 
L 364.302044 271.890115 
L 364.866092 275.526082 
L 365.430129 276.198282 
L 365.994153 280.200994 
L 366.558165 280.934381 
L 367.122165 277.939902 
L 367.686153 277.389916 
L 368.250128 279.773215 
L 369.378043 272.104088 
L 369.941982 273.203971 
L 370.505909 273.204 
L 371.069824 274.212299 
L 371.633727 272.165115 
L 372.197618 275.159513 
L 372.761496 275.190019 
L 373.325363 276.28999 
L 373.889217 273.967842 
L 374.45306 274.090085 
L 375.01689 271.920679 
L 375.580709 271.767945 
L 376.144515 272.440122 
L 376.70831 271.217945 
L 377.272092 272.806771 
L 377.835862 271.126236 
L 378.399621 270.942923 
L 378.963367 274.914997 
L 379.527102 276.748304 
L 380.090824 282.095459 
L 380.654535 281.637123 
L 381.218233 285.395444 
L 381.78192 282.462094 
L 382.345595 280.200943 
L 382.909258 279.803729 
L 384.036548 280.292688 
L 384.600175 281.362079 
L 385.163791 282.125957 
L 385.727394 278.948303 
L 386.290986 277.053817 
L 386.854566 276.626089 
L 387.418134 278.826089 
L 387.98169 278.673303 
L 388.545235 279.162123 
L 389.108767 278.398215 
L 389.672288 279.101009 
L 390.235797 283.195466 
L 390.799295 281.973274 
L 391.36278 282.98158 
L 391.926254 282.828816 
L 392.489716 282.981522 
L 393.053167 284.051016 
L 393.616605 285.609242 
L 394.180032 288.114674 
L 394.743448 287.656434 
L 395.306851 289.336917 
L 395.870243 289.031338 
L 396.433624 292.697914 
L 396.996992 291.628479 
L 397.560349 291.322958 
L 398.123695 291.5368 
L 398.687028 292.422885 
L 399.250351 293.034014 
L 399.813661 291.445136 
L 400.37696 294.80614 
L 400.940247 293.33952 
L 401.503523 293.247907 
L 402.066788 294.867152 
L 402.63004 297.617181 
L 403.193281 293.675597 
L 403.756511 295.478347 
L 404.319729 300.611536 
L 404.882936 299.358794 
L 405.446131 300.48938 
L 406.009314 300.764373 
L 406.572486 301.436535 
L 407.135647 307.089277 
L 407.698796 307.578126 
L 408.261934 308.830853 
L 408.82506 307.975333 
L 409.388175 311.275179 
L 409.951279 308.250289 
L 410.514371 310.053023 
L 411.077451 309.380802 
L 411.64052 309.839145 
L 412.766625 313.902855 
L 413.32966 315.705494 
L 413.892684 313.291711 
L 414.455696 317.233265 
L 415.018697 316.255538 
L 415.581687 316.34718 
L 416.144665 318.088932 
L 416.707633 318.394416 
L 417.270588 318.944482 
L 417.833533 320.044445 
L 418.396466 321.694445 
L 418.959388 320.991674 
L 419.522299 323.313763 
L 420.085199 322.580486 
L 420.648087 322.855479 
L 421.77383 327.56086 
L 422.336685 331.044019 
L 422.899528 329.607993 
L 423.462361 327.316424 
L 424.025182 327.713616 
L 424.587992 332.968983 
L 425.150791 331.807832 
L 425.713578 331.899599 
L 426.83912 334.130016 
L 427.401875 336.452238 
L 427.964618 334.405046 
L 428.52735 335.321717 
L 429.090071 334.374452 
L 429.652781 335.963352 
L 430.21548 338.132839 
L 430.778168 341.524341 
L 431.340845 338.743909 
L 431.90351 338.621658 
L 432.466165 340.363322 
L 433.028809 339.171717 
L 433.591442 338.83561 
L 434.154063 341.066094 
L 434.716674 342.80767 
L 435.279274 342.77712 
L 435.841863 343.754877 
L 436.404441 347.604898 
L 437.529564 345.465947 
L 438.092109 345.86322 
L 438.654643 345.985456 
L 439.217166 346.780045 
L 439.779679 350.966086 
L 440.34218 345.771643 
L 440.904671 345.252098 
L 441.467151 346.199422 
L 442.02962 344.457736 
L 442.592078 345.252179 
L 443.154525 346.413278 
L 443.716961 348.674378 
L 444.841802 348.888285 
L 445.404206 348.491115 
L 446.528982 348.613256 
L 447.091353 348.8272 
L 447.653714 353.532611 
L 448.216065 352.952127 
L 448.778404 352.86047 
L 449.340733 351.363373 
L 449.903051 350.813278 
L 450.465358 353.715961 
L 451.027655 352.279913 
L 451.589941 349.254928 
L 452.152216 350.202215 
L 452.714481 353.043791 
L 453.276735 352.127193 
L 453.838978 352.921548 
L 454.401211 353.288212 
L 454.963433 353.807633 
L 455.525644 356.832471 
L 456.650036 353.227098 
L 457.212215 352.738249 
L 457.774384 354.418696 
L 458.336543 354.204817 
L 458.898691 354.204854 
L 459.460828 353.624209 
L 460.022955 352.768732 
L 460.585072 355.976987 
L 461.147178 354.17426 
L 461.709273 356.129729 
L 462.271358 356.190829 
L 462.833432 357.19915 
L 463.395496 355.396416 
L 463.95755 355.488087 
L 464.519593 354.663087 
L 465.081626 353.043754 
L 465.643648 356.129737 
L 466.205659 354.235309 
L 466.767661 361.079458 
L 467.329652 356.343608 
L 467.891632 355.763087 
L 469.015562 358.48242 
L 470.139451 355.732523 
L 470.701379 359.521276 
L 471.263298 357.840734 
L 472.387104 357.260213 
L 472.948991 359.948959 
L 473.510868 356.801921 
L 474.072735 357.138014 
L 474.634592 355.151973 
L 475.196438 354.296423 
L 475.758274 359.032383 
L 476.3201 357.718542 
L 476.881915 359.704568 
L 477.443721 354.265851 
L 478.005516 351.240976 
L 478.567301 355.365888 
L 479.129076 356.679722 
L 479.69084 358.910169 
L 480.252595 358.451811 
L 480.814339 360.590638 
L 481.376073 358.176833 
L 481.937797 357.962984 
L 482.499511 357.596328 
L 483.061215 357.687977 
L 483.622908 361.079487 
L 484.184592 358.543454 
L 485.307928 357.99352 
L 485.869582 358.604634 
L 486.431225 358.63514 
L 486.992858 361.048893 
L 487.554481 359.460103 
L 488.116094 360.101731 
L 488.677697 359.612918 
L 489.23929 358.176855 
L 489.800873 359.093527 
L 490.362446 359.032361 
L 490.924009 362.210008 
L 491.485562 359.58231 
L 492.047105 360.223959 
L 492.608639 358.421305 
L 493.170162 358.146298 
L 493.731675 359.612889 
L 494.293178 358.726804 
L 494.854672 360.04066 
L 495.977629 359.307324 
L 496.539093 359.001797 
L 497.100547 359.918454 
L 497.661991 360.162852 
L 498.223425 357.840756 
L 498.784849 358.879641 
L 499.346264 359.154568 
L 500.469063 361.9961 
L 501.030448 363.920983 
L 501.591823 359.887845 
L 502.153189 362.362794 
L 502.714544 361.721151 
L 503.27589 360.468373 
L 503.837227 358.696283 
L 504.398553 358.29904 
L 504.95987 359.887874 
L 505.521177 358.696269 
L 506.082474 358.910191 
L 506.643762 359.735088 
L 507.205039 360.071203 
L 507.766308 360.621151 
L 508.327566 359.918395 
L 508.888815 361.782229 
L 509.450054 359.582288 
L 510.011284 359.735096 
L 510.572504 360.132266 
L 511.133714 362.821056 
L 511.694914 361.110066 
L 512.256106 359.979517 
L 512.817287 363.829377 
L 513.378459 361.110015 
L 513.939621 359.33794 
L 514.500774 359.399003 
L 515.061917 361.568343 
L 515.623051 361.476635 
L 516.184175 363.27934 
L 516.74529 361.048937 
L 517.306395 359.551723 
L 517.86749 362.271056 
L 518.989653 361.201716 
L 519.55072 360.926709 
L 520.111778 359.704568 
L 520.672826 362.118255 
L 521.233865 362.301621 
L 521.794894 361.446078 
L 522.355914 359.857266 
L 522.916924 360.926723 
L 523.477926 358.910103 
L 524.038917 359.82676 
L 524.5999 359.36841 
L 525.160873 361.323893 
L 526.28279 358.054619 
L 526.843735 359.918424 
L 527.404671 359.307302 
L 527.965597 361.232266 
L 528.526514 359.337845 
L 529.087421 359.796203 
L 530.209209 362.118292 
L 530.770089 362.423871 
L 531.330959 362.179421 
L 531.89182 362.8822 
L 532.452672 360.773901 
L 533.013515 360.193424 
L 533.574349 358.207391 
L 534.135173 357.901907 
L 534.695988 361.446056 
L 535.256794 362.271056 
L 535.817591 360.621195 
L 536.378378 361.47665 
L 536.939157 363.58492 
L 537.499926 361.354421 
L 538.060686 362.851598 
L 538.621437 360.315602 
L 539.182179 359.826789 
L 539.742911 361.04893 
L 540.303635 358.84904 
L 540.86435 359.643476 
L 541.425055 359.521188 
L 541.985751 363.157148 
L 542.546439 361.812691 
L 543.107117 362.271063 
L 543.667786 363.126525 
L 544.228446 364.196005 
L 544.789097 362.209978 
L 545.349739 360.804465 
L 545.910373 362.668277 
L 547.031612 360.193395 
L 547.592218 361.048893 
L 548.152815 362.882185 
L 548.713403 359.82676 
L 549.834553 360.590624 
L 550.395115 358.665712 
L 550.955667 361.293373 
L 551.516211 359.490624 
L 552.076745 359.796225 
L 552.637271 358.299069 
L 553.197788 359.276841 
L 553.758296 359.429597 
L 554.318796 359.093446 
L 554.879286 365.357053 
L 556.00024 360.621144 
L 556.560704 360.957185 
L 557.121159 362.332192 
L 557.681606 359.154546 
L 558.242043 359.857332 
L 558.802472 362.271085 
L 559.362892 361.048857 
L 559.923303 362.148879 
L 560.483706 361.934912 
L 561.0441 363.034934 
L 562.164861 361.293314 
L 562.725229 359.918395 
L 563.285588 358.849055 
L 563.845938 362.423842 
L 564.406279 362.271005 
L 564.966612 363.920997 
L 565.526937 361.262757 
L 566.087252 359.154568 
L 566.647559 360.19338 
L 567.207857 363.279421 
L 567.768147 361.323901 
L 568.328428 359.796195 
L 568.888701 367.495865 
L 570.00922 359.826789 
L 570.569467 358.726789 
L 571.129705 359.429597 
L 571.689935 361.109971 
L 572.250156 363.371049 
L 572.810369 361.232273 
L 573.370573 359.612882 
L 573.930768 360.162911 
L 574.490956 362.148864 
L 575.051134 364.959854 
L 575.611304 360.529487 
L 576.171466 358.971283 
L 577.291764 360.865565 
L 577.851901 360.957229 
L 578.412028 360.65165 
L 578.972148 361.568343 
L 579.532259 360.926628 
L 580.092362 362.821027 
L 580.652456 359.215653 
L 581.212542 359.185169 
L 581.77262 360.498981 
L 582.332689 358.879531 
L 582.89275 360.13228 
L 583.452802 360.285081 
L 584.572883 360.071144 
L 585.13291 363.218299 
L 586.252941 360.804473 
L 586.812943 362.454414 
L 587.372938 361.018292 
L 587.932924 362.821071 
L 588.492902 362.026606 
L 589.052872 361.721115 
L 589.612833 360.804414 
L 590.172787 362.66827 
L 590.732732 363.951518 
L 591.292669 362.057214 
L 591.852597 361.996041 
L 592.412518 361.812691 
L 592.97243 361.965528 
L 593.532335 361.07937 
L 594.092231 362.759927 
L 594.652119 362.668241 
L 595.211998 365.204289 
L 595.77187 363.432141 
L 596.331734 361.079436 
L 596.891589 364.043233 
L 597.451437 362.087698 
L 598.011276 362.393277 
L 598.571107 360.98775 
L 599.13093 360.346188 
L 599.690746 359.918351 
L 600.250553 360.957251 
L 600.810352 362.423827 
L 601.370143 360.590536 
L 601.929926 361.996056 
L 602.489701 361.598879 
L 603.049468 362.821093 
L 603.609227 362.851591 
L 604.168979 365.968138 
L 604.728722 359.796166 
L 605.288457 359.001804 
L 605.848184 364.226562 
L 606.407904 362.729355 
L 606.967615 360.498974 
L 607.527319 361.109993 
L 608.087015 363.523791 
L 608.646702 360.468358 
L 609.206382 361.354443 
L 609.766054 361.171144 
L 610.325719 359.735088 
L 610.885375 364.471019 
L 611.445023 364.012617 
L 612.004664 361.843299 
L 612.564297 361.904399 
L 613.123922 363.829318 
L 613.683539 362.790477 
L 614.243149 364.562647 
L 614.802751 364.868197 
L 615.362345 363.004384 
L 615.921931 360.28511 
L 616.481509 360.926665 
L 617.04108 363.432119 
L 617.600643 359.399018 
L 618.160198 358.787962 
L 618.719746 361.598901 
L 619.279286 363.82937 
L 619.838818 362.332222 
L 620.398342 362.362713 
L 620.957859 360.132324 
L 621.517368 361.232229 
L 622.07687 361.782222 
L 622.636364 360.651672 
L 622.636364 360.651672 
" clip-path="url(#pf49e3a9001)" style="fill: none; stroke: #ff7f0e; stroke-width: 1.5; stroke-linecap: square"/>
   </g>
   <g id="patch_3">
    <path d="M 90 384.48 
L 90 51.84 
" style="fill: none; stroke: #000000; stroke-width: 0.8; stroke-linejoin: miter; stroke-linecap: square"/>
   </g>
   <g id="patch_4">
    <path d="M 648 384.48 
L 648 51.84 
" style="fill: none; stroke: #000000; stroke-width: 0.8; stroke-linejoin: miter; stroke-linecap: square"/>
   </g>
   <g id="patch_5">
    <path d="M 90 384.48 
L 648 384.48 
" style="fill: none; stroke: #000000; stroke-width: 0.8; stroke-linejoin: miter; stroke-linecap: square"/>
   </g>
   <g id="patch_6">
    <path d="M 90 51.84 
L 648 51.84 
" style="fill: none; stroke: #000000; stroke-width: 0.8; stroke-linejoin: miter; stroke-linecap: square"/>
   </g>
   <g id="text_14">
    <!-- Averaged Laser spectrum no feedback lasing at 25mA -->
    <g transform="translate(75.796875 45.84) scale(0.216 -0.216)">
     <defs>
      <path id="DejaVuSans-41" d="M 2188 4044 
L 1331 1722 
L 3047 1722 
L 2188 4044 
z
M 1831 4666 
L 2547 4666 
L 4325 0 
L 3669 0 
L 3244 1197 
L 1141 1197 
L 716 0 
L 50 0 
L 1831 4666 
z
" transform="scale(0.015625)"/>
      <path id="DejaVuSans-72" d="M 2631 2963 
Q 2534 3019 2420 3045 
Q 2306 3072 2169 3072 
Q 1681 3072 1420 2755 
Q 1159 2438 1159 1844 
L 1159 0 
L 581 0 
L 581 3500 
L 1159 3500 
L 1159 2956 
Q 1341 3275 1631 3429 
Q 1922 3584 2338 3584 
Q 2397 3584 2469 3576 
Q 2541 3569 2628 3553 
L 2631 2963 
z
" transform="scale(0.015625)"/>
      <path id="DejaVuSans-64" d="M 2906 2969 
L 2906 4863 
L 3481 4863 
L 3481 0 
L 2906 0 
L 2906 525 
Q 2725 213 2448 61 
Q 2172 -91 1784 -91 
Q 1150 -91 751 415 
Q 353 922 353 1747 
Q 353 2572 751 3078 
Q 1150 3584 1784 3584 
Q 2172 3584 2448 3432 
Q 2725 3281 2906 2969 
z
M 947 1747 
Q 947 1113 1208 752 
Q 1469 391 1925 391 
Q 2381 391 2643 752 
Q 2906 1113 2906 1747 
Q 2906 2381 2643 2742 
Q 2381 3103 1925 3103 
Q 1469 3103 1208 2742 
Q 947 2381 947 1747 
z
" transform="scale(0.015625)"/>
      <path id="DejaVuSans-4c" d="M 628 4666 
L 1259 4666 
L 1259 531 
L 3531 531 
L 3531 0 
L 628 0 
L 628 4666 
z
" transform="scale(0.015625)"/>
      <path id="DejaVuSans-70" d="M 1159 525 
L 1159 -1331 
L 581 -1331 
L 581 3500 
L 1159 3500 
L 1159 2969 
Q 1341 3281 1617 3432 
Q 1894 3584 2278 3584 
Q 2916 3584 3314 3078 
Q 3713 2572 3713 1747 
Q 3713 922 3314 415 
Q 2916 -91 2278 -91 
Q 1894 -91 1617 61 
Q 1341 213 1159 525 
z
M 3116 1747 
Q 3116 2381 2855 2742 
Q 2594 3103 2138 3103 
Q 1681 3103 1420 2742 
Q 1159 2381 1159 1747 
Q 1159 1113 1420 752 
Q 1681 391 2138 391 
Q 2594 391 2855 752 
Q 3116 1113 3116 1747 
z
" transform="scale(0.015625)"/>
      <path id="DejaVuSans-63" d="M 3122 3366 
L 3122 2828 
Q 2878 2963 2633 3030 
Q 2388 3097 2138 3097 
Q 1578 3097 1268 2742 
Q 959 2388 959 1747 
Q 959 1106 1268 751 
Q 1578 397 2138 397 
Q 2388 397 2633 464 
Q 2878 531 3122 666 
L 3122 134 
Q 2881 22 2623 -34 
Q 2366 -91 2075 -91 
Q 1284 -91 818 406 
Q 353 903 353 1747 
Q 353 2603 823 3093 
Q 1294 3584 2113 3584 
Q 2378 3584 2631 3529 
Q 2884 3475 3122 3366 
z
" transform="scale(0.015625)"/>
      <path id="DejaVuSans-75" d="M 544 1381 
L 544 3500 
L 1119 3500 
L 1119 1403 
Q 1119 906 1312 657 
Q 1506 409 1894 409 
Q 2359 409 2629 706 
Q 2900 1003 2900 1516 
L 2900 3500 
L 3475 3500 
L 3475 0 
L 2900 0 
L 2900 538 
Q 2691 219 2414 64 
Q 2138 -91 1772 -91 
Q 1169 -91 856 284 
Q 544 659 544 1381 
z
M 1991 3584 
L 1991 3584 
z
" transform="scale(0.015625)"/>
      <path id="DejaVuSans-6f" d="M 1959 3097 
Q 1497 3097 1228 2736 
Q 959 2375 959 1747 
Q 959 1119 1226 758 
Q 1494 397 1959 397 
Q 2419 397 2687 759 
Q 2956 1122 2956 1747 
Q 2956 2369 2687 2733 
Q 2419 3097 1959 3097 
z
M 1959 3584 
Q 2709 3584 3137 3096 
Q 3566 2609 3566 1747 
Q 3566 888 3137 398 
Q 2709 -91 1959 -91 
Q 1206 -91 779 398 
Q 353 888 353 1747 
Q 353 2609 779 3096 
Q 1206 3584 1959 3584 
z
" transform="scale(0.015625)"/>
      <path id="DejaVuSans-66" d="M 2375 4863 
L 2375 4384 
L 1825 4384 
Q 1516 4384 1395 4259 
Q 1275 4134 1275 3809 
L 1275 3500 
L 2222 3500 
L 2222 3053 
L 1275 3053 
L 1275 0 
L 697 0 
L 697 3053 
L 147 3053 
L 147 3500 
L 697 3500 
L 697 3744 
Q 697 4328 969 4595 
Q 1241 4863 1831 4863 
L 2375 4863 
z
" transform="scale(0.015625)"/>
      <path id="DejaVuSans-62" d="M 3116 1747 
Q 3116 2381 2855 2742 
Q 2594 3103 2138 3103 
Q 1681 3103 1420 2742 
Q 1159 2381 1159 1747 
Q 1159 1113 1420 752 
Q 1681 391 2138 391 
Q 2594 391 2855 752 
Q 3116 1113 3116 1747 
z
M 1159 2969 
Q 1341 3281 1617 3432 
Q 1894 3584 2278 3584 
Q 2916 3584 3314 3078 
Q 3713 2572 3713 1747 
Q 3713 922 3314 415 
Q 2916 -91 2278 -91 
Q 1894 -91 1617 61 
Q 1341 213 1159 525 
L 1159 0 
L 581 0 
L 581 4863 
L 1159 4863 
L 1159 2969 
z
" transform="scale(0.015625)"/>
      <path id="DejaVuSans-6b" d="M 581 4863 
L 1159 4863 
L 1159 1991 
L 2875 3500 
L 3609 3500 
L 1753 1863 
L 3688 0 
L 2938 0 
L 1159 1709 
L 1159 0 
L 581 0 
L 581 4863 
z
" transform="scale(0.015625)"/>
     </defs>
     <use xlink:href="#DejaVuSans-41"/>
     <use xlink:href="#DejaVuSans-76" x="62.533203"/>
     <use xlink:href="#DejaVuSans-65" x="121.712891"/>
     <use xlink:href="#DejaVuSans-72" x="183.236328"/>
     <use xlink:href="#DejaVuSans-61" x="224.349609"/>
     <use xlink:href="#DejaVuSans-67" x="285.628906"/>
     <use xlink:href="#DejaVuSans-65" x="349.105469"/>
     <use xlink:href="#DejaVuSans-64" x="410.628906"/>
     <use xlink:href="#DejaVuSans-20" x="474.105469"/>
     <use xlink:href="#DejaVuSans-4c" x="505.892578"/>
     <use xlink:href="#DejaVuSans-61" x="561.605469"/>
     <use xlink:href="#DejaVuSans-73" x="622.884766"/>
     <use xlink:href="#DejaVuSans-65" x="674.984375"/>
     <use xlink:href="#DejaVuSans-72" x="736.507812"/>
     <use xlink:href="#DejaVuSans-20" x="777.621094"/>
     <use xlink:href="#DejaVuSans-73" x="809.408203"/>
     <use xlink:href="#DejaVuSans-70" x="861.507812"/>
     <use xlink:href="#DejaVuSans-65" x="924.984375"/>
     <use xlink:href="#DejaVuSans-63" x="986.507812"/>
     <use xlink:href="#DejaVuSans-74" x="1041.488281"/>
     <use xlink:href="#DejaVuSans-72" x="1080.697266"/>
     <use xlink:href="#DejaVuSans-75" x="1121.810547"/>
     <use xlink:href="#DejaVuSans-6d" x="1185.189453"/>
     <use xlink:href="#DejaVuSans-20" x="1282.601562"/>
     <use xlink:href="#DejaVuSans-6e" x="1314.388672"/>
     <use xlink:href="#DejaVuSans-6f" x="1377.767578"/>
     <use xlink:href="#DejaVuSans-20" x="1438.949219"/>
     <use xlink:href="#DejaVuSans-66" x="1470.736328"/>
     <use xlink:href="#DejaVuSans-65" x="1505.941406"/>
     <use xlink:href="#DejaVuSans-65" x="1567.464844"/>
     <use xlink:href="#DejaVuSans-64" x="1628.988281"/>
     <use xlink:href="#DejaVuSans-62" x="1692.464844"/>
     <use xlink:href="#DejaVuSans-61" x="1755.941406"/>
     <use xlink:href="#DejaVuSans-63" x="1817.220703"/>
     <use xlink:href="#DejaVuSans-6b" x="1872.201172"/>
     <use xlink:href="#DejaVuSans-20" x="1930.111328"/>
     <use xlink:href="#DejaVuSans-6c" x="1961.898438"/>
     <use xlink:href="#DejaVuSans-61" x="1989.681641"/>
     <use xlink:href="#DejaVuSans-73" x="2050.960938"/>
     <use xlink:href="#DejaVuSans-69" x="2103.060547"/>
     <use xlink:href="#DejaVuSans-6e" x="2130.84375"/>
     <use xlink:href="#DejaVuSans-67" x="2194.222656"/>
     <use xlink:href="#DejaVuSans-20" x="2257.699219"/>
     <use xlink:href="#DejaVuSans-61" x="2289.486328"/>
     <use xlink:href="#DejaVuSans-74" x="2350.765625"/>
     <use xlink:href="#DejaVuSans-20" x="2389.974609"/>
     <use xlink:href="#DejaVuSans-32" x="2421.761719"/>
     <use xlink:href="#DejaVuSans-35" x="2485.384766"/>
     <use xlink:href="#DejaVuSans-6d" x="2549.007812"/>
     <use xlink:href="#DejaVuSans-41" x="2646.419922"/>
    </g>
   </g>
   <g id="legend_1">
    <g id="patch_7">
     <path d="M 525.04875 119.08125 
L 635.4 119.08125 
Q 639 119.08125 639 115.48125 
L 639 64.44 
Q 639 60.84 635.4 60.84 
L 525.04875 60.84 
Q 521.44875 60.84 521.44875 64.44 
L 521.44875 115.48125 
Q 521.44875 119.08125 525.04875 119.08125 
z
" style="fill: #ffffff; opacity: 0.8; stroke: #cccccc; stroke-linejoin: miter"/>
    </g>
    <g id="line2d_14">
     <path d="M 528.64875 75.417187 
L 546.64875 75.417187 
L 564.64875 75.417187 
" style="fill: none; stroke: #1f77b4; stroke-width: 1.5; stroke-linecap: square"/>
    </g>
    <g id="text_15">
     <!-- 28mA -->
     <g transform="translate(579.04875 81.717187) scale(0.18 -0.18)">
      <use xlink:href="#DejaVuSans-32"/>
      <use xlink:href="#DejaVuSans-38" x="63.623047"/>
      <use xlink:href="#DejaVuSans-6d" x="127.246094"/>
      <use xlink:href="#DejaVuSans-41" x="224.658203"/>
     </g>
    </g>
    <g id="line2d_15">
     <path d="M 528.64875 101.837812 
L 546.64875 101.837812 
L 564.64875 101.837812 
" style="fill: none; stroke: #ff7f0e; stroke-width: 1.5; stroke-linecap: square"/>
    </g>
    <g id="text_16">
     <!-- 25mA -->
     <g transform="translate(579.04875 108.137812) scale(0.18 -0.18)">
      <use xlink:href="#DejaVuSans-32"/>
      <use xlink:href="#DejaVuSans-35" x="63.623047"/>
      <use xlink:href="#DejaVuSans-6d" x="127.246094"/>
      <use xlink:href="#DejaVuSans-41" x="224.658203"/>
     </g>
    </g>
   </g>
  </g>
 </g>
 <defs>
  <clipPath id="pf49e3a9001">
   <rect x="90" y="51.84" width="558" height="332.64"/>
  </clipPath>
 </defs>
</svg>
