<?xml version="1.0" encoding="UTF-8" standalone="no"?>
<svg
   width="720pt"
   height="432pt"
   viewBox="0 0 720 432"
   version="1.1"
   id="svg489"
   sodipodi:docname="no feedback lasers avaraged relative.svg"
   inkscape:version="1.2.2 (732a01da63, 2022-12-09)"
   xmlns:inkscape="http://www.inkscape.org/namespaces/inkscape"
   xmlns:sodipodi="http://sodipodi.sourceforge.net/DTD/sodipodi-0.dtd"
   xmlns:xlink="http://www.w3.org/1999/xlink"
   xmlns="http://www.w3.org/2000/svg"
   xmlns:svg="http://www.w3.org/2000/svg"
   xmlns:rdf="http://www.w3.org/1999/02/22-rdf-syntax-ns#"
   xmlns:cc="http://creativecommons.org/ns#"
   xmlns:dc="http://purl.org/dc/elements/1.1/">
  <sodipodi:namedview
     id="namedview491"
     pagecolor="#ffffff"
     bordercolor="#000000"
     borderopacity="0.25"
     inkscape:showpageshadow="2"
     inkscape:pageopacity="0.0"
     inkscape:pagecheckerboard="0"
     inkscape:deskcolor="#d1d1d1"
     inkscape:document-units="pt"
     showgrid="false"
     inkscape:lockguides="false"
     inkscape:zoom="1.2604167"
     inkscape:cx="435.96694"
     inkscape:cy="288"
     inkscape:window-width="1920"
     inkscape:window-height="1057"
     inkscape:window-x="-8"
     inkscape:window-y="-8"
     inkscape:window-maximized="1"
     inkscape:current-layer="svg489" />
  <metadata
     id="metadata2">
    <rdf:RDF>
      <cc:Work>
        <dc:type
           rdf:resource="http://purl.org/dc/dcmitype/StillImage" />
        <dc:date>2023-06-22T09:52:21.045425</dc:date>
        <dc:format>image/svg+xml</dc:format>
        <dc:creator>
          <cc:Agent>
            <dc:title>Matplotlib v3.6.3, https://matplotlib.org/</dc:title>
          </cc:Agent>
        </dc:creator>
      </cc:Work>
    </rdf:RDF>
  </metadata>
  <defs
     id="defs6">
    <style
       type="text/css"
       id="style4">*{stroke-linejoin: round; stroke-linecap: butt}</style>
  </defs>
  <g
     id="figure_1"
     transform="translate(0,-17.256198)">
    <g
       id="patch_1">
      <path
         d="M 0,432 H 720 V 0 H 0 Z"
         style="fill:#ffffff"
         id="path8" />
    </g>
    <g
       id="axes_1">
      <g
         id="patch_2">
        <path
           d="M 90,384.48 H 648 V 51.84 H 90 Z"
           style="fill:#ffffff"
           id="path11" />
      </g>
      <g
         id="matplotlib.axis_1">
        <g
           id="xtick_1">
          <g
             id="line2d_1">
            <defs
               id="defs15">
              <path
                 id="mb2d3bc3f54"
                 d="M 0,0 V 3.5"
                 style="stroke:#000000;stroke-width:0.8" />
            </defs>
            <g
               id="g19">
              <use
                 xlink:href="#mb2d3bc3f54"
                 x="171.21234"
                 y="384.48001"
                 style="stroke:#000000;stroke-width:0.8"
                 id="use17" />
            </g>
          </g>
          <g
             id="text_1">
            <!-- 610 -->
            <g
               transform="matrix(0.18,0,0,-0.18,154.03359,405.15719)"
               id="g33">
              <defs
                 id="defs25">
                <path
                   id="DejaVuSans-36"
                   d="m 2113,2584 q -425,0 -674,-291 -248,-290 -248,-796 0,-503 248,-796 249,-292 674,-292 425,0 673,292 248,293 248,796 0,506 -248,796 -248,291 -673,291 z m 1253,1979 v -575 q -238,112 -480,171 -242,60 -480,60 -625,0 -955,-422 -329,-422 -376,-1275 184,272 462,417 279,145 613,145 703,0 1111,-427 408,-426 408,-1160 0,-719 -425,-1154 -425,-434 -1131,-434 -810,0 -1238,620 -428,621 -428,1799 0,1106 525,1764 525,658 1409,658 238,0 480,-47 242,-47 505,-140 z"
                   transform="scale(0.015625)" />
                <path
                   id="DejaVuSans-31"
                   d="M 794,531 H 1825 V 4091 L 703,3866 v 575 l 1116,225 h 631 V 531 H 3481 V 0 H 794 Z"
                   transform="scale(0.015625)" />
                <path
                   id="DejaVuSans-30"
                   d="m 2034,4250 q -487,0 -733,-480 -245,-479 -245,-1442 0,-959 245,-1439 246,-480 733,-480 491,0 736,480 246,480 246,1439 0,963 -246,1442 -245,480 -736,480 z m 0,500 q 785,0 1199,-621 414,-620 414,-1801 0,-1178 -414,-1799 -414,-620 -1199,-620 -784,0 -1198,620 -414,621 -414,1799 0,1181 414,1801 414,621 1198,621 z"
                   transform="scale(0.015625)" />
              </defs>
              <use
                 xlink:href="#DejaVuSans-36"
                 id="use27" />
              <use
                 xlink:href="#DejaVuSans-31"
                 x="63.623047"
                 id="use29" />
              <use
                 xlink:href="#DejaVuSans-30"
                 x="127.24609"
                 id="use31" />
            </g>
          </g>
        </g>
        <g
           id="xtick_2">
          <g
             id="line2d_2">
            <g
               id="g39">
              <use
                 xlink:href="#mb2d3bc3f54"
                 x="271.23352"
                 y="384.48001"
                 style="stroke:#000000;stroke-width:0.8"
                 id="use37" />
            </g>
          </g>
          <g
             id="text_2">
            <!-- 615 -->
            <g
               transform="matrix(0.18,0,0,-0.18,254.05478,405.15719)"
               id="g51">
              <defs
                 id="defs43">
                <path
                   id="DejaVuSans-35"
                   d="M 691,4666 H 3169 V 4134 H 1269 V 2991 q 137,47 274,70 138,23 276,23 781,0 1237,-428 457,-428 457,-1159 Q 3513,744 3044,326 2575,-91 1722,-91 1428,-91 1123,-41 819,9 494,109 v 635 q 281,-153 581,-228 300,-75 634,-75 541,0 856,284 316,284 316,772 0,487 -316,771 -315,285 -856,285 -253,0 -505,-56 -251,-56 -513,-175 z"
                   transform="scale(0.015625)" />
              </defs>
              <use
                 xlink:href="#DejaVuSans-36"
                 id="use45" />
              <use
                 xlink:href="#DejaVuSans-31"
                 x="63.623047"
                 id="use47" />
              <use
                 xlink:href="#DejaVuSans-35"
                 x="127.24609"
                 id="use49" />
            </g>
          </g>
        </g>
        <g
           id="xtick_3">
          <g
             id="line2d_3">
            <g
               id="g57">
              <use
                 xlink:href="#mb2d3bc3f54"
                 x="371.25473"
                 y="384.48001"
                 style="stroke:#000000;stroke-width:0.8"
                 id="use55" />
            </g>
          </g>
          <g
             id="text_3">
            <!-- 620 -->
            <g
               transform="matrix(0.18,0,0,-0.18,354.07597,405.15719)"
               id="g69">
              <defs
                 id="defs61">
                <path
                   id="DejaVuSans-32"
                   d="M 1228,531 H 3431 V 0 H 469 v 531 q 359,372 979,998 621,627 780,809 303,340 423,576 121,236 121,464 0,372 -261,606 -261,235 -680,235 -297,0 -627,-103 -329,-103 -704,-313 v 638 q 381,153 712,231 332,78 607,78 725,0 1156,-363 431,-362 431,-968 0,-288 -108,-546 -107,-257 -392,-607 -78,-91 -497,-524 Q 1991,1309 1228,531 Z"
                   transform="scale(0.015625)" />
              </defs>
              <use
                 xlink:href="#DejaVuSans-36"
                 id="use63" />
              <use
                 xlink:href="#DejaVuSans-32"
                 x="63.623047"
                 id="use65" />
              <use
                 xlink:href="#DejaVuSans-30"
                 x="127.24609"
                 id="use67" />
            </g>
          </g>
        </g>
        <g
           id="xtick_4">
          <g
             id="line2d_4">
            <g
               id="g75">
              <use
                 xlink:href="#mb2d3bc3f54"
                 x="471.27591"
                 y="384.48001"
                 style="stroke:#000000;stroke-width:0.8"
                 id="use73" />
            </g>
          </g>
          <g
             id="text_4">
            <!-- 625 -->
            <g
               transform="matrix(0.18,0,0,-0.18,454.09716,405.15719)"
               id="g84">
              <use
                 xlink:href="#DejaVuSans-36"
                 id="use78" />
              <use
                 xlink:href="#DejaVuSans-32"
                 x="63.623047"
                 id="use80" />
              <use
                 xlink:href="#DejaVuSans-35"
                 x="127.24609"
                 id="use82" />
            </g>
          </g>
        </g>
        <g
           id="xtick_5">
          <g
             id="line2d_5">
            <g
               id="g90">
              <use
                 xlink:href="#mb2d3bc3f54"
                 x="571.29712"
                 y="384.48001"
                 style="stroke:#000000;stroke-width:0.8"
                 id="use88" />
            </g>
          </g>
          <g
             id="text_5">
            <!-- 630 -->
            <g
               transform="matrix(0.18,0,0,-0.18,554.11835,405.15719)"
               id="g102">
              <defs
                 id="defs94">
                <path
                   id="DejaVuSans-33"
                   d="m 2597,2516 q 453,-97 707,-404 255,-306 255,-756 0,-690 -475,-1069 -475,-378 -1350,-378 -293,0 -604,58 -311,58 -642,174 v 609 q 262,-153 574,-231 313,-78 654,-78 593,0 904,234 311,234 311,681 0,413 -289,645 -289,233 -804,233 h -544 v 519 h 569 q 465,0 712,186 247,186 247,536 0,359 -255,551 -254,193 -729,193 -260,0 -557,-57 -297,-56 -653,-174 v 562 q 360,100 674,150 314,50 592,50 719,0 1137,-327 419,-326 419,-882 0,-388 -222,-655 -222,-267 -631,-370 z"
                   transform="scale(0.015625)" />
              </defs>
              <use
                 xlink:href="#DejaVuSans-36"
                 id="use96" />
              <use
                 xlink:href="#DejaVuSans-33"
                 x="63.623047"
                 id="use98" />
              <use
                 xlink:href="#DejaVuSans-30"
                 x="127.24609"
                 id="use100" />
            </g>
          </g>
        </g>
        <g
           id="text_6">
          <!-- Wavelength (nm) $\pm 10$nm -->
          <g
             transform="matrix(0.18,0,0,-0.18,254.34,426.58062)"
             id="g164">
            <defs
               id="defs120">
              <path
                 id="DejaVuSans-57"
                 d="m 213,4666 h 637 l 981,-3944 978,3944 h 710 l 981,-3944 978,3944 h 641 L 4947,0 H 4153 L 3169,4050 2175,0 h -794 z"
                 transform="scale(0.015625)" />
              <path
                 id="DejaVuSans-61"
                 d="m 2194,1759 q -697,0 -966,-159 -269,-159 -269,-544 0,-306 202,-486 202,-179 548,-179 479,0 768,339 289,339 289,901 v 128 z m 1147,238 V 0 H 2766 V 531 Q 2569,213 2275,61 1981,-91 1556,-91 q -537,0 -855,302 -317,302 -317,808 0,590 395,890 396,300 1180,300 h 807 v 57 q 0,397 -261,614 -261,217 -733,217 -300,0 -585,-72 -284,-72 -546,-216 v 532 q 315,122 612,182 297,61 578,61 760,0 1135,-394 375,-393 375,-1193 z"
                 transform="scale(0.015625)" />
              <path
                 id="DejaVuSans-76"
                 d="M 191,3500 H 800 L 1894,563 2988,3500 h 609 L 2284,0 h -781 z"
                 transform="scale(0.015625)" />
              <path
                 id="DejaVuSans-65"
                 d="M 3597,1894 V 1613 H 953 q 38,-594 358,-905 320,-311 892,-311 331,0 642,81 311,81 618,244 V 178 Q 3153,47 2828,-22 2503,-91 2169,-91 1331,-91 842,396 353,884 353,1716 q 0,859 464,1363 464,505 1252,505 706,0 1117,-455 411,-454 411,-1235 z m -575,169 q -6,471 -264,752 -258,282 -683,282 -481,0 -770,-272 -289,-272 -333,-766 z"
                 transform="scale(0.015625)" />
              <path
                 id="DejaVuSans-6c"
                 d="m 603,4863 h 575 V 0 H 603 Z"
                 transform="scale(0.015625)" />
              <path
                 id="DejaVuSans-6e"
                 d="M 3513,2113 V 0 h -575 v 2094 q 0,497 -194,743 -194,247 -581,247 -466,0 -735,-297 -269,-296 -269,-809 V 0 H 581 v 3500 h 578 v -544 q 207,316 486,472 280,156 646,156 603,0 912,-373 310,-373 310,-1098 z"
                 transform="scale(0.015625)" />
              <path
                 id="DejaVuSans-67"
                 d="m 2906,1791 q 0,625 -258,968 -257,344 -723,344 -462,0 -720,-344 -258,-343 -258,-968 0,-622 258,-966 258,-344 720,-344 466,0 723,344 258,344 258,966 z M 3481,434 q 0,-893 -397,-1329 -396,-436 -1215,-436 -303,0 -572,45 -269,45 -522,139 v 559 q 253,-137 500,-202 247,-66 503,-66 566,0 847,295 281,295 281,892 V 616 Q 2728,306 2450,153 2172,0 1784,0 1141,0 747,490 353,981 353,1791 q 0,812 394,1302 394,491 1037,491 388,0 666,-153 278,-153 456,-462 v 531 h 575 z"
                 transform="scale(0.015625)" />
              <path
                 id="DejaVuSans-74"
                 d="M 1172,4494 V 3500 H 2356 V 3053 H 1172 V 1153 q 0,-428 117,-550 117,-122 477,-122 h 590 V 0 H 1766 Q 1100,0 847,248 594,497 594,1153 V 3053 H 172 v 447 h 422 v 994 z"
                 transform="scale(0.015625)" />
              <path
                 id="DejaVuSans-68"
                 d="M 3513,2113 V 0 h -575 v 2094 q 0,497 -194,743 -194,247 -581,247 -466,0 -735,-297 -269,-296 -269,-809 V 0 H 581 v 4863 h 578 V 2956 q 207,316 486,472 280,156 646,156 603,0 912,-373 310,-373 310,-1098 z"
                 transform="scale(0.015625)" />
              <path
                 id="DejaVuSans-20"
                 transform="scale(0.015625)"
                 d="" />
              <path
                 id="DejaVuSans-28"
                 d="m 1984,4856 q -418,-718 -622,-1422 -203,-703 -203,-1425 0,-721 205,-1429 205,-708 620,-1424 h -500 q -468,735 -701,1444 -233,709 -233,1409 0,697 231,1403 232,707 703,1444 z"
                 transform="scale(0.015625)" />
              <path
                 id="DejaVuSans-6d"
                 d="m 3328,2828 q 216,388 516,572 300,184 706,184 547,0 844,-383 297,-382 297,-1088 V 0 h -578 v 2094 q 0,503 -179,746 -178,244 -543,244 -447,0 -707,-297 -259,-296 -259,-809 V 0 h -578 v 2094 q 0,506 -178,748 -178,242 -550,242 -441,0 -701,-298 -259,-298 -259,-808 V 0 H 581 v 3500 h 578 v -544 q 197,322 472,475 275,153 653,153 382,0 649,-194 267,-193 395,-562 z"
                 transform="scale(0.015625)" />
              <path
                 id="DejaVuSans-29"
                 d="m 513,4856 h 500 q 468,-737 701,-1444 233,-706 233,-1403 0,-700 -233,-1409 -233,-709 -701,-1444 H 513 q 415,716 620,1424 205,708 205,1429 0,722 -205,1425 -205,704 -620,1422 z"
                 transform="scale(0.015625)" />
              <path
                 id="DejaVuSans-b1"
                 d="M 2944,4013 V 2803 H 4684 V 2272 H 2944 V 1063 H 2419 V 2272 H 678 v 531 H 2419 V 4013 Z M 678,531 H 4684 V 0 H 678 Z"
                 transform="scale(0.015625)" />
            </defs>
            <use
               xlink:href="#DejaVuSans-57"
               transform="translate(0,0.015625)"
               id="use122" />
            <use
               xlink:href="#DejaVuSans-61"
               transform="translate(98.876953,0.015625)"
               id="use124" />
            <use
               xlink:href="#DejaVuSans-76"
               transform="translate(160.15625,0.015625)"
               id="use126" />
            <use
               xlink:href="#DejaVuSans-65"
               transform="translate(219.33594,0.015625)"
               id="use128" />
            <use
               xlink:href="#DejaVuSans-6c"
               transform="translate(280.85937,0.015625)"
               id="use130" />
            <use
               xlink:href="#DejaVuSans-65"
               transform="translate(308.64258,0.015625)"
               id="use132" />
            <use
               xlink:href="#DejaVuSans-6e"
               transform="translate(370.16602,0.015625)"
               id="use134" />
            <use
               xlink:href="#DejaVuSans-67"
               transform="translate(433.54492,0.015625)"
               id="use136" />
            <use
               xlink:href="#DejaVuSans-74"
               transform="translate(497.02148,0.015625)"
               id="use138" />
            <use
               xlink:href="#DejaVuSans-68"
               transform="translate(536.23047,0.015625)"
               id="use140" />
            <use
               xlink:href="#DejaVuSans-20"
               transform="translate(599.60937,0.015625)"
               id="use142" />
            <use
               xlink:href="#DejaVuSans-28"
               transform="translate(631.39648,0.015625)"
               id="use144" />
            <use
               xlink:href="#DejaVuSans-6e"
               transform="translate(670.41016,0.015625)"
               id="use146" />
            <use
               xlink:href="#DejaVuSans-6d"
               transform="translate(733.78906,0.015625)"
               id="use148" />
            <use
               xlink:href="#DejaVuSans-29"
               transform="translate(831.20117,0.015625)"
               id="use150" />
            <use
               xlink:href="#DejaVuSans-20"
               transform="translate(870.21484,0.015625)"
               id="use152" />
            <use
               xlink:href="#DejaVuSans-b1"
               transform="translate(902.00195,0.015625)"
               id="use154" />
            <use
               xlink:href="#DejaVuSans-31"
               transform="translate(985.79102,0.015625)"
               id="use156" />
            <use
               xlink:href="#DejaVuSans-30"
               transform="translate(1049.4141,0.015625)"
               id="use158" />
            <use
               xlink:href="#DejaVuSans-6e"
               transform="translate(1113.0371,0.015625)"
               id="use160" />
            <use
               xlink:href="#DejaVuSans-6d"
               transform="translate(1176.416,0.015625)"
               id="use162" />
          </g>
        </g>
      </g>
      <g
         id="matplotlib.axis_2">
        <g
           id="ytick_1">
          <g
             id="line2d_6">
            <defs
               id="defs169">
              <path
                 id="md34e75396a"
                 d="M 0,0 H -3.5"
                 style="stroke:#000000;stroke-width:0.8" />
            </defs>
            <g
               id="g173">
              <use
                 xlink:href="#md34e75396a"
                 x="90"
                 y="365.38766"
                 style="stroke:#000000;stroke-width:0.8"
                 id="use171" />
            </g>
          </g>
          <g
             id="text_7">
            <!-- 0.0 -->
            <g
               transform="matrix(0.18,0,0,-0.18,54.374375,372.22625)"
               id="g185">
              <defs
                 id="defs177">
                <path
                   id="DejaVuSans-2e"
                   d="m 684,794 h 660 V 0 H 684 Z"
                   transform="scale(0.015625)" />
              </defs>
              <use
                 xlink:href="#DejaVuSans-30"
                 id="use179" />
              <use
                 xlink:href="#DejaVuSans-2e"
                 x="63.623047"
                 id="use181" />
              <use
                 xlink:href="#DejaVuSans-30"
                 x="95.410156"
                 id="use183" />
            </g>
          </g>
        </g>
        <g
           id="ytick_2">
          <g
             id="line2d_7">
            <g
               id="g191">
              <use
                 xlink:href="#md34e75396a"
                 x="90"
                 y="305.70212"
                 style="stroke:#000000;stroke-width:0.8"
                 id="use189" />
            </g>
          </g>
          <g
             id="text_8">
            <!-- 0.2 -->
            <g
               transform="matrix(0.18,0,0,-0.18,54.374375,312.54072)"
               id="g200">
              <use
                 xlink:href="#DejaVuSans-30"
                 id="use194" />
              <use
                 xlink:href="#DejaVuSans-2e"
                 x="63.623047"
                 id="use196" />
              <use
                 xlink:href="#DejaVuSans-32"
                 x="95.410156"
                 id="use198" />
            </g>
          </g>
        </g>
        <g
           id="ytick_3">
          <g
             id="line2d_8">
            <g
               id="g206">
              <use
                 xlink:href="#md34e75396a"
                 x="90"
                 y="246.01659"
                 style="stroke:#000000;stroke-width:0.8"
                 id="use204" />
            </g>
          </g>
          <g
             id="text_9">
            <!-- 0.4 -->
            <g
               transform="matrix(0.18,0,0,-0.18,54.374375,252.85519)"
               id="g218">
              <defs
                 id="defs210">
                <path
                   id="DejaVuSans-34"
                   d="M 2419,4116 825,1625 h 1594 z m -166,550 h 794 V 1625 h 666 V 1100 H 3047 V 0 H 2419 V 1100 H 313 v 609 z"
                   transform="scale(0.015625)" />
              </defs>
              <use
                 xlink:href="#DejaVuSans-30"
                 id="use212" />
              <use
                 xlink:href="#DejaVuSans-2e"
                 x="63.623047"
                 id="use214" />
              <use
                 xlink:href="#DejaVuSans-34"
                 x="95.410156"
                 id="use216" />
            </g>
          </g>
        </g>
        <g
           id="ytick_4">
          <g
             id="line2d_9">
            <g
               id="g224">
              <use
                 xlink:href="#md34e75396a"
                 x="90"
                 y="186.33105"
                 style="stroke:#000000;stroke-width:0.8"
                 id="use222" />
            </g>
          </g>
          <g
             id="text_10">
            <!-- 0.6 -->
            <g
               transform="matrix(0.18,0,0,-0.18,54.374375,193.16965)"
               id="g233">
              <use
                 xlink:href="#DejaVuSans-30"
                 id="use227" />
              <use
                 xlink:href="#DejaVuSans-2e"
                 x="63.623047"
                 id="use229" />
              <use
                 xlink:href="#DejaVuSans-36"
                 x="95.410156"
                 id="use231" />
            </g>
          </g>
        </g>
        <g
           id="ytick_5">
          <g
             id="line2d_10">
            <g
               id="g239">
              <use
                 xlink:href="#md34e75396a"
                 x="90"
                 y="126.64553"
                 style="stroke:#000000;stroke-width:0.8"
                 id="use237" />
            </g>
          </g>
          <g
             id="text_11">
            <!-- 0.8 -->
            <g
               transform="matrix(0.18,0,0,-0.18,54.374375,133.48412)"
               id="g251">
              <defs
                 id="defs243">
                <path
                   id="DejaVuSans-38"
                   d="m 2034,2216 q -450,0 -708,-241 -257,-241 -257,-662 0,-422 257,-663 258,-241 708,-241 450,0 709,242 260,243 260,662 0,421 -258,662 -257,241 -711,241 z m -631,268 q -406,100 -633,378 -226,279 -226,679 0,559 398,884 399,325 1092,325 697,0 1094,-325 397,-325 397,-884 0,-400 -227,-679 -226,-278 -629,-378 456,-106 710,-416 255,-309 255,-755 Q 3634,634 3220,271 2806,-91 2034,-91 1263,-91 848,271 434,634 434,1313 q 0,446 256,755 257,310 713,416 z m -231,997 q 0,-362 226,-565 227,-203 636,-203 407,0 636,203 230,203 230,565 0,363 -230,566 -229,203 -636,203 -409,0 -636,-203 -226,-203 -226,-566 z"
                   transform="scale(0.015625)" />
              </defs>
              <use
                 xlink:href="#DejaVuSans-30"
                 id="use245" />
              <use
                 xlink:href="#DejaVuSans-2e"
                 x="63.623047"
                 id="use247" />
              <use
                 xlink:href="#DejaVuSans-38"
                 x="95.410156"
                 id="use249" />
            </g>
          </g>
        </g>
        <g
           id="ytick_6">
          <g
             id="line2d_11">
            <g
               id="g257">
              <use
                 xlink:href="#md34e75396a"
                 x="90"
                 y="66.959999"
                 style="stroke:#000000;stroke-width:0.8"
                 id="use255" />
            </g>
          </g>
          <g
             id="text_12">
            <!-- 1.0 -->
            <g
               transform="matrix(0.18,0,0,-0.18,54.374375,73.798594)"
               id="g266">
              <use
                 xlink:href="#DejaVuSans-31"
                 id="use260" />
              <use
                 xlink:href="#DejaVuSans-2e"
                 x="63.623047"
                 id="use262" />
              <use
                 xlink:href="#DejaVuSans-30"
                 x="95.410156"
                 id="use264" />
            </g>
          </g>
        </g>
        <g
           id="text_13">
          <!-- Relative intensity -->
          <g
             transform="matrix(0,-0.18,-0.18,0,46.630938,296.33344)"
             id="g312">
            <defs
               id="defs274">
              <path
                 id="DejaVuSans-52"
                 d="m 2841,2188 q 203,-69 395,-294 192,-225 386,-619 L 4263,0 h -679 l -596,1197 q -232,469 -449,622 -217,153 -592,153 H 1259 V 0 H 628 v 4666 h 1425 q 800,0 1194,-335 394,-334 394,-1009 0,-441 -205,-732 -205,-290 -595,-402 z M 1259,4147 V 2491 h 794 q 456,0 689,211 233,211 233,620 0,409 -233,617 -233,208 -689,208 z"
                 transform="scale(0.015625)" />
              <path
                 id="DejaVuSans-69"
                 d="m 603,3500 h 575 V 0 H 603 Z m 0,1363 h 575 V 4134 H 603 Z"
                 transform="scale(0.015625)" />
              <path
                 id="DejaVuSans-73"
                 d="m 2834,3397 v -544 q -243,125 -506,187 -262,63 -544,63 -428,0 -642,-131 -214,-131 -214,-394 0,-200 153,-314 153,-114 616,-217 l 197,-44 q 612,-131 870,-370 258,-239 258,-667 0,-488 -386,-773 Q 2250,-91 1575,-91 1294,-91 989,-36 684,19 347,128 v 594 q 319,-166 628,-249 309,-82 613,-82 406,0 624,139 219,139 219,392 0,234 -158,359 -157,125 -692,241 l -200,47 q -534,112 -772,345 -237,233 -237,639 0,494 350,762 350,269 994,269 318,0 599,-47 282,-46 519,-140 z"
                 transform="scale(0.015625)" />
              <path
                 id="DejaVuSans-79"
                 d="m 2059,-325 q -243,-625 -475,-815 -231,-191 -618,-191 H 506 v 481 h 338 q 237,0 368,113 132,112 291,531 L 1606,56 191,3500 H 800 L 1894,763 2988,3500 h 609 z"
                 transform="scale(0.015625)" />
            </defs>
            <use
               xlink:href="#DejaVuSans-52"
               id="use276" />
            <use
               xlink:href="#DejaVuSans-65"
               x="64.982422"
               id="use278" />
            <use
               xlink:href="#DejaVuSans-6c"
               x="126.50586"
               id="use280" />
            <use
               xlink:href="#DejaVuSans-61"
               x="154.28906"
               id="use282" />
            <use
               xlink:href="#DejaVuSans-74"
               x="215.56836"
               id="use284" />
            <use
               xlink:href="#DejaVuSans-69"
               x="254.77734"
               id="use286" />
            <use
               xlink:href="#DejaVuSans-76"
               x="282.56055"
               id="use288" />
            <use
               xlink:href="#DejaVuSans-65"
               x="341.74023"
               id="use290" />
            <use
               xlink:href="#DejaVuSans-20"
               x="403.26367"
               id="use292" />
            <use
               xlink:href="#DejaVuSans-69"
               x="435.05078"
               id="use294" />
            <use
               xlink:href="#DejaVuSans-6e"
               x="462.83398"
               id="use296" />
            <use
               xlink:href="#DejaVuSans-74"
               x="526.21289"
               id="use298" />
            <use
               xlink:href="#DejaVuSans-65"
               x="565.42188"
               id="use300" />
            <use
               xlink:href="#DejaVuSans-6e"
               x="626.94531"
               id="use302" />
            <use
               xlink:href="#DejaVuSans-73"
               x="690.32422"
               id="use304" />
            <use
               xlink:href="#DejaVuSans-69"
               x="742.42383"
               id="use306" />
            <use
               xlink:href="#DejaVuSans-74"
               x="770.20703"
               id="use308" />
            <use
               xlink:href="#DejaVuSans-79"
               x="809.41602"
               id="use310" />
          </g>
        </g>
      </g>
      <g
         id="line2d_12">
        <path
           d="m 115.36364,364.16574 0.57037,-1.80268 0.57036,-0.73333 0.57034,3.57482 0.57032,-0.0611 0.57031,2.62772 0.57029,-3.23875 0.57027,-0.91669 0.57026,3.2999 0.57024,2.38326 0.57023,-7.60816 0.5702,-1.06937 0.57019,3.81943 0.57018,-0.97775 0.57016,0.0917 0.57014,0.21382 0.57012,1.52773 1.14021,-0.0917 0.57007,3.14716 1.14011,-5.98872 0.57002,1.03892 0.57001,1.74159 0.57,0.91658 0.56998,1.2222 1.1399,-3.54431 0.56993,1.34437 0.56991,-0.39722 0.5699,0.45838 1.13974,-1.89437 0.56985,0.18337 1.13965,0.58051 1.13958,-0.51941 1.13951,1.55819 0.56974,-2.87208 0.56971,1.89442 0.56971,0.82493 0.56968,-1.34439 0.56967,0.58054 0.56965,-2.62772 0.56964,-0.3667 0.56962,0.73336 0.5696,1.58881 0.56959,0.825 0.56957,0.51942 0.56956,1.25273 0.56954,-2.44437 0.56952,0.61112 0.56951,-0.91661 0.56949,0.73324 0.56948,-0.76379 0.56946,0.8555 0.56944,-1.49717 0.56943,-0.0917 0.56941,0.61104 1.13878,-0.6723 0.56936,1.03899 0.56935,2.19992 0.56933,-3.5138 0.56931,-0.45832 0.5693,2.07775 0.56929,-1.52783 0.56926,2.96381 0.56926,-1.25268 0.56923,0.97778 0.56922,-0.39726 0.56921,4.43046 0.56918,-6.93598 0.56918,-1.49724 0.56915,3.17786 0.56914,-0.51949 0.56913,3.1471 0.56911,-2.96377 0.56909,-1.68053 0.56908,-0.45833 0.56906,1.00829 0.56905,-4.49156 0.56903,-0.1223 0.56901,6.59994 0.569,-2.62772 0.56898,0.58057 0.56897,-1.0694 0.56895,1.06938 1.13786,0.9778 0.5689,-0.27505 1.13776,-3.54443 0.56886,-0.30555 0.56884,3.575 1.13764,0.88614 0.56879,-0.0916 0.56878,0.39716 0.56876,0.9778 1.13748,-3.26947 0.56872,0.30559 0.5687,1.83332 1.13736,-1.52775 0.56865,0.48896 0.56864,-0.42781 0.56862,0.82503 0.56861,-0.27506 0.5686,1.16108 0.56857,-1.19163 0.56856,0.2139 0.56855,0.88606 0.56853,-0.18334 0.56852,0.58057 0.56849,-0.88608 0.56849,-1.16107 0.56847,-0.45834 0.56845,1.46662 0.56844,-0.12219 0.56842,0.42775 0.56841,-1.77224 0.56839,-1.16108 0.56838,3.33049 0.56836,-2.13883 0.56834,4.33875 0.56834,-2.71933 0.56831,-1.00832 0.5683,-0.21388 0.56828,1.77214 1.13653,0.24447 0.56824,0.48888 0.56822,-1.86387 0.56821,6.53869 0.56819,-5.22485 0.56818,-3.91106 0.56816,0.0917 0.56815,1.40559 0.56813,0.85557 0.56812,-0.0916 0.5681,0.15273 0.56809,-0.61117 0.56807,0.48893 0.56806,-3.4833 0.56804,-2.10836 1.70403,5.98894 0.56798,-2.04719 0.56797,1.86384 0.56795,-0.15277 0.56793,0.36664 0.56792,0.12218 0.56791,3.66657 0.56789,-5.77488 0.56787,-0.67224 0.56786,1.1917 0.56785,-1.06941 0.56783,1.46666 0.56782,-1.40557 0.5678,-0.94726 0.56778,5e-5 0.56777,0.24441 0.56776,3.26938 0.56774,0.0611 0.56772,-1.89441 0.56771,-1.3444 0.5677,0.36659 0.56768,-0.54997 0.56767,0.18335 0.56765,0.0611 0.56764,1.80278 0.56762,0.79439 0.5676,-1.34433 0.5676,0.61103 0.56757,-0.27496 1.13511,-0.0306 0.56753,-2e-5 0.56752,-1.77221 0.56751,0.15278 0.56748,1.25276 0.56748,-0.64161 0.56746,1.16105 0.56744,-0.15278 0.56743,4.18597 0.56741,-3.45268 0.5674,-0.0305 0.56739,-0.30559 0.56737,-0.73334 0.56735,-0.27498 0.56735,-1.61948 0.56732,-1.09998 0.56731,1.19173 0.5673,-0.24456 0.56728,1.43619 0.56727,0.94719 1.13449,-0.5194 0.56723,-1.00844 0.56721,0.21397 1.13437,-0.70281 0.56717,0.91662 0.56715,-0.15269 0.56714,1.03885 0.56712,-0.12225 0.56711,-2.01662 0.56709,-1.46668 0.56708,-0.55 0.56706,0.33613 0.56705,0.85554 0.56704,1.74165 0.56702,-1.86391 0.56701,-0.94722 0.56699,1.22223 0.56698,-0.27491 0.56696,3.60541 0.56695,-1.40549 0.56693,0.27496 0.56692,-3.29999 0.56691,1.2528 0.56689,0.6111 0.56688,-2.50557 0.56686,-1.83316 0.56685,-0.15285 0.56683,1.55834 0.56682,0.61112 1.1336,0.64152 0.56678,0.18338 0.56676,-0.24444 0.56675,-0.73334 0.56673,0.3667 0.56672,-0.55004 0.56671,-0.15274 0.56669,-2.47487 0.56667,0.18334 0.56667,1.95544 0.56665,0.0917 0.56663,-0.94714 0.56662,-0.30557 0.56661,1.64992 0.56659,-1.95547 0.56658,-0.3666 0.56656,-1.16108 1.13309,2.99431 0.56652,-2.23044 0.56651,-1.49714 0.56649,0.67213 0.56648,1.58887 1.13292,-4.52207 0.56643,0.70274 0.56643,0.45836 0.56641,-1.55831 0.56639,-0.12221 1.13275,2.01661 1.13269,-0.85548 0.56633,4.18591 0.56631,-6.44696 0.5663,-1.77213 0.56628,2.96373 0.56627,-1.34445 0.56626,1.00835 0.56624,-3.20817 0.56623,1.13053 0.56621,-2.26105 0.5662,0.12229 0.56619,-0.0611 0.56617,-1.71107 0.56616,-0.48881 0.56614,-1.64994 0.56613,-0.21389 1.13222,-2.01652 0.56609,3.05535 0.56608,0.94718 0.56606,1.5583 0.56605,-2.811 0.56603,-2.01657 0.56602,-0.94709 0.56601,0.36657 0.56599,-3.63611 0.56598,-2.8723 0.56597,-1.0694 0.56595,-2.53615 0.56594,-5.37764 0.56592,-1.22215 0.56592,-0.64175 0.56589,-1.8944 1.69761,-1.19159 0.56585,3.08602 0.56583,-0.85556 0.56581,7.6999 0.5658,0.51951 0.56579,0.82494 0.56578,5.50003 0.56576,3.51385 0.56575,-5.25558 0.56573,-0.39725 0.56572,2.78062 0.56571,-0.82497 0.5657,-0.12227 0.56568,-1.09997 0.56566,-0.70284 0.56566,-3.48324 0.56564,-0.70277 0.56562,-4.06387 0.56562,-2.10828 0.5656,3.26941 0.56558,-1.74165 0.56558,-4.39995 0.56556,-1.25275 0.56554,0.0917 0.56553,-2.2916 0.56552,0.55002 0.56551,-4.09434 0.56549,-1.83324 0.56548,0.67217 0.56547,-0.91664 0.56545,-4.2777 0.56544,1.74167 1.13084,4.70539 0.5654,1.22221 0.56539,2.23054 0.56537,-1.7722 1.1307,-2.56662 0.56534,0.12224 1.13063,6.01923 0.56529,3.29984 0.56528,-0.0305 0.56527,4.33892 0.56525,0.94717 0.56524,3.54437 1.13044,-5.59154 0.56521,-8.64698 0.56519,-3.05547 0.56517,-6.44704 0.56516,-3.45275 0.56515,-2.1083 1.13026,-5.56088 1.13021,1.80273 0.56508,5.07204 0.56507,1.37492 0.56506,-1.61945 0.56505,-3.2082 0.56503,-4.15532 1.13002,-18.8218 0.56499,-13.50521 0.56498,-6.29428 0.56497,-13.2301 0.56496,-2.4138 0.56494,-6.72208 0.56493,1.77216 0.56491,7.94433 0.5649,2.90275 0.56489,3.81935 0.56488,12.40502 0.56486,4.46095 0.56485,6.08054 0.56484,-2.16936 0.56483,1.98602 0.56481,-0.88606 0.5648,0.97766 0.56479,-1.61941 0.56477,0.61114 0.56476,-1.52766 0.56475,0.70269 0.56473,-0.1222 0.56473,-3.26934 0.56471,-8.40265 1.12938,-9.93018 0.56467,-9.04426 0.56466,-3.39161 0.56465,-1.83321 0.56463,1.09993 0.56462,9.41095 0.56461,4.70541 0.5646,13.5356 0.56458,5.59152 0.56457,7.69982 0.56456,2.87204 0.56454,2.2611 0.56454,-6.29422 0.56452,-3.45272 1.129,-11.15243 0.56448,-6.38589 0.56447,-9.8692 0.56446,-4.94994 0.56444,-8.70814 0.56444,-1.37496 0.56441,-6.04983 0.56441,-1.34437 0.5644,-1.95553 0.56438,1.40551 0.56437,3.57493 0.56436,9.31918 0.56434,3.60549 0.56433,12.55815 0.56432,-0.0611 1.1286,-7.69976 0.56429,-4.98065 0.56427,-15.98012 0.56426,-11.06092 0.56424,-13.2912 0.56423,-4.1555 0.56422,2.04725 0.56421,-2.07775 0.5642,2.65835 0.56418,-1.13052 0.56417,1.52774 0.56416,-0.36658 0.56415,1.86378 0.56413,-1.83325 0.56413,1.3444 0.56411,3.20825 0.56409,-0.12223 0.56409,5.01084 0.56407,6.20263 0.56406,8.98303 0.56405,17.63034 0.56404,7.85266 0.56402,12.7716 0.56401,-0.73336 0.564,-5.4692 0.56399,-10.08306 0.56398,-19.12733 0.56396,-7.76101 0.56395,-4.24711 0.56394,-9.53285 0.56393,-1.13048 0.56391,0.21386 0.56391,0.79437 0.56389,10.11351 0.56388,1.40544 0.56386,3.81942 0.56386,-11.97732 0.56384,-6.66087 0.56383,-10.78602 0.56382,-3.60547 0.5638,-35.35179 0.5638,-7.97482 0.56378,-17.93556 1.12753,-18.14956 0.56375,11.82473 0.56373,6.69151 0.56372,35.90175 0.56371,5.95818 0.5637,7.91351 0.56369,5.13321 0.56367,13.16913 1.12732,20.53278 0.56364,22.5801 0.56362,8.03595 0.56362,-19.4635 0.5636,-14.08569 0.5636,-49.80406 0.56358,-29.27151 0.56356,-42.226672 0.56356,-13.841253 0.56354,-7.791385 0.56354,26.124038 0.56352,8.096992 0.56351,46.84042 0.56349,-0.67208 0.56349,8.83043 0.56347,-3.60546 0.56347,-1.77231 0.56345,0.15286 0.56343,0.54993 0.56343,22.42704 0.56342,6.81368 0.5634,35.10749 0.56339,0.30555 0.56338,2.41382 0.56337,-18.36341 0.56336,-14.39131 0.56334,-37.73517 0.56334,-11.76359 0.56332,13.93311 0.56331,4.43044 0.5633,24.93263 0.56329,7.57766 0.56327,13.71918 0.56327,-6.75275 0.56325,-3.85 0.56324,-13.99406 0.56323,-2.19991 0.56322,-6.50812 0.56321,8.46366 0.56319,31.86857 1.68952,50.41529 0.56315,7.21088 0.56313,4.39994 0.56313,1.95548 0.56311,13.0163 0.56311,-0.42781 0.56309,1.00831 1.12615,-4.64422 1.1261,6.38591 0.56304,8.40266 0.56302,-2.07769 0.56302,-1.43607 0.563,-13.47476 0.56299,-20.37997 0.56297,-2.93323 0.56297,0.42779 0.56296,23.6186 0.56294,5.95818 0.56294,-1.58883 0.56292,-5.86653 0.56291,-12.03857 0.5629,2.0167 1.12576,5.04155 0.56287,1.13057 0.56285,19.95229 0.56285,3.42214 0.56283,14.3301 0.56282,5.0721 0.56281,13.9024 1.12559,0.82497 0.56278,4.43065 0.56276,3.45277 1.1255,-0.82497 0.56273,6.14138 0.56272,-0.58056 0.56271,0.73331 0.5627,-0.51945 0.56269,0.48889 0.56267,3.81916 0.56267,0.85557 0.56265,0.61112 0.56265,-1.00835 1.12525,-1.25272 0.56261,2.59716 0.5626,-1.28333 0.56259,-0.0611 0.56258,2.44433 0.56257,-0.54997 0.56255,1.5583 0.56255,0.39719 0.56253,1.68049 0.56253,-0.42773 0.56251,1.22222 0.5625,-1.25283 0.56249,0.36665 0.56248,-2.10823 0.56247,-1.49717 0.56246,3.29991 0.56244,0.12215 0.56244,6e-5 1.12484,-1.28325 0.56241,0.3666 0.56239,0.88612 0.56238,2.68873 0.56237,-2.16932 0.56236,-3.57485 0.56236,1.64985 0.56233,4.36929 0.56233,-0.73332 0.56232,0.33613 0.56231,1.28324 0.56229,-1.68035 1.12457,-1.55838 0.56226,4.39988 0.56225,-2.62772 0.56225,-0.48888 0.56223,0.48889 0.56222,2.38327 0.56221,0.21387 0.56221,-1.43605 0.56219,0.70269 0.56218,-1.34433 0.56216,2.47494 0.56216,-1.74166 0.56215,3.05555 0.56214,-3.48336 0.56213,0.79441 0.56211,1.49724 0.56211,-2.01664 0.56209,0.67218 0.56209,-0.5194 1.12414,-1.37498 0.56205,1.06939 0.56204,0.79445 0.56204,-0.39721 0.56202,2.38335 1.12401,-2.47503 0.56199,0.33615 0.56198,1.68058 0.56197,0.61107 0.56196,2.01667 0.56195,-1.83333 0.56194,-2.2305 0.56193,1.34439 1.12383,0.8556 0.56189,-0.91666 0.56189,0.0916 0.56188,-0.36662 0.56187,1.22218 0.56185,1.65002 1.12368,-1.28338 0.56183,-1.25272 0.56181,1.71108 0.56181,-0.73327 0.5618,-1.03894 0.56178,2.01673 0.56178,-0.42781 0.56176,-1.31394 0.56175,0.0917 0.56175,1.89443 0.56173,0.36673 1.12344,0.0917 0.5617,-0.0612 0.5617,-2.5361 0.56168,-1.89445 0.56167,5.22497 0.56167,-0.94715 0.56165,-0.67226 0.56164,-1.09995 0.56164,1.22218 0.56162,-0.85557 0.56161,-0.39721 0.56161,1.95554 0.56159,-1.49713 0.56158,1.3444 0.56158,-0.6416 0.56156,0.24436 0.56155,0.88618 0.56154,0.61109 1.12306,-3.23895 0.56151,-1.00832 0.56151,-1.64997 0.56149,2.71939 0.56148,0.45839 0.56148,1.74167 0.56146,0.45834 0.56146,1.28324 0.56144,-1.09998 0.56144,-1.61947 0.56142,2.99444 0.56141,-0.82493 0.56141,-1.06947 0.56139,-2.26107 0.56139,0.24441 0.56137,1.46674 0.56137,1.986 0.56135,-2.59716 0.56135,-1.74162 0.56134,1.86384 0.56132,-0.0611 0.56132,1.77216 0.56131,-0.85545 0.56129,-0.48894 0.56129,3e-5 1.12255,-1.31388 0.56126,0.27504 0.56125,0.7333 0.56123,0.33616 0.56123,1.03882 0.56122,-1.06945 0.56121,-0.15284 0.5612,3.84997 0.5612,-2.16936 0.56118,0.45832 0.56117,-1.34441 1.12231,-1.28328 0.56115,-0.27506 1.12225,2.56662 0.56112,3.66653 0.5611,-2.32216 0.5611,-5.2249 0.56109,0.82503 0.56107,3.36106 0.56107,-1.13059 0.56106,1.65002 0.56105,-1.03889 0.56104,-0.79441 0.56102,-2.1083 0.56102,-1.06943 0.56101,1.89443 0.56101,0.0917 0.56099,0.48887 0.56098,1.46664 0.56097,2.68884 0.56097,-1.22218 0.56095,-3.11659 0.56095,0.0611 0.56093,-1.52778 0.56093,-0.39725 1.12182,2.19995 0.5609,2.2305 0.56089,0.61119 0.56088,-1.52775 0.56087,-2.50552 0.56086,0.94722 1.12169,-1.95558 0.56084,0.64162 0.56082,-0.64161 0.56082,4.39999 0.5608,-0.91668 0.5608,-0.64158 0.56079,-1.28328 0.56078,0.24434 0.56077,-1.16109 0.56076,-0.0611 0.56075,1.8945 0.56074,0.21384 0.56073,0.85553 0.56072,-0.94727 0.56072,1.28334 0.56071,0.33617 0.56069,0.91662 0.56069,-0.8556 0.56068,1.16111 0.56067,-2.56654 1.12131,2.84153 0.56064,-0.8555 0.56063,0.91664 0.56063,-2.53609 0.56061,-1.80275 0.56061,0.85557 0.5606,1.71102 0.56058,-1.40545 0.56058,0.0916 0.56057,-1.09999 0.56057,0.70282 0.56055,2.16934 0.56054,-1.09994 0.56053,0.45828 0.56053,-0.51942 0.56052,0.18337 0.56051,1.09996 0.5605,-1.83327 0.56049,1.77216 0.56048,-1.71109 0.56047,-2.23057 1.12092,2.53615 0.56045,0.18335 0.56043,1.25272 0.56043,0.4278 0.56042,-2.81113 0.56041,-1.8944 0.56041,1.4667 0.56039,0.58048 0.56038,-0.2749 0.56038,1.06946 0.56037,0.79437 0.56036,0.42774 0.56035,-1.06945 0.56034,-1.46661 0.56033,0.85552 1.12064,4.03323 0.56031,-3.0249 0.5603,-0.85552 0.56029,2.44438 0.56028,-2.04714 0.56027,2.41375 0.56027,-1.64994 0.56025,-2.26105 0.56025,1.71101 0.56023,2.6889 0.56023,-1.19163 0.56023,0.15275 0.56021,-4.18605 0.5602,-0.24438 0.5602,1.31385 0.56019,-0.24444 0.56017,0.76391 0.56017,0.2139 0.56017,1.16101 0.56015,-0.0305 0.56014,-0.18339 0.56014,-2.41385 0.56013,0.36667 0.56012,2.50552 0.56011,-1.77214 0.5601,0.1833 0.5601,2.26104 0.56008,0.5805 0.56008,-2.10826 0.56007,-1.00825 0.56006,2.35267 0.56005,1.43607 0.56005,-2.16937 0.56003,-0.30554 0.56003,0.97776 0.56002,-1.46657 0.56001,1.83322 0.56,-0.67224 0.56,-2.04712 0.55998,1.31386 0.55998,-0.21396 0.55997,1.19171 0.55996,0.42772 0.55996,-0.0305 1.67981,-3.33055 0.55992,-1.52772 0.55991,6.32485 1.1198,-4.09432 0.55989,1.00838 0.55988,0.33599 0.55987,0.94721 0.55986,-2.56653 0.55986,0.94718 0.55985,-0.61108 0.55984,1.49718 0.55983,-1.25279 0.55982,-0.51943 0.55982,1.03893 0.5598,0.79438 1.11959,0.67215 0.55979,-1.89438 1.11954,0.1528 0.55976,-0.48882 0.55975,0.58053 0.55974,-0.76396 0.55974,-0.54998 0.55972,1.1 0.55972,-0.76381 0.55972,1.49715 0.5597,-0.51939 0.55969,2.41375 0.55969,-3.39156 0.55968,0.51943 0.55967,-0.0305 0.55967,-1.55831 0.55965,1.49717 0.55965,-0.0611 0.55964,1.61933 0.55964,-1.92484 0.55962,1.9249 0.55962,0.6722 0.55961,0.12224 1.11919,-1.52773 0.55959,2.26101 0.55958,-0.51946 0.55957,-0.15275 0.55956,-3.42219 0.55956,-1.40553 0.55955,2.68887 0.55954,0.0305 0.55953,5.98879 0.55952,-3.42215 0.55952,-2.44432 0.55951,-0.0306 0.5595,1.00831 0.55949,0.45826 v 0"
           clip-path="url(#pdd347a50ad)"
           style="fill:none;stroke:#1f77b4;stroke-width:1.5;stroke-linecap:square"
           id="path316" />
      </g>
      <g
         id="line2d_13">
        <path
           d="m 115.36364,365.38765 0.57037,-1.31389 0.57036,-0.76391 0.57034,2.23055 0.57032,-0.67225 0.57031,-0.0916 0.57029,-1.64994 0.57027,0.61108 0.57026,-0.48888 0.57024,1.64994 0.57023,-1.61937 0.5702,-0.18338 0.57019,-2.90258 0.57018,2.84154 0.57016,4.03314 0.57014,-5.43868 0.57012,-1.77207 0.57011,1.95538 0.5701,-1.00826 0.57007,4.7665 0.57006,-2.0472 0.57005,0.0611 0.57002,-0.76388 0.57001,0.0306 0.57,1.25274 0.56998,2.7804 0.56996,-6.63023 0.56994,-1.31382 0.56993,5.43859 0.56991,-1.68044 0.5699,-0.12227 0.56988,-1.86382 0.56986,2.32221 0.56985,-3.72764 0.56983,0.76388 0.56982,1.83321 0.5698,-1.86385 0.56978,-0.67209 0.56976,0.21377 0.56975,2.16939 0.56974,-0.36666 0.56971,0.12226 0.56971,2.26102 1.13935,-3.88039 0.56965,-0.79442 0.56964,4.49145 0.56962,-1.92493 0.5696,0.36666 0.56959,-1.03888 1.13913,2.47493 0.56954,-2.35268 0.56952,2e-5 0.56951,-0.55 0.56949,0.73331 1.13894,4.1554 0.56944,-3.94152 0.56943,1.03887 0.56941,-0.0305 0.5694,-1.98613 0.56938,2.19995 0.56936,-0.7333 0.56935,1.52774 0.56933,-1.68054 0.56931,2.26107 0.5693,-3.69709 0.56929,0.18333 0.56926,1.06941 0.56926,-0.36669 0.56923,1.19166 0.56922,-1.09998 0.56921,0.82501 0.56918,-3.84984 0.56918,0.97776 0.56915,3.20813 0.56914,-1.5888 0.56913,4.15535 0.56911,-2.9332 0.56909,-0.79435 1.13814,0.33604 0.56905,0.61109 0.56903,1.03885 0.56901,-2.53601 0.569,-0.12223 0.56898,2e-5 0.56897,-0.33608 0.56895,1.09996 0.56894,-1.4361 0.56892,2.04717 0.5689,-1.9249 0.56889,-1.00827 0.56887,1.1305 0.56886,-1.46661 0.56884,3.05542 0.56883,-0.33614 0.56881,0.36667 0.56879,-1.06945 0.56878,0.79447 0.56876,-1.37491 0.56875,-0.67223 0.56873,4.03313 0.56872,-1.43606 0.5687,-3.20812 0.56869,2.65821 0.56867,1.06937 0.56865,-0.82499 0.56864,-0.15276 0.56862,-0.5805 0.56861,-2.13884 0.5686,0.12228 0.56857,1.40541 0.56856,1.86387 0.56855,-0.12228 0.56853,0.64173 0.56852,-3.94148 0.56849,-0.97772 0.56849,3.3915 0.56847,-1.61945 0.56845,0.36674 0.56844,-0.64169 0.56842,0.6111 0.56841,-1.58883 0.56839,1.68049 0.56838,3.78871 0.56836,-1.77217 0.56834,1.06943 0.56834,-3.48321 0.56831,1.31389 0.5683,-1.6194 0.56828,0.24448 0.56827,-0.82502 0.56826,1.80269 0.56824,0.275 0.56822,-0.21391 0.56821,-2.19986 0.56819,-0.0611 0.56818,1.00833 0.56816,-1.71105 1.13628,3.05539 0.56812,-1.4055 0.5681,0.85552 0.56809,-2.16933 0.56807,1.06943 0.56806,-0.0306 0.56804,2.74985 0.56802,-3.11647 0.56801,1.37497 0.568,-0.12225 0.56798,-0.3972 0.56797,-0.54993 0.56795,-1.06944 0.56793,0.0306 0.56792,0.3666 0.56791,1.89438 0.56789,-1.74163 0.56787,1.00829 0.56786,-0.58052 0.56785,-2.96373 0.56783,1.86379 0.56782,-1.28325 0.5678,-0.64162 0.56778,0.36665 1.13553,2.78039 0.56774,-0.21386 0.56772,1.61932 0.56771,-2.41379 0.5677,3.20822 0.56768,-3.29983 0.56767,0.0611 0.56765,-0.88607 0.56764,0.36668 0.56762,1.25269 0.5676,-1.52773 0.5676,0.70279 0.56757,-1.4055 0.56756,0.58052 0.56755,-0.27498 0.56753,0.70278 0.56752,-2.26107 0.56751,-0.18327 0.56748,1.64987 1.13494,-3.23873 0.56744,1.09996 0.56743,2.01657 0.56741,-1.46658 0.5674,1.16102 0.56739,0.54992 0.56737,-2.71931 0.56735,2.35274 0.56735,-1.74161 0.56732,0.0917 0.56731,-0.18332 0.5673,0.97774 0.56728,-1.0694 0.56727,0.48888 0.56725,0.73328 0.56724,-0.42777 0.56723,2.38329 0.56721,-1.0083 0.56719,4.36917 0.56718,-3.5137 0.56717,-1.4666 0.56715,-3.42202 0.56714,1.09994 0.56712,0.85552 1.1342,-1.92494 0.56708,0.4889 0.56706,0.0917 0.56705,0.39722 0.56704,-0.0611 0.56702,3.72763 0.56701,-0.61109 0.56699,-2.29157 0.56698,-0.36664 0.56696,1.25275 0.56695,-0.85553 0.56693,-1.34439 0.56692,0.76379 0.56691,2.38329 0.56689,-4.61371 0.56688,-1.13048 0.56686,2.81095 0.56685,-1.55819 0.56683,-0.39727 0.56682,-0.18328 0.56681,-0.94731 0.56679,-0.061 0.56678,-0.21396 0.56676,-0.79445 0.56675,-1.5889 0.56673,3.60561 0.56672,-2.07772 0.56671,-0.12229 0.56669,0.0612 0.56667,0.94717 0.56667,-2.59728 0.56665,-1.06944 0.56663,3.66674 1.13323,-1.8945 0.56659,-0.27498 0.56658,0.94724 0.56656,-1.3444 0.56655,0.27492 0.56654,-1.00839 0.56652,-1.25273 0.56651,1.34442 0.56649,-1.37497 0.56648,1.8639 0.56647,1.06934 0.56645,1.95561 0.56643,-7.33324 0.56643,-0.8556 0.56641,2.47496 0.56639,-0.30557 0.56638,1.86389 0.56637,-0.82499 0.56635,-1.61942 0.56634,-0.5805 0.56633,1.95544 0.56631,-0.97777 0.5663,-1.95547 0.56628,1.4972 0.56627,-1.98605 0.56626,-4.2472 0.56624,1.52778 0.56623,4.03317 0.56621,-1.34436 0.5662,0.45832 0.56619,-1.49713 1.13233,-5.04166 0.56614,0.79446 0.56613,1.83327 0.56612,-0.0916 0.5661,0.45833 0.56609,-4.55275 0.56608,1.00832 0.56606,4.27777 1.13208,-2.78053 1.13203,5.16382 0.56599,-6.32495 0.56598,-2.13884 0.56597,-0.88607 0.56595,-0.67225 0.56594,0.27503 0.56592,-0.48889 0.56592,1.95551 0.56589,-0.48885 0.56589,-1.00829 0.56587,0.33612 0.56585,2.84159 0.56585,-6.69148 0.56583,-2.78041 0.56581,5.04148 1.69737,-2.99435 0.56576,-0.76389 0.56575,-1.16109 0.56573,0.88613 0.56572,-2.32213 0.56571,-0.97776 0.5657,1.34443 1.13134,-2.53605 0.56566,0.58054 0.56564,0.27501 1.13124,-1.03888 0.5656,2.01662 0.56558,-1.71113 0.56558,-2.3833 0.56556,0.67226 0.56554,3.23876 0.56553,-0.54992 0.56552,0.73333 1.131,-4.94988 0.56548,4.39987 0.56547,-1.83326 0.56545,-1.16103 0.56544,0.33607 0.56543,-6e-5 0.56541,-2.87221 0.5654,0.33613 0.56539,0.94723 0.56537,-1.68053 0.56536,0.73327 0.56534,-1.64999 0.56534,-0.4278 0.56532,0.0612 0.56531,0.21386 0.56529,-0.0611 0.56528,-0.42776 0.56527,1.00835 0.56525,-1.65005 0.56524,1.34442 0.56523,-1.19165 0.56521,0.27502 0.56521,-1.77217 0.56519,0.4278 0.56517,3.08602 0.56516,-1.49714 0.56515,-2.10827 0.56514,-0.61116 0.56512,0.54997 0.56511,-0.0917 0.5651,-0.33605 0.56508,-3.20817 0.56507,-0.45828 0.56506,0.0305 0.56505,-0.94716 0.56503,0.30557 0.56502,-0.58057 0.565,1.37492 1.12997,-7.27198 0.56497,1.58898 0.56496,0.91658 0.56494,-4.49164 0.56493,-1.49724 1.12981,-1.83336 0.56489,0.9472 0.56488,-1.74165 0.56486,0.27509 0.56485,0.48883 0.56484,-1.46665 0.56483,2.50555 0.56481,-2.62768 0.5648,-2.01661 0.56479,-0.33608 0.56477,2.19989 0.56476,-0.0306 0.56475,0.58063 0.56473,-5.04154 0.56473,-1.86384 0.56471,3.45271 0.5647,-2.41389 0.56468,0.36669 0.56467,-1.58886 0.56466,0.94724 0.56465,1.19163 0.56463,-0.36669 0.56462,-0.73331 1.12921,-3.54434 0.56458,-1.46653 0.56457,0.0306 0.56456,1.43599 0.56454,1.77217 0.56454,0.54992 0.56452,-2.23045 0.5645,2.1694 1.12898,-2.29155 0.56447,-1.19161 0.56446,1.06936 0.56444,-1.98597 0.56444,0.15277 0.56441,-2.68891 0.56441,-1.37498 0.5644,-0.48894 0.56438,-2.90268 0.56437,-1.22218 0.56436,1.03884 0.56434,1.68059 0.56433,-4.7055 1.12863,-2.4749 0.56429,0.42774 0.56429,2.6583 0.56427,1.55823 1.1285,6.66109 0.56423,1.64989 0.56422,-0.12213 0.56421,-2.87225 h 0.5642 l 0.56418,0.12225 0.56417,0.91666 0.56416,-4.18606 0.56415,-1.37499 0.56413,-4.91929 h 0.56413 l 0.56411,1.03887 0.56409,-1.58887 0.56409,-1.00828 1.12813,1.4666 0.56405,3.63597 0.56404,0.6722 0.56402,4.00271 0.56401,0.73339 0.564,-2.99448 0.56399,-0.54998 0.56398,2.38329 1.12791,-7.66912 0.56394,1.09988 0.56393,3e-5 0.56391,1.0083 0.56391,-2.04718 0.56389,2.99439 0.56388,0.0305 0.56386,1.09997 0.56386,-2.32215 0.56384,0.12224 0.56383,-2.1694 0.56382,-0.15274 0.5638,0.67218 0.5638,-1.22218 0.56378,1.58883 0.56377,-1.68053 0.56376,-0.18332 0.56375,3.97208 0.56373,1.8333 0.56372,5.34716 0.56371,-0.45834 0.5637,3.75832 0.56369,-2.93335 0.56367,-2.26115 0.56367,-0.39721 1.12729,0.48896 0.56362,1.06939 0.56362,0.76388 0.5636,-3.17766 0.5636,-1.89448 0.56358,-0.42773 0.56356,2.2 0.56356,-0.15279 0.56354,0.48882 0.56354,-0.76391 0.56352,0.7028 0.56351,4.09446 0.56349,-1.2222 0.56349,1.00831 0.56347,-0.15276 0.56347,0.1527 0.56345,1.0695 0.56343,1.55822 0.56343,2.50543 0.56342,-0.45824 0.5634,1.68049 0.56339,-0.30558 0.56338,3.66657 0.56337,-1.06943 0.56336,-0.30552 0.56334,0.21384 0.56334,0.88608 0.56332,0.61113 0.56331,-1.58887 0.5633,3.361 0.56329,-1.46662 0.56327,-0.0916 0.56327,1.61924 0.56325,2.75003 0.56324,-3.94158 0.56323,1.80275 0.56322,5.13319 0.56321,-1.25275 0.56319,1.13059 0.56318,0.27499 0.56318,0.67216 0.56316,5.65275 0.56315,0.48885 0.56313,1.25272 0.56313,-0.85552 0.56311,3.29985 0.56311,-3.02489 0.56309,1.80273 0.56308,-0.67222 0.56307,0.45834 1.1261,4.06371 0.56304,1.80264 0.56302,-2.41378 0.56302,3.94156 0.563,-0.97773 0.56299,0.0916 0.56297,1.74175 0.56297,0.30549 0.56296,0.55006 0.56294,1.09996 0.56294,1.65 0.56292,-0.70277 0.56291,2.32209 0.5629,-0.73327 0.56289,0.27499 1.12574,4.70538 0.56285,3.48316 0.56285,-1.43603 0.56283,-2.29157 0.56282,0.3972 0.56281,5.25536 0.5628,-1.16115 0.56279,0.0918 1.12554,2.23042 0.56276,2.32222 0.56274,-2.04719 0.56273,0.91667 0.56272,-0.94727 0.56271,1.5889 0.5627,2.16949 0.56269,3.3915 0.56267,-2.78043 0.56267,-0.12225 0.56265,1.74166 0.56265,-1.1916 0.56263,-0.33611 0.56262,2.23048 0.56261,1.74158 0.5626,-0.0305 0.56259,0.97776 0.56258,3.85002 1.12512,-2.13895 0.56255,0.39727 0.56253,0.12224 0.56253,0.79458 0.56251,4.18605 0.5625,-5.19445 0.56249,-0.51954 0.56248,0.94732 0.56247,-1.74168 0.56246,0.79444 0.56244,1.1611 0.56244,2.2611 1.12484,0.2139 0.56241,-0.39717 1.12477,0.12215 0.56237,0.21394 0.56236,4.70541 0.56236,-0.58048 0.56233,-0.0917 0.56233,-1.4971 0.56232,-0.55009 0.56231,2.90268 0.56229,-1.43605 0.56229,-3.02498 0.56228,0.94729 0.56226,2.84157 0.56225,-0.9166 0.56225,0.79436 0.56223,0.36666 0.56222,0.51942 0.56221,3.02484 1.1244,-3.60537 0.56218,-0.48885 0.56216,1.68045 0.56216,-0.21388 0.56215,3e-5 0.56214,-0.58064 0.56213,-0.85548 0.56211,3.20826 0.56211,-1.80273 0.56209,1.95547 0.56209,0.0611 0.56207,1.00832 0.56207,-1.80273 0.56205,0.0917 0.56204,-0.825 0.56204,-1.61934 0.56202,3.08599 0.56201,-1.89443 0.562,6.84415 0.56199,-4.73585 0.56198,-0.58052 1.12393,2.71933 1.12389,-2.7499 0.56193,3.78876 0.56192,-1.68055 1.1238,-0.58052 0.56189,2.68875 0.56188,-3.14704 0.56187,0.33609 0.56185,-1.98604 0.56185,-0.85555 0.56183,4.73596 0.56183,-1.31384 0.56181,1.98603 0.56181,-5.43872 0.5618,-3.02487 0.56178,4.12491 0.56178,1.31383 0.56176,2.23045 0.56175,-0.45836 0.56175,2.13883 0.56173,-2.41381 0.56173,-0.21385 0.56171,-0.36665 0.5617,0.0916 0.5617,3.39151 0.56168,-2.53604 1.12334,-0.54993 0.56165,0.61111 0.56164,0.0305 0.56164,2.41375 0.56162,-1.58879 0.56161,0.64163 0.56161,-0.48881 0.56159,-1.43607 0.56158,0.91668 0.56158,-0.0612 0.56156,3.17765 0.56155,-2.6277 0.56154,0.64165 0.56154,-1.80265 0.56152,-0.27501 0.56151,1.46659 0.56151,-0.88609 0.56149,1.31386 1.12296,-0.73334 0.56146,-0.30552 0.56146,0.91665 0.56144,0.2444 0.56144,-2.32209 0.56142,1.03888 0.56141,0.27493 1.1228,2.84153 0.56139,1.92488 0.56137,-4.03313 0.56137,2.47494 0.56135,-0.64164 0.56135,-1.25278 0.56134,-1.77209 0.56132,-0.39724 0.56132,1.58883 0.56131,-1.1916 0.56129,0.21392 0.56129,0.8249 0.56128,0.33611 0.56127,0.54995 0.56126,-0.70276 0.56125,1.86384 0.56123,-2.19994 0.56123,0.15281 0.56122,0.39717 0.56121,2.68879 0.5612,-1.71099 0.5612,-1.13055 0.56118,3.84986 0.56117,-2.71937 0.56116,-1.77207 0.56115,0.0611 0.56115,2.16934 0.56113,-0.0917 0.56112,1.80271 0.56112,-2.2304 0.5611,-1.49722 0.5611,2.71934 1.12216,-1.06934 0.56107,-0.27501 0.56106,-1.22214 0.56105,2.41368 0.56104,0.18337 0.56102,-0.85554 0.56102,-1.58881 0.56101,1.06945 0.56101,-2.01662 0.56099,0.91666 0.56098,-0.45835 0.56097,1.95548 1.12192,-3.26927 0.56095,1.8638 0.56093,-0.61112 0.56093,1.92497 0.56091,-1.89442 0.56091,0.45835 1.12179,2.32209 0.56088,0.30558 0.56087,-0.24445 0.56086,0.70278 0.56085,-2.1083 0.56084,-0.58048 0.56084,-1.98603 0.56082,-0.30548 0.56082,3.54415 0.5608,0.825 0.5608,-1.64987 0.56079,0.85546 0.56078,2.10827 0.56077,-2.2305 0.56076,1.49718 0.56075,-2.536 0.56074,-0.48881 0.56073,1.22214 0.56072,-2.19989 0.56072,0.79444 0.56071,-0.12229 0.56069,3.63596 0.56069,-1.34446 0.56068,0.45837 0.56067,0.85547 0.56066,1.06948 0.56065,-1.98603 0.56064,-1.40552 0.56063,1.86382 1.12124,-2.47489 0.56061,0.8555 0.5606,1.83329 0.56058,-3.05542 1.12115,0.76386 0.56057,-1.92491 0.56055,2.62766 0.56054,-1.80275 0.56053,0.3056 0.56053,-1.49715 0.56052,0.97777 0.56051,0.15276 0.5605,-0.33615 0.56049,6.2636 1.12095,-4.73591 0.56046,0.33604 0.56046,1.37501 0.56045,-3.17764 0.56043,0.70278 0.56043,2.41376 0.56042,-1.22223 0.56041,1.10002 0.56041,-0.21397 0.56039,1.10002 1.12076,-1.74162 0.56037,-1.37492 0.56036,-1.06933 0.56035,3.57478 0.56034,-0.15284 0.56033,1.65 0.56033,-2.65824 0.56031,-2.10819 0.56031,1.03881 0.5603,3.08604 0.56029,-1.95552 0.56028,-1.52771 0.56027,7.69967 1.12052,-7.66907 0.56025,-1.1 0.56023,0.70281 0.56023,1.68037 0.56023,2.26108 0.56021,-2.13878 0.5602,-1.61939 0.5602,0.55003 0.56019,1.98595 0.56017,2.81099 0.56017,-4.43036 0.56017,-1.55821 1.12029,1.89428 0.56014,0.0917 0.56013,-0.30558 0.56012,0.91669 0.56011,-0.64171 0.5601,1.8944 0.5601,-3.60538 0.56008,-0.0305 0.56008,1.31381 0.56007,-1.61945 0.56006,1.25275 0.56005,0.1528 1.12008,-0.21394 0.56003,3.14716 1.12003,-2.41383 0.56,1.64994 0.56,-1.43612 0.55998,1.80278 0.55998,-0.79446 0.55997,-0.3055 0.55996,-0.9167 0.55996,1.86386 0.55994,1.28325 0.55994,-1.89431 0.55993,-0.0612 0.55992,-0.18335 0.55991,0.15284 0.5599,-0.88616 0.5599,1.68056 0.55989,-0.0917 0.55988,2.53605 0.55987,-1.77215 0.55986,-2.3527 0.55986,2.96379 0.55985,-1.95553 0.55984,0.30558 0.55983,-1.40553 0.55982,-0.64156 0.55982,-0.42784 0.5598,1.0389 0.5598,1.46658 0.55979,-1.83329 0.55979,1.40552 0.55977,-0.39718 0.55977,1.22221 0.55976,0.0305 0.55975,3.11655 0.55974,-6.17197 0.55974,-0.79437 0.55972,5.22476 0.55972,-1.49721 0.55972,-2.23038 0.5597,0.61102 0.55969,2.4138 0.55969,-3.05543 0.55968,0.88608 0.55967,-0.1833 0.55967,-1.43605 0.55965,4.73593 0.55965,-0.4584 0.55964,-2.16932 0.55964,0.0611 0.55962,1.92492 0.55962,-1.03884 0.55961,1.77217 0.5596,0.30555 0.55959,-1.86382 0.55959,-2.71927 0.55958,0.64156 0.55957,2.50545 0.55956,-4.0331 0.55956,-0.61106 0.55955,2.81094 0.55954,2.23047 0.55953,-1.49715 0.55952,0.0305 0.55952,-2.23039 0.55951,1.09991 0.5595,0.54999 0.55949,-1.13055 v 0"
           clip-path="url(#pdd347a50ad)"
           style="fill:none;stroke:#ff7f0e;stroke-width:1.5;stroke-linecap:square"
           id="path319" />
      </g>
      <g
         id="patch_3">
        <path
           d="M 90,384.48 V 51.84"
           style="fill:none;stroke:#000000;stroke-width:0.8;stroke-linecap:square;stroke-linejoin:miter"
           id="path322" />
      </g>
      <g
         id="patch_4">
        <path
           d="M 648,384.48 V 51.84"
           style="fill:none;stroke:#000000;stroke-width:0.8;stroke-linecap:square;stroke-linejoin:miter"
           id="path325" />
      </g>
      <g
         id="patch_5">
        <path
           d="M 90,384.48 H 648"
           style="fill:none;stroke:#000000;stroke-width:0.8;stroke-linecap:square;stroke-linejoin:miter"
           id="path328" />
      </g>
      <g
         id="patch_6">
        <path
           d="M 90,51.84 H 648"
           style="fill:none;stroke:#000000;stroke-width:0.8;stroke-linecap:square;stroke-linejoin:miter"
           id="path331" />
      </g>
      <g
         id="text_14">
        <!-- Avaraged Laser spectrum no feedback lasing at 25mA -->
        <g
           transform="matrix(0.216,0,0,-0.216,75.823875,45.84)"
           id="g447">
          <defs
             id="defs345">
            <path
               id="DejaVuSans-41"
               d="M 2188,4044 1331,1722 h 1716 z m -357,622 h 716 L 4325,0 H 3669 L 3244,1197 H 1141 L 716,0 H 50 Z"
               transform="scale(0.015625)" />
            <path
               id="DejaVuSans-72"
               d="m 2631,2963 q -97,56 -211,82 -114,27 -251,27 -488,0 -749,-317 -261,-317 -261,-911 V 0 H 581 v 3500 h 578 v -544 q 182,319 472,473 291,155 707,155 59,0 131,-8 72,-7 159,-23 z"
               transform="scale(0.015625)" />
            <path
               id="DejaVuSans-64"
               d="m 2906,2969 v 1894 h 575 V 0 H 2906 V 525 Q 2725,213 2448,61 2172,-91 1784,-91 1150,-91 751,415 353,922 353,1747 q 0,825 398,1331 399,506 1033,506 388,0 664,-152 277,-151 458,-463 z M 947,1747 q 0,-634 261,-995 261,-361 717,-361 456,0 718,361 263,361 263,995 0,634 -263,995 -262,361 -718,361 -456,0 -717,-361 -261,-361 -261,-995 z"
               transform="scale(0.015625)" />
            <path
               id="DejaVuSans-4c"
               d="m 628,4666 h 631 V 531 H 3531 V 0 H 628 Z"
               transform="scale(0.015625)" />
            <path
               id="DejaVuSans-70"
               d="M 1159,525 V -1331 H 581 v 4831 h 578 v -531 q 182,312 458,463 277,152 661,152 638,0 1036,-506 399,-506 399,-1331 0,-825 -399,-1332 -398,-506 -1036,-506 -384,0 -661,152 -276,152 -458,464 z m 1957,1222 q 0,634 -261,995 -261,361 -717,361 -457,0 -718,-361 -261,-361 -261,-995 0,-634 261,-995 261,-361 718,-361 456,0 717,361 261,361 261,995 z"
               transform="scale(0.015625)" />
            <path
               id="DejaVuSans-63"
               d="m 3122,3366 v -538 q -244,135 -489,202 -245,67 -495,67 -560,0 -870,-355 -309,-354 -309,-995 0,-641 309,-996 310,-354 870,-354 250,0 495,67 245,67 489,202 V 134 Q 2881,22 2623,-34 2366,-91 2075,-91 1284,-91 818,406 353,903 353,1747 q 0,856 470,1346 471,491 1290,491 265,0 518,-55 253,-54 491,-163 z"
               transform="scale(0.015625)" />
            <path
               id="DejaVuSans-75"
               d="m 544,1381 v 2119 h 575 V 1403 q 0,-497 193,-746 194,-248 582,-248 465,0 735,297 271,297 271,810 v 1984 h 575 V 0 H 2900 V 538 Q 2691,219 2414,64 2138,-91 1772,-91 1169,-91 856,284 544,659 544,1381 Z m 1447,2203 z"
               transform="scale(0.015625)" />
            <path
               id="DejaVuSans-6f"
               d="m 1959,3097 q -462,0 -731,-361 -269,-361 -269,-989 0,-628 267,-989 268,-361 733,-361 460,0 728,362 269,363 269,988 0,622 -269,986 -268,364 -728,364 z m 0,487 q 750,0 1178,-488 429,-487 429,-1349 Q 3566,888 3137,398 2709,-91 1959,-91 1206,-91 779,398 353,888 353,1747 q 0,862 426,1349 427,488 1180,488 z"
               transform="scale(0.015625)" />
            <path
               id="DejaVuSans-66"
               d="m 2375,4863 v -479 h -550 q -309,0 -430,-125 -120,-125 -120,-450 v -309 h 947 V 3053 H 1275 V 0 H 697 V 3053 H 147 v 447 h 550 v 244 q 0,584 272,851 272,268 862,268 z"
               transform="scale(0.015625)" />
            <path
               id="DejaVuSans-62"
               d="m 3116,1747 q 0,634 -261,995 -261,361 -717,361 -457,0 -718,-361 -261,-361 -261,-995 0,-634 261,-995 261,-361 718,-361 456,0 717,361 261,361 261,995 z M 1159,2969 q 182,312 458,463 277,152 661,152 638,0 1036,-506 399,-506 399,-1331 Q 3713,922 3314,415 2916,-91 2278,-91 1894,-91 1617,61 1341,213 1159,525 V 0 H 581 v 4863 h 578 z"
               transform="scale(0.015625)" />
            <path
               id="DejaVuSans-6b"
               d="m 581,4863 h 578 V 1991 l 1716,1509 h 734 L 1753,1863 3688,0 H 2938 L 1159,1709 V 0 H 581 Z"
               transform="scale(0.015625)" />
          </defs>
          <use
             xlink:href="#DejaVuSans-41"
             id="use347" />
          <use
             xlink:href="#DejaVuSans-76"
             x="62.533203"
             id="use349" />
          <use
             xlink:href="#DejaVuSans-61"
             x="121.71289"
             id="use351" />
          <use
             xlink:href="#DejaVuSans-72"
             x="182.99219"
             id="use353" />
          <use
             xlink:href="#DejaVuSans-61"
             x="224.10547"
             id="use355" />
          <use
             xlink:href="#DejaVuSans-67"
             x="285.38477"
             id="use357" />
          <use
             xlink:href="#DejaVuSans-65"
             x="348.86133"
             id="use359" />
          <use
             xlink:href="#DejaVuSans-64"
             x="410.38477"
             id="use361" />
          <use
             xlink:href="#DejaVuSans-20"
             x="473.86133"
             id="use363" />
          <use
             xlink:href="#DejaVuSans-4c"
             x="505.64844"
             id="use365" />
          <use
             xlink:href="#DejaVuSans-61"
             x="561.36133"
             id="use367" />
          <use
             xlink:href="#DejaVuSans-73"
             x="622.64062"
             id="use369" />
          <use
             xlink:href="#DejaVuSans-65"
             x="674.74023"
             id="use371" />
          <use
             xlink:href="#DejaVuSans-72"
             x="736.26367"
             id="use373" />
          <use
             xlink:href="#DejaVuSans-20"
             x="777.37695"
             id="use375" />
          <use
             xlink:href="#DejaVuSans-73"
             x="809.16406"
             id="use377" />
          <use
             xlink:href="#DejaVuSans-70"
             x="861.26367"
             id="use379" />
          <use
             xlink:href="#DejaVuSans-65"
             x="924.74023"
             id="use381" />
          <use
             xlink:href="#DejaVuSans-63"
             x="986.26367"
             id="use383" />
          <use
             xlink:href="#DejaVuSans-74"
             x="1041.2441"
             id="use385" />
          <use
             xlink:href="#DejaVuSans-72"
             x="1080.4531"
             id="use387" />
          <use
             xlink:href="#DejaVuSans-75"
             x="1121.5664"
             id="use389" />
          <use
             xlink:href="#DejaVuSans-6d"
             x="1184.9453"
             id="use391" />
          <use
             xlink:href="#DejaVuSans-20"
             x="1282.3574"
             id="use393" />
          <use
             xlink:href="#DejaVuSans-6e"
             x="1314.1445"
             id="use395" />
          <use
             xlink:href="#DejaVuSans-6f"
             x="1377.5234"
             id="use397" />
          <use
             xlink:href="#DejaVuSans-20"
             x="1438.7051"
             id="use399" />
          <use
             xlink:href="#DejaVuSans-66"
             x="1470.4922"
             id="use401" />
          <use
             xlink:href="#DejaVuSans-65"
             x="1505.6973"
             id="use403" />
          <use
             xlink:href="#DejaVuSans-65"
             x="1567.2207"
             id="use405" />
          <use
             xlink:href="#DejaVuSans-64"
             x="1628.7441"
             id="use407" />
          <use
             xlink:href="#DejaVuSans-62"
             x="1692.2207"
             id="use409" />
          <use
             xlink:href="#DejaVuSans-61"
             x="1755.6973"
             id="use411" />
          <use
             xlink:href="#DejaVuSans-63"
             x="1816.9766"
             id="use413" />
          <use
             xlink:href="#DejaVuSans-6b"
             x="1871.957"
             id="use415" />
          <use
             xlink:href="#DejaVuSans-20"
             x="1929.8672"
             id="use417" />
          <use
             xlink:href="#DejaVuSans-6c"
             x="1961.6543"
             id="use419" />
          <use
             xlink:href="#DejaVuSans-61"
             x="1989.4375"
             id="use421" />
          <use
             xlink:href="#DejaVuSans-73"
             x="2050.7168"
             id="use423" />
          <use
             xlink:href="#DejaVuSans-69"
             x="2102.8164"
             id="use425" />
          <use
             xlink:href="#DejaVuSans-6e"
             x="2130.5996"
             id="use427" />
          <use
             xlink:href="#DejaVuSans-67"
             x="2193.9785"
             id="use429" />
          <use
             xlink:href="#DejaVuSans-20"
             x="2257.4551"
             id="use431" />
          <use
             xlink:href="#DejaVuSans-61"
             x="2289.2422"
             id="use433" />
          <use
             xlink:href="#DejaVuSans-74"
             x="2350.5215"
             id="use435" />
          <use
             xlink:href="#DejaVuSans-20"
             x="2389.7305"
             id="use437" />
          <use
             xlink:href="#DejaVuSans-32"
             x="2421.5176"
             id="use439" />
          <use
             xlink:href="#DejaVuSans-35"
             x="2485.1406"
             id="use441" />
          <use
             xlink:href="#DejaVuSans-6d"
             x="2548.7637"
             id="use443" />
          <use
             xlink:href="#DejaVuSans-41"
             x="2646.1758"
             id="use445" />
        </g>
      </g>
      <g
         id="legend_1">
        <g
           id="patch_7">
          <path
             d="M 525.04875,119.08125 H 635.4 q 3.6,0 3.6,-3.6 V 64.44 q 0,-3.6 -3.6,-3.6 H 525.04875 q -3.6,0 -3.6,3.6 v 51.04125 q 0,3.6 3.6,3.6 z"
             style="opacity:0.8;fill:#ffffff;stroke:#cccccc;stroke-linejoin:miter"
             id="path450" />
        </g>
        <g
           id="line2d_14">
          <path
             d="m 528.64875,75.417187 h 18 18"
             style="fill:none;stroke:#1f77b4;stroke-width:1.5;stroke-linecap:square"
             id="path453" />
        </g>
        <g
           id="text_15">
          <!-- 28mA -->
          <g
             transform="matrix(0.18,0,0,-0.18,579.04875,81.717187)"
             id="g464">
            <use
               xlink:href="#DejaVuSans-32"
               id="use456" />
            <use
               xlink:href="#DejaVuSans-38"
               x="63.623047"
               id="use458" />
            <use
               xlink:href="#DejaVuSans-6d"
               x="127.24609"
               id="use460" />
            <use
               xlink:href="#DejaVuSans-41"
               x="224.6582"
               id="use462" />
          </g>
        </g>
        <g
           id="line2d_15">
          <path
             d="m 528.64875,101.83781 h 18 18"
             style="fill:none;stroke:#ff7f0e;stroke-width:1.5;stroke-linecap:square"
             id="path467" />
        </g>
        <g
           id="text_16">
          <!-- 25mA -->
          <g
             transform="matrix(0.18,0,0,-0.18,579.04875,108.13781)"
             id="g478">
            <use
               xlink:href="#DejaVuSans-32"
               id="use470" />
            <use
               xlink:href="#DejaVuSans-35"
               x="63.623047"
               id="use472" />
            <use
               xlink:href="#DejaVuSans-6d"
               x="127.24609"
               id="use474" />
            <use
               xlink:href="#DejaVuSans-41"
               x="224.6582"
               id="use476" />
          </g>
        </g>
      </g>
    </g>
  </g>
  <defs
     id="defs487">
    <clipPath
       id="pdd347a50ad">
      <rect
         x="90"
         y="51.84"
         width="558"
         height="332.64"
         id="rect484" />
    </clipPath>
  </defs>
</svg>
